  0
SECTION
  2
HEADER
  9
$ACADVER
  1
AC1009
  9
$INSBASE
 10
0.000000
 20
0.000000
  9
$LIMMIN
 10
-12650.000000
 20
-8200.000000
  9
$LIMMAX
 10
37350.000000
 20
41800.000000
  9
$EXTMIN
 10
-12650.000000
 20
-8200.000000
  9
$EXTMAX
 10
37350.000000
 20
41800.000000
  9
$ATTMODE
 70
0
  9
$LUNITS
 70
2
  9
$LUPREC
 70
3
  9
$THICKNESS
 40
10.400000
  0
ENDSEC
  0
SECTION
  2
TABLES
  0
TABLE
  2
LTYPE
 70
1
  0
LTYPE
  3
Solid Line
  2
CONTINUOUS
 70
0
 72
65
 73
0
 40
0.000000
  0
ENDTAB
  0
TABLE
  2
LAYER
 70
6
  0
LAYER
  2
BG_SILKSCREEN_TOP
 70
0
 62
7
  6
CONTINUOUS
  0
LAYER
  2
BG_DIMENSION
 70
0
 62
2
  6
CONTINUOUS
  0
LAYER
  2
BG_OUTLINE
 70
0
 62
3
  6
CONTINUOUS
  0
LAYER
  2
PG_SILKSCREEN_TOP
 70
0
 62
7
  6
CONTINUOUS
  0
LAYER
  2
PIN_TOP
 70
0
 62
92
  6
CONTINUOUS
  0
LAYER
  2
RD_SILKSCREEN_TOP
 70
0
 62
142
  6
CONTINUOUS
  0
ENDTAB
  0
TABLE
  2
STYLE
 70
1
  0
STYLE
  2
STANDARD
 70
0
 40
0.000000
 41
1.000000
 50
0.000000
 71
0
 42
0.200000
  3
txt
  0
ENDTAB
  0
ENDSEC
  0
SECTION
  2
BLOCKS
  0
BLOCK
  8
0
  2
FIGURE_CIRCLE
 70
0
 10
0.000000
 20
0.000000
  0
CIRCLE
  8
0
 10
0.000000
 20
0.000000
 40
0.500000
  0
ENDBLK
  0
BLOCK
  8
0
  2
FIGURE_SQUARE
 70
0
 10
0.000000
 20
0.000000
  0
POLYLINE
  8
0
 66
1
 70
1
 40
0.000000
 41
0.000000
 39
0.000000
  0
VERTEX
  8
0
 10
-0.500000
 20
-0.500000
 40
0.000000
 41
0.000000
 42
0.000000
  0
VERTEX
  8
0
 10
-0.500000
 20
0.500000
 40
0.000000
 41
0.000000
 42
0.000000
  0
VERTEX
  8
0
 10
0.500000
 20
0.500000
 40
0.000000
 41
0.000000
 42
0.000000
  0
VERTEX
  8
0
 10
0.500000
 20
-0.500000
 40
0.000000
 41
0.000000
 42
0.000000
  0
SEQEND
  0
ENDBLK
  0
BLOCK
  8
0
  2
FIGURE_HEX
 70
0
 10
0.000000
 20
0.000000
  0
POLYLINE
  8
0
 66
1
 70
1
 40
0.000000
 41
0.000000
 39
0.000000
  0
VERTEX
  8
0
 10
-0.500000
 20
0.000000
 40
0.000000
 41
0.000000
 42
0.000000
  0
VERTEX
  8
0
 10
-0.250000
 20
0.500000
 40
0.000000
 41
0.000000
 42
0.000000
  0
VERTEX
  8
0
 10
0.250000
 20
0.500000
 40
0.000000
 41
0.000000
 42
0.000000
  0
VERTEX
  8
0
 10
0.500000
 20
0.000000
 40
0.000000
 41
0.000000
 42
0.000000
  0
VERTEX
  8
0
 10
0.250000
 20
-0.500000
 40
0.000000
 41
0.000000
 42
0.000000
  0
VERTEX
  8
0
 10
-0.250000
 20
-0.500000
 40
0.000000
 41
0.000000
 42
0.000000
  0
SEQEND
  0
ENDBLK
  0
BLOCK
  8
0
  2
FIGURE_OCT
 70
0
 10
0.000000
 20
0.000000
  0
POLYLINE
  8
0
 66
1
 70
1
 40
0.000000
 41
0.000000
 39
0.000000
  0
VERTEX
  8
0
 10
-0.500000
 20
-0.207100
 40
0.000000
 41
0.000000
 42
0.000000
  0
VERTEX
  8
0
 10
-0.500000
 20
0.207100
 40
0.000000
 41
0.000000
 42
0.000000
  0
VERTEX
  8
0
 10
-0.207100
 20
0.500000
 40
0.000000
 41
0.000000
 42
0.000000
  0
VERTEX
  8
0
 10
0.207100
 20
0.500000
 40
0.000000
 41
0.000000
 42
0.000000
  0
VERTEX
  8
0
 10
0.500000
 20
0.207100
 40
0.000000
 41
0.000000
 42
0.000000
  0
VERTEX
  8
0
 10
0.500000
 20
-0.207100
 40
0.000000
 41
0.000000
 42
0.000000
  0
VERTEX
  8
0
 10
0.207100
 20
-0.500000
 40
0.000000
 41
0.000000
 42
0.000000
  0
VERTEX
  8
0
 10
-0.207100
 20
-0.500000
 40
0.000000
 41
0.000000
 42
0.000000
  0
SEQEND
  0
ENDBLK
  0
BLOCK
  8
0
  2
FIGURE_OBLONG
 70
0
 10
0.000000
 20
0.000000
  0
POLYLINE
  8
0
 66
1
 70
1
 40
0.000000
 41
0.000000
 39
0.000000
  0
VERTEX
  8
0
 10
-0.500000
 20
-0.125000
 40
0.000000
 41
0.000000
 42
0.000000
  0
VERTEX
  8
0
 10
-0.500000
 20
0.125000
 40
0.000000
 41
0.000000
 42
0.000000
  0
VERTEX
  8
0
 10
-0.416000
 20
0.375000
 40
0.000000
 41
0.000000
 42
0.000000
  0
VERTEX
  8
0
 10
-0.250000
 20
0.500000
 40
0.000000
 41
0.000000
 42
0.000000
  0
VERTEX
  8
0
 10
0.250000
 20
0.500000
 40
0.000000
 41
0.000000
 42
0.000000
  0
VERTEX
  8
0
 10
0.416000
 20
0.375000
 40
0.000000
 41
0.000000
 42
0.000000
  0
VERTEX
  8
0
 10
0.500000
 20
0.125000
 40
0.000000
 41
0.000000
 42
0.000000
  0
VERTEX
  8
0
 10
0.500000
 20
-0.125000
 40
0.000000
 41
0.000000
 42
0.000000
  0
VERTEX
  8
0
 10
0.416000
 20
-0.375000
 40
0.000000
 41
0.000000
 42
0.000000
  0
VERTEX
  8
0
 10
0.250000
 20
-0.500000
 40
0.000000
 41
0.000000
 42
0.000000
  0
VERTEX
  8
0
 10
-0.250000
 20
-0.500000
 40
0.000000
 41
0.000000
 42
0.000000
  0
VERTEX
  8
0
 10
-0.416000
 20
-0.375000
 40
0.000000
 41
0.000000
 42
0.000000
  0
SEQEND
  0
ENDBLK
  0
BLOCK
  8
0
  2
FIGURE_TRI
 70
0
 10
0.000000
 20
0.000000
  0
POLYLINE
  8
0
 66
1
 70
1
 40
0.000000
 41
0.000000
 39
0.000000
  0
VERTEX
  8
0
 10
-0.500000
 20
-0.500000
 40
0.000000
 41
0.000000
 42
0.000000
  0
VERTEX
  8
0
 10
0.000000
 20
0.500000
 40
0.000000
 41
0.000000
 42
0.000000
  0
VERTEX
  8
0
 10
0.500000
 20
-0.500000
 40
0.000000
 41
0.000000
 42
0.000000
  0
SEQEND
  0
ENDBLK
  0
BLOCK
  8
0
  2
FIGURE_CROSS
 70
0
 10
0.000000
 20
0.000000
  0
POLYLINE
  8
0
 66
1
 70
0
 40
0.000000
 41
0.000000
 39
0.000000
  0
VERTEX
  8
0
 10
-0.500000
 20
0.000000
 40
0.000000
 41
0.000000
 42
0.000000
  0
VERTEX
  8
0
 10
0.500000
 20
0.000000
 40
0.000000
 41
0.000000
 42
0.000000
  0
SEQEND
  0
POLYLINE
  8
0
 66
1
 70
0
 40
0.000000
 41
0.000000
 39
0.000000
  0
VERTEX
  8
0
 10
0.000000
 20
0.500000
 40
0.000000
 41
0.000000
 42
0.000000
  0
VERTEX
  8
0
 10
0.000000
 20
-0.500000
 40
0.000000
 41
0.000000
 42
0.000000
  0
SEQEND
  0
ENDBLK
  0
BLOCK
  8
0
  2
FIGURE_DIAMOND
 70
0
 10
0.000000
 20
0.000000
  0
POLYLINE
  8
0
 66
1
 70
1
 40
0.000000
 41
0.000000
 39
0.000000
  0
VERTEX
  8
0
 10
-0.500000
 20
0.000000
 40
0.000000
 41
0.000000
 42
0.000000
  0
VERTEX
  8
0
 10
0.000000
 20
0.500000
 40
0.000000
 41
0.000000
 42
0.000000
  0
VERTEX
  8
0
 10
0.500000
 20
0.000000
 40
0.000000
 41
0.000000
 42
0.000000
  0
VERTEX
  8
0
 10
0.000000
 20
-0.500000
 40
0.000000
 41
0.000000
 42
0.000000
  0
SEQEND
  0
ENDBLK
  0
ENDSEC
  0
SECTION
  2
ENTITIES
  0
POLYLINE
  8
BG_DIMENSION
 66
1
 70
0
 40
0.000000
 41
0.000000
 39
0.000000
  0
VERTEX
  8
BG_DIMENSION
 10
-279.500000
 20
835.000000
 40
0.000000
 41
0.000000
 42
0.000000
  0
VERTEX
  8
BG_DIMENSION
 10
-319.500000
 20
775.000000
 40
0.000000
 41
0.000000
 42
0.000000
  0
SEQEND
  0
POLYLINE
  8
BG_DIMENSION
 66
1
 70
0
 40
0.000000
 41
0.000000
 39
0.000000
  0
VERTEX
  8
BG_DIMENSION
 10
-279.500000
 20
805.000000
 40
0.000000
 41
0.000000
 42
1.000000
  0
VERTEX
  8
BG_DIMENSION
 10
-319.500000
 20
805.000000
 40
0.000000
 41
0.000000
 42
1.000000
  0
VERTEX
  8
BG_DIMENSION
 10
-279.500000
 20
805.000000
 40
0.000000
 41
0.000000
 42
0.000000
  0
SEQEND
  0
POLYLINE
  8
BG_DIMENSION
 66
1
 70
0
 40
0.000000
 41
0.000000
 39
0.000000
  0
VERTEX
  8
BG_DIMENSION
 10
60.630000
 20
805.000000
 40
0.000000
 41
0.000000
 42
0.000000
  0
VERTEX
  8
BG_DIMENSION
 10
-210.500000
 20
805.000000
 40
0.000000
 41
0.000000
 42
0.000000
  0
SEQEND
  0
POLYLINE
  8
BG_DIMENSION
 66
1
 70
0
 40
0.000000
 41
0.000000
 39
0.000000
  0
VERTEX
  8
BG_DIMENSION
 10
-96.850000
 20
780.396000
 40
0.000000
 41
0.000000
 42
0.000000
  0
VERTEX
  8
BG_DIMENSION
 10
60.630000
 20
805.000000
 40
0.000000
 41
0.000000
 42
0.000000
  0
VERTEX
  8
BG_DIMENSION
 10
-96.850000
 20
829.604000
 40
0.000000
 41
0.000000
 42
0.000000
  0
VERTEX
  8
BG_DIMENSION
 10
-96.850000
 20
780.396000
 40
0.000000
 41
0.000000
 42
0.000000
  0
SEQEND
  0
TEXT
  8
BG_DIMENSION
 10
-278.500000
 20
785.000000
 11
0.000000
 21
0.000000
 40
40.000000
 41
0.900000
 50
0.000000
  7
STANDARD
 71
0
 72
0
  1
2
 73
0
  0
POLYLINE
  8
BG_DIMENSION
 66
1
 70
0
 40
0.000000
 41
0.000000
 39
0.000000
  0
VERTEX
  8
BG_DIMENSION
 10
2420.396000
 20
1062.992000
 40
0.000000
 41
0.000000
 42
0.000000
  0
VERTEX
  8
BG_DIMENSION
 10
2445.000000
 20
905.512000
 40
0.000000
 41
0.000000
 42
0.000000
  0
VERTEX
  8
BG_DIMENSION
 10
2469.604000
 20
1062.992000
 40
0.000000
 41
0.000000
 42
0.000000
  0
VERTEX
  8
BG_DIMENSION
 10
2420.396000
 20
1062.992000
 40
0.000000
 41
0.000000
 42
0.000000
  0
SEQEND
  0
POLYLINE
  8
BG_DIMENSION
 66
1
 70
0
 40
0.000000
 41
0.000000
 39
0.000000
  0
VERTEX
  8
BG_DIMENSION
 10
2445.000000
 20
1220.472000
 40
0.000000
 41
0.000000
 42
0.000000
  0
VERTEX
  8
BG_DIMENSION
 10
2445.000000
 20
905.512000
 40
0.000000
 41
0.000000
 42
0.000000
  0
SEQEND
  0
POLYLINE
  8
BG_DIMENSION
 66
1
 70
0
 40
0.000000
 41
0.000000
 39
0.000000
  0
VERTEX
  8
BG_DIMENSION
 10
2469.604000
 20
545.276000
 40
0.000000
 41
0.000000
 42
0.000000
  0
VERTEX
  8
BG_DIMENSION
 10
2445.000000
 20
702.756000
 40
0.000000
 41
0.000000
 42
0.000000
  0
VERTEX
  8
BG_DIMENSION
 10
2420.396000
 20
545.276000
 40
0.000000
 41
0.000000
 42
0.000000
  0
VERTEX
  8
BG_DIMENSION
 10
2469.604000
 20
545.276000
 40
0.000000
 41
0.000000
 42
0.000000
  0
SEQEND
  0
POLYLINE
  8
BG_DIMENSION
 66
1
 70
0
 40
0.000000
 41
0.000000
 39
0.000000
  0
VERTEX
  8
BG_DIMENSION
 10
2445.000000
 20
483.000000
 40
0.000000
 41
0.000000
 42
0.000000
  0
VERTEX
  8
BG_DIMENSION
 10
2445.000000
 20
702.756000
 40
0.000000
 41
0.000000
 42
0.000000
  0
SEQEND
  0
POLYLINE
  8
BG_DIMENSION
 66
1
 70
0
 40
0.000000
 41
0.000000
 39
0.000000
  0
VERTEX
  8
BG_DIMENSION
 10
2026.933000
 20
702.756000
 40
0.000000
 41
0.000000
 42
0.000000
  0
VERTEX
  8
BG_DIMENSION
 10
2543.429000
 20
702.756000
 40
0.000000
 41
0.000000
 42
0.000000
  0
SEQEND
  0
POLYLINE
  8
BG_DIMENSION
 66
1
 70
0
 40
0.000000
 41
0.000000
 39
0.000000
  0
VERTEX
  8
BG_DIMENSION
 10
1948.823000
 20
905.512000
 40
0.000000
 41
0.000000
 42
0.000000
  0
VERTEX
  8
BG_DIMENSION
 10
2543.429000
 20
905.512000
 40
0.000000
 41
0.000000
 42
0.000000
  0
SEQEND
  0
TEXT
  8
BG_DIMENSION
 10
2373.500000
 20
410.000000
 11
0.000000
 21
0.000000
 40
40.000000
 41
0.900000
 50
0.000000
  7
STANDARD
 71
0
 72
0
  1
5.15
 73
0
  0
POLYLINE
  8
BG_DIMENSION
 66
1
 70
0
 40
0.000000
 41
0.000000
 39
0.000000
  0
VERTEX
  8
BG_DIMENSION
 10
-279.604000
 20
433.035000
 40
0.000000
 41
0.000000
 42
0.000000
  0
VERTEX
  8
BG_DIMENSION
 10
-255.000000
 20
275.555000
 40
0.000000
 41
0.000000
 42
0.000000
  0
VERTEX
  8
BG_DIMENSION
 10
-230.396000
 20
433.035000
 40
0.000000
 41
0.000000
 42
0.000000
  0
VERTEX
  8
BG_DIMENSION
 10
-279.604000
 20
433.035000
 40
0.000000
 41
0.000000
 42
0.000000
  0
SEQEND
  0
POLYLINE
  8
BG_DIMENSION
 66
1
 70
0
 40
0.000000
 41
0.000000
 39
0.000000
  0
VERTEX
  8
BG_DIMENSION
 10
-255.000000
 20
590.515000
 40
0.000000
 41
0.000000
 42
0.000000
  0
VERTEX
  8
BG_DIMENSION
 10
-255.000000
 20
275.555000
 40
0.000000
 41
0.000000
 42
0.000000
  0
SEQEND
  0
POLYLINE
  8
BG_DIMENSION
 66
1
 70
0
 40
0.000000
 41
0.000000
 39
0.000000
  0
VERTEX
  8
BG_DIMENSION
 10
-230.396000
 20
-157.480000
 40
0.000000
 41
0.000000
 42
0.000000
  0
VERTEX
  8
BG_DIMENSION
 10
-255.000000
 20
0.000000
 40
0.000000
 41
0.000000
 42
0.000000
  0
VERTEX
  8
BG_DIMENSION
 10
-279.604000
 20
-157.480000
 40
0.000000
 41
0.000000
 42
0.000000
  0
VERTEX
  8
BG_DIMENSION
 10
-230.396000
 20
-157.480000
 40
0.000000
 41
0.000000
 42
0.000000
  0
SEQEND
  0
POLYLINE
  8
BG_DIMENSION
 66
1
 70
0
 40
0.000000
 41
0.000000
 39
0.000000
  0
VERTEX
  8
BG_DIMENSION
 10
-255.000000
 20
-197.000000
 40
0.000000
 41
0.000000
 42
0.000000
  0
VERTEX
  8
BG_DIMENSION
 10
-255.000000
 20
0.000000
 40
0.000000
 41
0.000000
 42
0.000000
  0
SEQEND
  0
POLYLINE
  8
BG_DIMENSION
 66
1
 70
0
 40
0.000000
 41
0.000000
 39
0.000000
  0
VERTEX
  8
BG_DIMENSION
 10
19.681000
 20
0.000000
 40
0.000000
 41
0.000000
 42
0.000000
  0
VERTEX
  8
BG_DIMENSION
 10
-353.429000
 20
0.000000
 40
0.000000
 41
0.000000
 42
0.000000
  0
SEQEND
  0
POLYLINE
  8
BG_DIMENSION
 66
1
 70
0
 40
0.000000
 41
0.000000
 39
0.000000
  0
VERTEX
  8
BG_DIMENSION
 10
-98.429000
 20
275.555000
 40
0.000000
 41
0.000000
 42
0.000000
  0
VERTEX
  8
BG_DIMENSION
 10
-353.429000
 20
275.555000
 40
0.000000
 41
0.000000
 42
0.000000
  0
SEQEND
  0
TEXT
  8
BG_DIMENSION
 10
-272.500000
 20
-270.000000
 11
0.000000
 21
0.000000
 40
40.000000
 41
0.900000
 50
0.000000
  7
STANDARD
 71
0
 72
0
  1
7
 73
0
  0
POLYLINE
  8
BG_DIMENSION
 66
1
 70
0
 40
0.000000
 41
0.000000
 39
0.000000
  0
VERTEX
  8
BG_DIMENSION
 10
1811.024000
 20
-179.604000
 40
0.000000
 41
0.000000
 42
0.000000
  0
VERTEX
  8
BG_DIMENSION
 10
1968.504000
 20
-155.000000
 40
0.000000
 41
0.000000
 42
0.000000
  0
VERTEX
  8
BG_DIMENSION
 10
1811.024000
 20
-130.396000
 40
0.000000
 41
0.000000
 42
0.000000
  0
VERTEX
  8
BG_DIMENSION
 10
1811.024000
 20
-179.604000
 40
0.000000
 41
0.000000
 42
0.000000
  0
SEQEND
  0
POLYLINE
  8
BG_DIMENSION
 66
1
 70
0
 40
0.000000
 41
0.000000
 39
0.000000
  0
VERTEX
  8
BG_DIMENSION
 10
1023.500000
 20
-155.000000
 40
0.000000
 41
0.000000
 42
0.000000
  0
VERTEX
  8
BG_DIMENSION
 10
1968.504000
 20
-155.000000
 40
0.000000
 41
0.000000
 42
0.000000
  0
SEQEND
  0
POLYLINE
  8
BG_DIMENSION
 66
1
 70
0
 40
0.000000
 41
0.000000
 39
0.000000
  0
VERTEX
  8
BG_DIMENSION
 10
157.480000
 20
-130.396000
 40
0.000000
 41
0.000000
 42
0.000000
  0
VERTEX
  8
BG_DIMENSION
 10
0.000000
 20
-155.000000
 40
0.000000
 41
0.000000
 42
0.000000
  0
VERTEX
  8
BG_DIMENSION
 10
157.480000
 20
-179.604000
 40
0.000000
 41
0.000000
 42
0.000000
  0
VERTEX
  8
BG_DIMENSION
 10
157.480000
 20
-130.396000
 40
0.000000
 41
0.000000
 42
0.000000
  0
SEQEND
  0
POLYLINE
  8
BG_DIMENSION
 66
1
 70
0
 40
0.000000
 41
0.000000
 39
0.000000
  0
VERTEX
  8
BG_DIMENSION
 10
886.500000
 20
-155.000000
 40
0.000000
 41
0.000000
 42
0.000000
  0
VERTEX
  8
BG_DIMENSION
 10
0.000000
 20
-155.000000
 40
0.000000
 41
0.000000
 42
0.000000
  0
SEQEND
  0
POLYLINE
  8
BG_DIMENSION
 66
1
 70
0
 40
0.000000
 41
0.000000
 39
0.000000
  0
VERTEX
  8
BG_DIMENSION
 10
1968.504000
 20
19.681000
 40
0.000000
 41
0.000000
 42
0.000000
  0
VERTEX
  8
BG_DIMENSION
 10
1968.504000
 20
-253.429000
 40
0.000000
 41
0.000000
 42
0.000000
  0
SEQEND
  0
POLYLINE
  8
BG_DIMENSION
 66
1
 70
0
 40
0.000000
 41
0.000000
 39
0.000000
  0
VERTEX
  8
BG_DIMENSION
 10
0.000000
 20
19.681000
 40
0.000000
 41
0.000000
 42
0.000000
  0
VERTEX
  8
BG_DIMENSION
 10
0.000000
 20
-253.429000
 40
0.000000
 41
0.000000
 42
0.000000
  0
SEQEND
  0
TEXT
  8
BG_DIMENSION
 10
919.500000
 20
-175.000000
 11
0.000000
 21
0.000000
 40
40.000000
 41
0.900000
 50
0.000000
  7
STANDARD
 71
0
 72
0
  1
50
 73
0
  0
POLYLINE
  8
BG_DIMENSION
 66
1
 70
0
 40
0.000000
 41
0.000000
 39
0.000000
  0
VERTEX
  8
BG_DIMENSION
 10
2269.604000
 20
748.032000
 40
0.000000
 41
0.000000
 42
0.000000
  0
VERTEX
  8
BG_DIMENSION
 10
2245.000000
 20
905.512000
 40
0.000000
 41
0.000000
 42
0.000000
  0
VERTEX
  8
BG_DIMENSION
 10
2220.396000
 20
748.032000
 40
0.000000
 41
0.000000
 42
0.000000
  0
VERTEX
  8
BG_DIMENSION
 10
2269.604000
 20
748.032000
 40
0.000000
 41
0.000000
 42
0.000000
  0
SEQEND
  0
POLYLINE
  8
BG_DIMENSION
 66
1
 70
0
 40
0.000000
 41
0.000000
 39
0.000000
  0
VERTEX
  8
BG_DIMENSION
 10
2245.000000
 20
483.000000
 40
0.000000
 41
0.000000
 42
0.000000
  0
VERTEX
  8
BG_DIMENSION
 10
2245.000000
 20
905.512000
 40
0.000000
 41
0.000000
 42
0.000000
  0
SEQEND
  0
POLYLINE
  8
BG_DIMENSION
 66
1
 70
0
 40
0.000000
 41
0.000000
 39
0.000000
  0
VERTEX
  8
BG_DIMENSION
 10
2220.396000
 20
157.480000
 40
0.000000
 41
0.000000
 42
0.000000
  0
VERTEX
  8
BG_DIMENSION
 10
2245.000000
 20
0.000000
 40
0.000000
 41
0.000000
 42
0.000000
  0
VERTEX
  8
BG_DIMENSION
 10
2269.604000
 20
157.480000
 40
0.000000
 41
0.000000
 42
0.000000
  0
VERTEX
  8
BG_DIMENSION
 10
2220.396000
 20
157.480000
 40
0.000000
 41
0.000000
 42
0.000000
  0
SEQEND
  0
POLYLINE
  8
BG_DIMENSION
 66
1
 70
0
 40
0.000000
 41
0.000000
 39
0.000000
  0
VERTEX
  8
BG_DIMENSION
 10
2245.000000
 20
377.000000
 40
0.000000
 41
0.000000
 42
0.000000
  0
VERTEX
  8
BG_DIMENSION
 10
2245.000000
 20
0.000000
 40
0.000000
 41
0.000000
 42
0.000000
  0
SEQEND
  0
POLYLINE
  8
BG_DIMENSION
 66
1
 70
0
 40
0.000000
 41
0.000000
 39
0.000000
  0
VERTEX
  8
BG_DIMENSION
 10
1948.823000
 20
0.000000
 40
0.000000
 41
0.000000
 42
0.000000
  0
VERTEX
  8
BG_DIMENSION
 10
2343.429000
 20
0.000000
 40
0.000000
 41
0.000000
 42
0.000000
  0
SEQEND
  0
POLYLINE
  8
BG_DIMENSION
 66
1
 70
0
 40
0.000000
 41
0.000000
 39
0.000000
  0
VERTEX
  8
BG_DIMENSION
 10
1948.823000
 20
905.512000
 40
0.000000
 41
0.000000
 42
0.000000
  0
VERTEX
  8
BG_DIMENSION
 10
2343.429000
 20
905.512000
 40
0.000000
 41
0.000000
 42
0.000000
  0
SEQEND
  0
TEXT
  8
BG_DIMENSION
 10
2209.500000
 20
410.000000
 11
0.000000
 21
0.000000
 40
40.000000
 41
0.900000
 50
0.000000
  7
STANDARD
 71
0
 72
0
  1
23
 73
0
  0
CIRCLE
  8
PIN_TOP
 10
98.425000
 20
807.087000
 40
41.338500
  0
CIRCLE
  8
PIN_TOP
 10
98.425000
 20
98.425000
 40
41.338500
  0
CIRCLE
  8
PIN_TOP
 10
1870.079000
 20
807.087000
 40
41.338500
  0
CIRCLE
  8
PIN_TOP
 10
1870.079000
 20
98.425000
 40
41.338500
  0
POLYLINE
  8
PIN_TOP
 66
1
 70
1
 40
0.000000
 41
0.000000
 39
0.000000
  0
VERTEX
  8
PIN_TOP
 10
622.380000
 20
440.913000
 40
0.000000
 41
0.000000
 42
0.000000
  0
VERTEX
  8
PIN_TOP
 10
669.620000
 20
440.913000
 40
0.000000
 41
0.000000
 42
0.000000
  0
VERTEX
  8
PIN_TOP
 10
669.620000
 20
385.795000
 40
0.000000
 41
0.000000
 42
0.000000
  0
VERTEX
  8
PIN_TOP
 10
622.380000
 20
385.795000
 40
0.000000
 41
0.000000
 42
0.000000
  0
SEQEND
  0
POLYLINE
  8
PIN_TOP
 66
1
 70
1
 40
0.000000
 41
0.000000
 39
0.000000
  0
VERTEX
  8
PIN_TOP
 10
622.380000
 20
519.717000
 40
0.000000
 41
0.000000
 42
0.000000
  0
VERTEX
  8
PIN_TOP
 10
669.620000
 20
519.717000
 40
0.000000
 41
0.000000
 42
0.000000
  0
VERTEX
  8
PIN_TOP
 10
669.620000
 20
464.599000
 40
0.000000
 41
0.000000
 42
0.000000
  0
VERTEX
  8
PIN_TOP
 10
622.380000
 20
464.599000
 40
0.000000
 41
0.000000
 42
0.000000
  0
SEQEND
  0
POLYLINE
  8
PG_SILKSCREEN_TOP
 66
1
 70
0
 40
0.000000
 41
0.000000
 39
0.000000
  0
VERTEX
  8
PG_SILKSCREEN_TOP
 10
610.598000
 20
527.555000
 40
5.902000
 41
5.902000
 42
0.000000
  0
VERTEX
  8
PG_SILKSCREEN_TOP
 10
681.402000
 20
527.555000
 40
5.902000
 41
5.902000
 42
0.000000
  0
SEQEND
  0
POLYLINE
  8
PG_SILKSCREEN_TOP
 66
1
 70
0
 40
0.000000
 41
0.000000
 39
0.000000
  0
VERTEX
  8
PG_SILKSCREEN_TOP
 10
610.598000
 20
377.957000
 40
5.902000
 41
5.902000
 42
0.000000
  0
VERTEX
  8
PG_SILKSCREEN_TOP
 10
610.598000
 20
527.555000
 40
5.902000
 41
5.902000
 42
0.000000
  0
SEQEND
  0
POLYLINE
  8
PG_SILKSCREEN_TOP
 66
1
 70
0
 40
0.000000
 41
0.000000
 39
0.000000
  0
VERTEX
  8
PG_SILKSCREEN_TOP
 10
681.402000
 20
377.957000
 40
5.902000
 41
5.902000
 42
0.000000
  0
VERTEX
  8
PG_SILKSCREEN_TOP
 10
610.598000
 20
377.957000
 40
5.902000
 41
5.902000
 42
0.000000
  0
SEQEND
  0
POLYLINE
  8
PG_SILKSCREEN_TOP
 66
1
 70
0
 40
0.000000
 41
0.000000
 39
0.000000
  0
VERTEX
  8
PG_SILKSCREEN_TOP
 10
681.402000
 20
527.555000
 40
5.902000
 41
5.902000
 42
0.000000
  0
VERTEX
  8
PG_SILKSCREEN_TOP
 10
681.402000
 20
377.957000
 40
5.902000
 41
5.902000
 42
0.000000
  0
SEQEND
  0
TEXT
  8
RD_SILKSCREEN_TOP
 10
637.000000
 20
555.000000
 11
0.000000
 21
0.000000
 40
30.000000
 41
0.866667
 50
0.000000
  7
STANDARD
 71
0
 72
0
  1
Y2
 73
0
  0
POLYLINE
  8
PIN_TOP
 66
1
 70
1
 40
0.000000
 41
0.000000
 39
0.000000
  0
VERTEX
  8
PIN_TOP
 10
1304.843000
 20
523.622500
 40
0.000000
 41
0.000000
 42
0.000000
  0
VERTEX
  8
PIN_TOP
 10
1344.213000
 20
523.622500
 40
0.000000
 41
0.000000
 42
0.000000
  0
VERTEX
  8
PIN_TOP
 10
1344.213000
 20
472.441500
 40
0.000000
 41
0.000000
 42
0.000000
  0
VERTEX
  8
PIN_TOP
 10
1304.843000
 20
472.441500
 40
0.000000
 41
0.000000
 42
0.000000
  0
SEQEND
  0
POLYLINE
  8
PIN_TOP
 66
1
 70
1
 40
0.000000
 41
0.000000
 39
0.000000
  0
VERTEX
  8
PIN_TOP
 10
1304.843000
 20
433.070500
 40
0.000000
 41
0.000000
 42
0.000000
  0
VERTEX
  8
PIN_TOP
 10
1344.213000
 20
433.070500
 40
0.000000
 41
0.000000
 42
0.000000
  0
VERTEX
  8
PIN_TOP
 10
1344.213000
 20
381.889500
 40
0.000000
 41
0.000000
 42
0.000000
  0
VERTEX
  8
PIN_TOP
 10
1304.843000
 20
381.889500
 40
0.000000
 41
0.000000
 42
0.000000
  0
SEQEND
  0
POLYLINE
  8
PIN_TOP
 66
1
 70
1
 40
0.000000
 41
0.000000
 39
0.000000
  0
VERTEX
  8
PIN_TOP
 10
1245.787000
 20
523.622500
 40
0.000000
 41
0.000000
 42
0.000000
  0
VERTEX
  8
PIN_TOP
 10
1285.157000
 20
523.622500
 40
0.000000
 41
0.000000
 42
0.000000
  0
VERTEX
  8
PIN_TOP
 10
1285.157000
 20
472.441500
 40
0.000000
 41
0.000000
 42
0.000000
  0
VERTEX
  8
PIN_TOP
 10
1245.787000
 20
472.441500
 40
0.000000
 41
0.000000
 42
0.000000
  0
SEQEND
  0
POLYLINE
  8
PIN_TOP
 66
1
 70
1
 40
0.000000
 41
0.000000
 39
0.000000
  0
VERTEX
  8
PIN_TOP
 10
1245.787000
 20
433.070500
 40
0.000000
 41
0.000000
 42
0.000000
  0
VERTEX
  8
PIN_TOP
 10
1285.157000
 20
433.070500
 40
0.000000
 41
0.000000
 42
0.000000
  0
VERTEX
  8
PIN_TOP
 10
1285.157000
 20
381.889500
 40
0.000000
 41
0.000000
 42
0.000000
  0
VERTEX
  8
PIN_TOP
 10
1245.787000
 20
381.889500
 40
0.000000
 41
0.000000
 42
0.000000
  0
SEQEND
  0
POLYLINE
  8
PG_SILKSCREEN_TOP
 66
1
 70
0
 40
0.000000
 41
0.000000
 39
0.000000
  0
VERTEX
  8
PG_SILKSCREEN_TOP
 10
1247.756000
 20
464.567000
 40
5.906000
 41
5.906000
 42
0.000000
  0
VERTEX
  8
PG_SILKSCREEN_TOP
 10
1247.756000
 20
440.945000
 40
5.906000
 41
5.906000
 42
0.000000
  0
SEQEND
  0
POLYLINE
  8
PG_SILKSCREEN_TOP
 66
1
 70
0
 40
0.000000
 41
0.000000
 39
0.000000
  0
VERTEX
  8
PG_SILKSCREEN_TOP
 10
1342.244000
 20
464.567000
 40
5.906000
 41
5.906000
 42
0.000000
  0
VERTEX
  8
PG_SILKSCREEN_TOP
 10
1342.244000
 20
440.945000
 40
5.906000
 41
5.906000
 42
0.000000
  0
SEQEND
  0
POLYLINE
  8
PG_SILKSCREEN_TOP
 66
1
 70
1
 40
0.000000
 41
0.000000
 39
0.000000
  0
VERTEX
  8
PG_SILKSCREEN_TOP
 10
1274.843000
 20
541.000000
 40
0.000000
 41
0.000000
 42
1.000000
  0
VERTEX
  8
PG_SILKSCREEN_TOP
 10
1255.156732
 20
541.000189
 40
0.000000
 41
0.000000
 42
1.000000
  0
SEQEND
  0
TEXT
  8
RD_SILKSCREEN_TOP
 10
1272.000000
 20
560.000000
 11
0.000000
 21
0.000000
 40
30.000000
 41
0.866667
 50
0.000000
  7
STANDARD
 71
0
 72
0
  1
Y1
 73
0
  0
POLYLINE
  8
PIN_TOP
 66
1
 70
1
 40
0.000000
 41
0.000000
 39
0.000000
  0
VERTEX
  8
PIN_TOP
 10
202.756000
 20
847.795000
 40
0.000000
 41
0.000000
 42
0.000000
  0
VERTEX
  8
PIN_TOP
 10
202.756000
 20
784.803000
 40
0.000000
 41
0.000000
 42
0.000000
  0
VERTEX
  8
PIN_TOP
 10
265.748000
 20
784.803000
 40
0.000000
 41
0.000000
 42
0.000000
  0
VERTEX
  8
PIN_TOP
 10
265.748000
 20
847.795000
 40
0.000000
 41
0.000000
 42
0.000000
  0
SEQEND
  0
CIRCLE
  8
PIN_TOP
 10
334.252000
 20
816.299000
 40
31.496000
  0
CIRCLE
  8
PIN_TOP
 10
434.252000
 20
816.299000
 40
31.496000
  0
CIRCLE
  8
PIN_TOP
 10
534.252000
 20
816.299000
 40
31.496000
  0
CIRCLE
  8
PIN_TOP
 10
634.252000
 20
816.299000
 40
31.496000
  0
CIRCLE
  8
PIN_TOP
 10
734.252000
 20
816.299000
 40
31.496000
  0
CIRCLE
  8
PIN_TOP
 10
834.252000
 20
816.299000
 40
31.496000
  0
CIRCLE
  8
PIN_TOP
 10
934.252000
 20
816.299000
 40
31.496000
  0
CIRCLE
  8
PIN_TOP
 10
1034.252000
 20
816.299000
 40
31.496000
  0
CIRCLE
  8
PIN_TOP
 10
1134.252000
 20
816.299000
 40
31.496000
  0
CIRCLE
  8
PIN_TOP
 10
1234.252000
 20
816.299000
 40
31.496000
  0
CIRCLE
  8
PIN_TOP
 10
1334.252000
 20
816.299000
 40
31.496000
  0
CIRCLE
  8
PIN_TOP
 10
1434.252000
 20
816.299000
 40
31.496000
  0
CIRCLE
  8
PIN_TOP
 10
1534.252000
 20
816.299000
 40
31.496000
  0
CIRCLE
  8
PIN_TOP
 10
1634.252000
 20
816.299000
 40
31.496000
  0
CIRCLE
  8
PIN_TOP
 10
1734.252000
 20
816.299000
 40
31.496000
  0
POLYLINE
  8
PG_SILKSCREEN_TOP
 66
1
 70
0
 40
0.000000
 41
0.000000
 39
0.000000
  0
VERTEX
  8
PG_SILKSCREEN_TOP
 10
284.252000
 20
792.677000
 40
19.685000
 41
19.685000
 42
0.000000
  0
VERTEX
  8
PG_SILKSCREEN_TOP
 10
284.252000
 20
839.921000
 40
19.685000
 41
19.685000
 42
0.000000
  0
SEQEND
  0
POLYLINE
  8
PG_SILKSCREEN_TOP
 66
1
 70
0
 40
0.000000
 41
0.000000
 39
0.000000
  0
VERTEX
  8
PG_SILKSCREEN_TOP
 10
384.252000
 20
792.677000
 40
19.685000
 41
19.685000
 42
0.000000
  0
VERTEX
  8
PG_SILKSCREEN_TOP
 10
384.252000
 20
839.921000
 40
19.685000
 41
19.685000
 42
0.000000
  0
SEQEND
  0
POLYLINE
  8
PG_SILKSCREEN_TOP
 66
1
 70
0
 40
0.000000
 41
0.000000
 39
0.000000
  0
VERTEX
  8
PG_SILKSCREEN_TOP
 10
484.252000
 20
792.677000
 40
19.685000
 41
19.685000
 42
0.000000
  0
VERTEX
  8
PG_SILKSCREEN_TOP
 10
484.252000
 20
839.921000
 40
19.685000
 41
19.685000
 42
0.000000
  0
SEQEND
  0
POLYLINE
  8
PG_SILKSCREEN_TOP
 66
1
 70
0
 40
0.000000
 41
0.000000
 39
0.000000
  0
VERTEX
  8
PG_SILKSCREEN_TOP
 10
584.252000
 20
792.677000
 40
19.685000
 41
19.685000
 42
0.000000
  0
VERTEX
  8
PG_SILKSCREEN_TOP
 10
584.252000
 20
839.921000
 40
19.685000
 41
19.685000
 42
0.000000
  0
SEQEND
  0
POLYLINE
  8
PG_SILKSCREEN_TOP
 66
1
 70
0
 40
0.000000
 41
0.000000
 39
0.000000
  0
VERTEX
  8
PG_SILKSCREEN_TOP
 10
684.252000
 20
792.677000
 40
19.685000
 41
19.685000
 42
0.000000
  0
VERTEX
  8
PG_SILKSCREEN_TOP
 10
684.252000
 20
839.921000
 40
19.685000
 41
19.685000
 42
0.000000
  0
SEQEND
  0
POLYLINE
  8
PG_SILKSCREEN_TOP
 66
1
 70
0
 40
0.000000
 41
0.000000
 39
0.000000
  0
VERTEX
  8
PG_SILKSCREEN_TOP
 10
784.252000
 20
792.677000
 40
19.685000
 41
19.685000
 42
0.000000
  0
VERTEX
  8
PG_SILKSCREEN_TOP
 10
784.252000
 20
839.921000
 40
19.685000
 41
19.685000
 42
0.000000
  0
SEQEND
  0
POLYLINE
  8
PG_SILKSCREEN_TOP
 66
1
 70
0
 40
0.000000
 41
0.000000
 39
0.000000
  0
VERTEX
  8
PG_SILKSCREEN_TOP
 10
884.252000
 20
792.677000
 40
19.685000
 41
19.685000
 42
0.000000
  0
VERTEX
  8
PG_SILKSCREEN_TOP
 10
884.252000
 20
839.921000
 40
19.685000
 41
19.685000
 42
0.000000
  0
SEQEND
  0
POLYLINE
  8
PG_SILKSCREEN_TOP
 66
1
 70
0
 40
0.000000
 41
0.000000
 39
0.000000
  0
VERTEX
  8
PG_SILKSCREEN_TOP
 10
984.252000
 20
792.677000
 40
19.685000
 41
19.685000
 42
0.000000
  0
VERTEX
  8
PG_SILKSCREEN_TOP
 10
984.252000
 20
839.921000
 40
19.685000
 41
19.685000
 42
0.000000
  0
SEQEND
  0
POLYLINE
  8
PG_SILKSCREEN_TOP
 66
1
 70
0
 40
0.000000
 41
0.000000
 39
0.000000
  0
VERTEX
  8
PG_SILKSCREEN_TOP
 10
1084.252000
 20
792.677000
 40
19.685000
 41
19.685000
 42
0.000000
  0
VERTEX
  8
PG_SILKSCREEN_TOP
 10
1084.252000
 20
839.921000
 40
19.685000
 41
19.685000
 42
0.000000
  0
SEQEND
  0
POLYLINE
  8
PG_SILKSCREEN_TOP
 66
1
 70
0
 40
0.000000
 41
0.000000
 39
0.000000
  0
VERTEX
  8
PG_SILKSCREEN_TOP
 10
1184.252000
 20
792.677000
 40
19.685000
 41
19.685000
 42
0.000000
  0
VERTEX
  8
PG_SILKSCREEN_TOP
 10
1184.252000
 20
839.921000
 40
19.685000
 41
19.685000
 42
0.000000
  0
SEQEND
  0
POLYLINE
  8
PG_SILKSCREEN_TOP
 66
1
 70
0
 40
0.000000
 41
0.000000
 39
0.000000
  0
VERTEX
  8
PG_SILKSCREEN_TOP
 10
1284.252000
 20
792.677000
 40
19.685000
 41
19.685000
 42
0.000000
  0
VERTEX
  8
PG_SILKSCREEN_TOP
 10
1284.252000
 20
839.921000
 40
19.685000
 41
19.685000
 42
0.000000
  0
SEQEND
  0
POLYLINE
  8
PG_SILKSCREEN_TOP
 66
1
 70
0
 40
0.000000
 41
0.000000
 39
0.000000
  0
VERTEX
  8
PG_SILKSCREEN_TOP
 10
1384.252000
 20
792.677000
 40
19.685000
 41
19.685000
 42
0.000000
  0
VERTEX
  8
PG_SILKSCREEN_TOP
 10
1384.252000
 20
839.921000
 40
19.685000
 41
19.685000
 42
0.000000
  0
SEQEND
  0
POLYLINE
  8
PG_SILKSCREEN_TOP
 66
1
 70
0
 40
0.000000
 41
0.000000
 39
0.000000
  0
VERTEX
  8
PG_SILKSCREEN_TOP
 10
1484.252000
 20
792.677000
 40
19.685000
 41
19.685000
 42
0.000000
  0
VERTEX
  8
PG_SILKSCREEN_TOP
 10
1484.252000
 20
839.921000
 40
19.685000
 41
19.685000
 42
0.000000
  0
SEQEND
  0
POLYLINE
  8
PG_SILKSCREEN_TOP
 66
1
 70
0
 40
0.000000
 41
0.000000
 39
0.000000
  0
VERTEX
  8
PG_SILKSCREEN_TOP
 10
1584.252000
 20
792.677000
 40
19.685000
 41
19.685000
 42
0.000000
  0
VERTEX
  8
PG_SILKSCREEN_TOP
 10
1584.252000
 20
839.921000
 40
19.685000
 41
19.685000
 42
0.000000
  0
SEQEND
  0
POLYLINE
  8
PG_SILKSCREEN_TOP
 66
1
 70
0
 40
0.000000
 41
0.000000
 39
0.000000
  0
VERTEX
  8
PG_SILKSCREEN_TOP
 10
1684.252000
 20
792.677000
 40
19.685000
 41
19.685000
 42
0.000000
  0
VERTEX
  8
PG_SILKSCREEN_TOP
 10
1684.252000
 20
839.921000
 40
19.685000
 41
19.685000
 42
0.000000
  0
SEQEND
  0
POLYLINE
  8
PIN_TOP
 66
1
 70
1
 40
0.000000
 41
0.000000
 39
0.000000
  0
VERTEX
  8
PIN_TOP
 10
202.756000
 20
120.709000
 40
0.000000
 41
0.000000
 42
0.000000
  0
VERTEX
  8
PIN_TOP
 10
202.756000
 20
57.717000
 40
0.000000
 41
0.000000
 42
0.000000
  0
VERTEX
  8
PIN_TOP
 10
265.748000
 20
57.717000
 40
0.000000
 41
0.000000
 42
0.000000
  0
VERTEX
  8
PIN_TOP
 10
265.748000
 20
120.709000
 40
0.000000
 41
0.000000
 42
0.000000
  0
SEQEND
  0
CIRCLE
  8
PIN_TOP
 10
334.252000
 20
89.213000
 40
31.496000
  0
CIRCLE
  8
PIN_TOP
 10
434.252000
 20
89.213000
 40
31.496000
  0
CIRCLE
  8
PIN_TOP
 10
534.252000
 20
89.213000
 40
31.496000
  0
CIRCLE
  8
PIN_TOP
 10
634.252000
 20
89.213000
 40
31.496000
  0
CIRCLE
  8
PIN_TOP
 10
734.252000
 20
89.213000
 40
31.496000
  0
CIRCLE
  8
PIN_TOP
 10
834.252000
 20
89.213000
 40
31.496000
  0
CIRCLE
  8
PIN_TOP
 10
934.252000
 20
89.213000
 40
31.496000
  0
CIRCLE
  8
PIN_TOP
 10
1034.252000
 20
89.213000
 40
31.496000
  0
CIRCLE
  8
PIN_TOP
 10
1134.252000
 20
89.213000
 40
31.496000
  0
CIRCLE
  8
PIN_TOP
 10
1234.252000
 20
89.213000
 40
31.496000
  0
CIRCLE
  8
PIN_TOP
 10
1334.252000
 20
89.213000
 40
31.496000
  0
CIRCLE
  8
PIN_TOP
 10
1434.252000
 20
89.213000
 40
31.496000
  0
CIRCLE
  8
PIN_TOP
 10
1534.252000
 20
89.213000
 40
31.496000
  0
CIRCLE
  8
PIN_TOP
 10
1634.252000
 20
89.213000
 40
31.496000
  0
CIRCLE
  8
PIN_TOP
 10
1734.252000
 20
89.213000
 40
31.496000
  0
POLYLINE
  8
PG_SILKSCREEN_TOP
 66
1
 70
0
 40
0.000000
 41
0.000000
 39
0.000000
  0
VERTEX
  8
PG_SILKSCREEN_TOP
 10
284.252000
 20
65.591000
 40
19.685000
 41
19.685000
 42
0.000000
  0
VERTEX
  8
PG_SILKSCREEN_TOP
 10
284.252000
 20
112.835000
 40
19.685000
 41
19.685000
 42
0.000000
  0
SEQEND
  0
POLYLINE
  8
PG_SILKSCREEN_TOP
 66
1
 70
0
 40
0.000000
 41
0.000000
 39
0.000000
  0
VERTEX
  8
PG_SILKSCREEN_TOP
 10
384.252000
 20
65.591000
 40
19.685000
 41
19.685000
 42
0.000000
  0
VERTEX
  8
PG_SILKSCREEN_TOP
 10
384.252000
 20
112.835000
 40
19.685000
 41
19.685000
 42
0.000000
  0
SEQEND
  0
POLYLINE
  8
PG_SILKSCREEN_TOP
 66
1
 70
0
 40
0.000000
 41
0.000000
 39
0.000000
  0
VERTEX
  8
PG_SILKSCREEN_TOP
 10
484.252000
 20
65.591000
 40
19.685000
 41
19.685000
 42
0.000000
  0
VERTEX
  8
PG_SILKSCREEN_TOP
 10
484.252000
 20
112.835000
 40
19.685000
 41
19.685000
 42
0.000000
  0
SEQEND
  0
POLYLINE
  8
PG_SILKSCREEN_TOP
 66
1
 70
0
 40
0.000000
 41
0.000000
 39
0.000000
  0
VERTEX
  8
PG_SILKSCREEN_TOP
 10
584.252000
 20
65.591000
 40
19.685000
 41
19.685000
 42
0.000000
  0
VERTEX
  8
PG_SILKSCREEN_TOP
 10
584.252000
 20
112.835000
 40
19.685000
 41
19.685000
 42
0.000000
  0
SEQEND
  0
POLYLINE
  8
PG_SILKSCREEN_TOP
 66
1
 70
0
 40
0.000000
 41
0.000000
 39
0.000000
  0
VERTEX
  8
PG_SILKSCREEN_TOP
 10
684.252000
 20
65.591000
 40
19.685000
 41
19.685000
 42
0.000000
  0
VERTEX
  8
PG_SILKSCREEN_TOP
 10
684.252000
 20
112.835000
 40
19.685000
 41
19.685000
 42
0.000000
  0
SEQEND
  0
POLYLINE
  8
PG_SILKSCREEN_TOP
 66
1
 70
0
 40
0.000000
 41
0.000000
 39
0.000000
  0
VERTEX
  8
PG_SILKSCREEN_TOP
 10
784.252000
 20
65.591000
 40
19.685000
 41
19.685000
 42
0.000000
  0
VERTEX
  8
PG_SILKSCREEN_TOP
 10
784.252000
 20
112.835000
 40
19.685000
 41
19.685000
 42
0.000000
  0
SEQEND
  0
POLYLINE
  8
PG_SILKSCREEN_TOP
 66
1
 70
0
 40
0.000000
 41
0.000000
 39
0.000000
  0
VERTEX
  8
PG_SILKSCREEN_TOP
 10
884.252000
 20
65.591000
 40
19.685000
 41
19.685000
 42
0.000000
  0
VERTEX
  8
PG_SILKSCREEN_TOP
 10
884.252000
 20
112.835000
 40
19.685000
 41
19.685000
 42
0.000000
  0
SEQEND
  0
POLYLINE
  8
PG_SILKSCREEN_TOP
 66
1
 70
0
 40
0.000000
 41
0.000000
 39
0.000000
  0
VERTEX
  8
PG_SILKSCREEN_TOP
 10
984.252000
 20
65.591000
 40
19.685000
 41
19.685000
 42
0.000000
  0
VERTEX
  8
PG_SILKSCREEN_TOP
 10
984.252000
 20
112.835000
 40
19.685000
 41
19.685000
 42
0.000000
  0
SEQEND
  0
POLYLINE
  8
PG_SILKSCREEN_TOP
 66
1
 70
0
 40
0.000000
 41
0.000000
 39
0.000000
  0
VERTEX
  8
PG_SILKSCREEN_TOP
 10
1084.252000
 20
65.591000
 40
19.685000
 41
19.685000
 42
0.000000
  0
VERTEX
  8
PG_SILKSCREEN_TOP
 10
1084.252000
 20
112.835000
 40
19.685000
 41
19.685000
 42
0.000000
  0
SEQEND
  0
POLYLINE
  8
PG_SILKSCREEN_TOP
 66
1
 70
0
 40
0.000000
 41
0.000000
 39
0.000000
  0
VERTEX
  8
PG_SILKSCREEN_TOP
 10
1184.252000
 20
65.591000
 40
19.685000
 41
19.685000
 42
0.000000
  0
VERTEX
  8
PG_SILKSCREEN_TOP
 10
1184.252000
 20
112.835000
 40
19.685000
 41
19.685000
 42
0.000000
  0
SEQEND
  0
POLYLINE
  8
PG_SILKSCREEN_TOP
 66
1
 70
0
 40
0.000000
 41
0.000000
 39
0.000000
  0
VERTEX
  8
PG_SILKSCREEN_TOP
 10
1284.252000
 20
65.591000
 40
19.685000
 41
19.685000
 42
0.000000
  0
VERTEX
  8
PG_SILKSCREEN_TOP
 10
1284.252000
 20
112.835000
 40
19.685000
 41
19.685000
 42
0.000000
  0
SEQEND
  0
POLYLINE
  8
PG_SILKSCREEN_TOP
 66
1
 70
0
 40
0.000000
 41
0.000000
 39
0.000000
  0
VERTEX
  8
PG_SILKSCREEN_TOP
 10
1384.252000
 20
65.591000
 40
19.685000
 41
19.685000
 42
0.000000
  0
VERTEX
  8
PG_SILKSCREEN_TOP
 10
1384.252000
 20
112.835000
 40
19.685000
 41
19.685000
 42
0.000000
  0
SEQEND
  0
POLYLINE
  8
PG_SILKSCREEN_TOP
 66
1
 70
0
 40
0.000000
 41
0.000000
 39
0.000000
  0
VERTEX
  8
PG_SILKSCREEN_TOP
 10
1484.252000
 20
65.591000
 40
19.685000
 41
19.685000
 42
0.000000
  0
VERTEX
  8
PG_SILKSCREEN_TOP
 10
1484.252000
 20
112.835000
 40
19.685000
 41
19.685000
 42
0.000000
  0
SEQEND
  0
POLYLINE
  8
PG_SILKSCREEN_TOP
 66
1
 70
0
 40
0.000000
 41
0.000000
 39
0.000000
  0
VERTEX
  8
PG_SILKSCREEN_TOP
 10
1584.252000
 20
65.591000
 40
19.685000
 41
19.685000
 42
0.000000
  0
VERTEX
  8
PG_SILKSCREEN_TOP
 10
1584.252000
 20
112.835000
 40
19.685000
 41
19.685000
 42
0.000000
  0
SEQEND
  0
POLYLINE
  8
PG_SILKSCREEN_TOP
 66
1
 70
0
 40
0.000000
 41
0.000000
 39
0.000000
  0
VERTEX
  8
PG_SILKSCREEN_TOP
 10
1684.252000
 20
65.591000
 40
19.685000
 41
19.685000
 42
0.000000
  0
VERTEX
  8
PG_SILKSCREEN_TOP
 10
1684.252000
 20
112.835000
 40
19.685000
 41
19.685000
 42
0.000000
  0
SEQEND
  0
POLYLINE
  8
PIN_TOP
 66
1
 70
1
 40
0.000000
 41
0.000000
 39
0.000000
  0
VERTEX
  8
PIN_TOP
 10
1093.701000
 20
352.362500
 40
0.000000
 41
0.000000
 42
0.000000
  0
VERTEX
  8
PIN_TOP
 10
1140.945000
 20
352.362500
 40
0.000000
 41
0.000000
 42
0.000000
  0
VERTEX
  8
PIN_TOP
 10
1140.945000
 20
332.677500
 40
0.000000
 41
0.000000
 42
0.000000
  0
VERTEX
  8
PIN_TOP
 10
1093.701000
 20
332.677500
 40
0.000000
 41
0.000000
 42
0.000000
  0
SEQEND
  0
POLYLINE
  8
PIN_TOP
 66
1
 70
1
 40
0.000000
 41
0.000000
 39
0.000000
  0
VERTEX
  8
PIN_TOP
 10
1093.701000
 20
383.858500
 40
0.000000
 41
0.000000
 42
0.000000
  0
VERTEX
  8
PIN_TOP
 10
1140.945000
 20
383.858500
 40
0.000000
 41
0.000000
 42
0.000000
  0
VERTEX
  8
PIN_TOP
 10
1140.945000
 20
364.173500
 40
0.000000
 41
0.000000
 42
0.000000
  0
VERTEX
  8
PIN_TOP
 10
1093.701000
 20
364.173500
 40
0.000000
 41
0.000000
 42
0.000000
  0
SEQEND
  0
POLYLINE
  8
PIN_TOP
 66
1
 70
1
 40
0.000000
 41
0.000000
 39
0.000000
  0
VERTEX
  8
PIN_TOP
 10
1093.701000
 20
415.354500
 40
0.000000
 41
0.000000
 42
0.000000
  0
VERTEX
  8
PIN_TOP
 10
1140.945000
 20
415.354500
 40
0.000000
 41
0.000000
 42
0.000000
  0
VERTEX
  8
PIN_TOP
 10
1140.945000
 20
395.669500
 40
0.000000
 41
0.000000
 42
0.000000
  0
VERTEX
  8
PIN_TOP
 10
1093.701000
 20
395.669500
 40
0.000000
 41
0.000000
 42
0.000000
  0
SEQEND
  0
POLYLINE
  8
PIN_TOP
 66
1
 70
1
 40
0.000000
 41
0.000000
 39
0.000000
  0
VERTEX
  8
PIN_TOP
 10
1093.701000
 20
446.850500
 40
0.000000
 41
0.000000
 42
0.000000
  0
VERTEX
  8
PIN_TOP
 10
1140.945000
 20
446.850500
 40
0.000000
 41
0.000000
 42
0.000000
  0
VERTEX
  8
PIN_TOP
 10
1140.945000
 20
427.165500
 40
0.000000
 41
0.000000
 42
0.000000
  0
VERTEX
  8
PIN_TOP
 10
1093.701000
 20
427.165500
 40
0.000000
 41
0.000000
 42
0.000000
  0
SEQEND
  0
POLYLINE
  8
PIN_TOP
 66
1
 70
1
 40
0.000000
 41
0.000000
 39
0.000000
  0
VERTEX
  8
PIN_TOP
 10
1093.701000
 20
478.346500
 40
0.000000
 41
0.000000
 42
0.000000
  0
VERTEX
  8
PIN_TOP
 10
1140.945000
 20
478.346500
 40
0.000000
 41
0.000000
 42
0.000000
  0
VERTEX
  8
PIN_TOP
 10
1140.945000
 20
458.661500
 40
0.000000
 41
0.000000
 42
0.000000
  0
VERTEX
  8
PIN_TOP
 10
1093.701000
 20
458.661500
 40
0.000000
 41
0.000000
 42
0.000000
  0
SEQEND
  0
POLYLINE
  8
PIN_TOP
 66
1
 70
1
 40
0.000000
 41
0.000000
 39
0.000000
  0
VERTEX
  8
PIN_TOP
 10
1093.701000
 20
509.842500
 40
0.000000
 41
0.000000
 42
0.000000
  0
VERTEX
  8
PIN_TOP
 10
1140.945000
 20
509.842500
 40
0.000000
 41
0.000000
 42
0.000000
  0
VERTEX
  8
PIN_TOP
 10
1140.945000
 20
490.157500
 40
0.000000
 41
0.000000
 42
0.000000
  0
VERTEX
  8
PIN_TOP
 10
1093.701000
 20
490.157500
 40
0.000000
 41
0.000000
 42
0.000000
  0
SEQEND
  0
POLYLINE
  8
PIN_TOP
 66
1
 70
1
 40
0.000000
 41
0.000000
 39
0.000000
  0
VERTEX
  8
PIN_TOP
 10
1093.701000
 20
541.338500
 40
0.000000
 41
0.000000
 42
0.000000
  0
VERTEX
  8
PIN_TOP
 10
1140.945000
 20
541.338500
 40
0.000000
 41
0.000000
 42
0.000000
  0
VERTEX
  8
PIN_TOP
 10
1140.945000
 20
521.653500
 40
0.000000
 41
0.000000
 42
0.000000
  0
VERTEX
  8
PIN_TOP
 10
1093.701000
 20
521.653500
 40
0.000000
 41
0.000000
 42
0.000000
  0
SEQEND
  0
POLYLINE
  8
PIN_TOP
 66
1
 70
1
 40
0.000000
 41
0.000000
 39
0.000000
  0
VERTEX
  8
PIN_TOP
 10
1093.701000
 20
572.834500
 40
0.000000
 41
0.000000
 42
0.000000
  0
VERTEX
  8
PIN_TOP
 10
1140.945000
 20
572.834500
 40
0.000000
 41
0.000000
 42
0.000000
  0
VERTEX
  8
PIN_TOP
 10
1140.945000
 20
553.149500
 40
0.000000
 41
0.000000
 42
0.000000
  0
VERTEX
  8
PIN_TOP
 10
1093.701000
 20
553.149500
 40
0.000000
 41
0.000000
 42
0.000000
  0
SEQEND
  0
POLYLINE
  8
PIN_TOP
 66
1
 70
1
 40
0.000000
 41
0.000000
 39
0.000000
  0
VERTEX
  8
PIN_TOP
 10
1050.393000
 20
596.457000
 40
0.000000
 41
0.000000
 42
0.000000
  0
VERTEX
  8
PIN_TOP
 10
1050.393000
 20
643.701000
 40
0.000000
 41
0.000000
 42
0.000000
  0
VERTEX
  8
PIN_TOP
 10
1070.078000
 20
643.701000
 40
0.000000
 41
0.000000
 42
0.000000
  0
VERTEX
  8
PIN_TOP
 10
1070.078000
 20
596.457000
 40
0.000000
 41
0.000000
 42
0.000000
  0
SEQEND
  0
POLYLINE
  8
PIN_TOP
 66
1
 70
1
 40
0.000000
 41
0.000000
 39
0.000000
  0
VERTEX
  8
PIN_TOP
 10
1038.582500
 20
643.701000
 40
0.000000
 41
0.000000
 42
0.000000
  0
VERTEX
  8
PIN_TOP
 10
1038.582500
 20
596.457000
 40
0.000000
 41
0.000000
 42
0.000000
  0
VERTEX
  8
PIN_TOP
 10
1018.897500
 20
596.457000
 40
0.000000
 41
0.000000
 42
0.000000
  0
VERTEX
  8
PIN_TOP
 10
1018.897500
 20
643.701000
 40
0.000000
 41
0.000000
 42
0.000000
  0
SEQEND
  0
POLYLINE
  8
PIN_TOP
 66
1
 70
1
 40
0.000000
 41
0.000000
 39
0.000000
  0
VERTEX
  8
PIN_TOP
 10
1007.086500
 20
643.701000
 40
0.000000
 41
0.000000
 42
0.000000
  0
VERTEX
  8
PIN_TOP
 10
1007.086500
 20
596.457000
 40
0.000000
 41
0.000000
 42
0.000000
  0
VERTEX
  8
PIN_TOP
 10
987.401500
 20
596.457000
 40
0.000000
 41
0.000000
 42
0.000000
  0
VERTEX
  8
PIN_TOP
 10
987.401500
 20
643.701000
 40
0.000000
 41
0.000000
 42
0.000000
  0
SEQEND
  0
POLYLINE
  8
PIN_TOP
 66
1
 70
1
 40
0.000000
 41
0.000000
 39
0.000000
  0
VERTEX
  8
PIN_TOP
 10
975.590500
 20
643.701000
 40
0.000000
 41
0.000000
 42
0.000000
  0
VERTEX
  8
PIN_TOP
 10
975.590500
 20
596.457000
 40
0.000000
 41
0.000000
 42
0.000000
  0
VERTEX
  8
PIN_TOP
 10
955.905500
 20
596.457000
 40
0.000000
 41
0.000000
 42
0.000000
  0
VERTEX
  8
PIN_TOP
 10
955.905500
 20
643.701000
 40
0.000000
 41
0.000000
 42
0.000000
  0
SEQEND
  0
POLYLINE
  8
PIN_TOP
 66
1
 70
1
 40
0.000000
 41
0.000000
 39
0.000000
  0
VERTEX
  8
PIN_TOP
 10
944.094500
 20
643.701000
 40
0.000000
 41
0.000000
 42
0.000000
  0
VERTEX
  8
PIN_TOP
 10
944.094500
 20
596.457000
 40
0.000000
 41
0.000000
 42
0.000000
  0
VERTEX
  8
PIN_TOP
 10
924.409500
 20
596.457000
 40
0.000000
 41
0.000000
 42
0.000000
  0
VERTEX
  8
PIN_TOP
 10
924.409500
 20
643.701000
 40
0.000000
 41
0.000000
 42
0.000000
  0
SEQEND
  0
POLYLINE
  8
PIN_TOP
 66
1
 70
1
 40
0.000000
 41
0.000000
 39
0.000000
  0
VERTEX
  8
PIN_TOP
 10
912.598500
 20
643.701000
 40
0.000000
 41
0.000000
 42
0.000000
  0
VERTEX
  8
PIN_TOP
 10
912.598500
 20
596.457000
 40
0.000000
 41
0.000000
 42
0.000000
  0
VERTEX
  8
PIN_TOP
 10
892.913500
 20
596.457000
 40
0.000000
 41
0.000000
 42
0.000000
  0
VERTEX
  8
PIN_TOP
 10
892.913500
 20
643.701000
 40
0.000000
 41
0.000000
 42
0.000000
  0
SEQEND
  0
POLYLINE
  8
PIN_TOP
 66
1
 70
1
 40
0.000000
 41
0.000000
 39
0.000000
  0
VERTEX
  8
PIN_TOP
 10
881.102500
 20
643.701000
 40
0.000000
 41
0.000000
 42
0.000000
  0
VERTEX
  8
PIN_TOP
 10
881.102500
 20
596.457000
 40
0.000000
 41
0.000000
 42
0.000000
  0
VERTEX
  8
PIN_TOP
 10
861.417500
 20
596.457000
 40
0.000000
 41
0.000000
 42
0.000000
  0
VERTEX
  8
PIN_TOP
 10
861.417500
 20
643.701000
 40
0.000000
 41
0.000000
 42
0.000000
  0
SEQEND
  0
POLYLINE
  8
PIN_TOP
 66
1
 70
1
 40
0.000000
 41
0.000000
 39
0.000000
  0
VERTEX
  8
PIN_TOP
 10
849.606500
 20
643.701000
 40
0.000000
 41
0.000000
 42
0.000000
  0
VERTEX
  8
PIN_TOP
 10
849.606500
 20
596.457000
 40
0.000000
 41
0.000000
 42
0.000000
  0
VERTEX
  8
PIN_TOP
 10
829.921500
 20
596.457000
 40
0.000000
 41
0.000000
 42
0.000000
  0
VERTEX
  8
PIN_TOP
 10
829.921500
 20
643.701000
 40
0.000000
 41
0.000000
 42
0.000000
  0
SEQEND
  0
POLYLINE
  8
PIN_TOP
 66
1
 70
1
 40
0.000000
 41
0.000000
 39
0.000000
  0
VERTEX
  8
PIN_TOP
 10
806.299000
 20
553.149500
 40
0.000000
 41
0.000000
 42
0.000000
  0
VERTEX
  8
PIN_TOP
 10
759.055000
 20
553.149500
 40
0.000000
 41
0.000000
 42
0.000000
  0
VERTEX
  8
PIN_TOP
 10
759.055000
 20
572.834500
 40
0.000000
 41
0.000000
 42
0.000000
  0
VERTEX
  8
PIN_TOP
 10
806.299000
 20
572.834500
 40
0.000000
 41
0.000000
 42
0.000000
  0
SEQEND
  0
POLYLINE
  8
PIN_TOP
 66
1
 70
1
 40
0.000000
 41
0.000000
 39
0.000000
  0
VERTEX
  8
PIN_TOP
 10
759.055000
 20
541.338500
 40
0.000000
 41
0.000000
 42
0.000000
  0
VERTEX
  8
PIN_TOP
 10
806.299000
 20
541.338500
 40
0.000000
 41
0.000000
 42
0.000000
  0
VERTEX
  8
PIN_TOP
 10
806.299000
 20
521.653500
 40
0.000000
 41
0.000000
 42
0.000000
  0
VERTEX
  8
PIN_TOP
 10
759.055000
 20
521.653500
 40
0.000000
 41
0.000000
 42
0.000000
  0
SEQEND
  0
POLYLINE
  8
PIN_TOP
 66
1
 70
1
 40
0.000000
 41
0.000000
 39
0.000000
  0
VERTEX
  8
PIN_TOP
 10
759.055000
 20
509.842500
 40
0.000000
 41
0.000000
 42
0.000000
  0
VERTEX
  8
PIN_TOP
 10
806.299000
 20
509.842500
 40
0.000000
 41
0.000000
 42
0.000000
  0
VERTEX
  8
PIN_TOP
 10
806.299000
 20
490.157500
 40
0.000000
 41
0.000000
 42
0.000000
  0
VERTEX
  8
PIN_TOP
 10
759.055000
 20
490.157500
 40
0.000000
 41
0.000000
 42
0.000000
  0
SEQEND
  0
POLYLINE
  8
PIN_TOP
 66
1
 70
1
 40
0.000000
 41
0.000000
 39
0.000000
  0
VERTEX
  8
PIN_TOP
 10
759.055000
 20
478.346500
 40
0.000000
 41
0.000000
 42
0.000000
  0
VERTEX
  8
PIN_TOP
 10
806.299000
 20
478.346500
 40
0.000000
 41
0.000000
 42
0.000000
  0
VERTEX
  8
PIN_TOP
 10
806.299000
 20
458.661500
 40
0.000000
 41
0.000000
 42
0.000000
  0
VERTEX
  8
PIN_TOP
 10
759.055000
 20
458.661500
 40
0.000000
 41
0.000000
 42
0.000000
  0
SEQEND
  0
POLYLINE
  8
PIN_TOP
 66
1
 70
1
 40
0.000000
 41
0.000000
 39
0.000000
  0
VERTEX
  8
PIN_TOP
 10
759.055000
 20
446.850500
 40
0.000000
 41
0.000000
 42
0.000000
  0
VERTEX
  8
PIN_TOP
 10
806.299000
 20
446.850500
 40
0.000000
 41
0.000000
 42
0.000000
  0
VERTEX
  8
PIN_TOP
 10
806.299000
 20
427.165500
 40
0.000000
 41
0.000000
 42
0.000000
  0
VERTEX
  8
PIN_TOP
 10
759.055000
 20
427.165500
 40
0.000000
 41
0.000000
 42
0.000000
  0
SEQEND
  0
POLYLINE
  8
PIN_TOP
 66
1
 70
1
 40
0.000000
 41
0.000000
 39
0.000000
  0
VERTEX
  8
PIN_TOP
 10
759.055000
 20
415.354500
 40
0.000000
 41
0.000000
 42
0.000000
  0
VERTEX
  8
PIN_TOP
 10
806.299000
 20
415.354500
 40
0.000000
 41
0.000000
 42
0.000000
  0
VERTEX
  8
PIN_TOP
 10
806.299000
 20
395.669500
 40
0.000000
 41
0.000000
 42
0.000000
  0
VERTEX
  8
PIN_TOP
 10
759.055000
 20
395.669500
 40
0.000000
 41
0.000000
 42
0.000000
  0
SEQEND
  0
POLYLINE
  8
PIN_TOP
 66
1
 70
1
 40
0.000000
 41
0.000000
 39
0.000000
  0
VERTEX
  8
PIN_TOP
 10
759.055000
 20
383.858500
 40
0.000000
 41
0.000000
 42
0.000000
  0
VERTEX
  8
PIN_TOP
 10
806.299000
 20
383.858500
 40
0.000000
 41
0.000000
 42
0.000000
  0
VERTEX
  8
PIN_TOP
 10
806.299000
 20
364.173500
 40
0.000000
 41
0.000000
 42
0.000000
  0
VERTEX
  8
PIN_TOP
 10
759.055000
 20
364.173500
 40
0.000000
 41
0.000000
 42
0.000000
  0
SEQEND
  0
POLYLINE
  8
PIN_TOP
 66
1
 70
1
 40
0.000000
 41
0.000000
 39
0.000000
  0
VERTEX
  8
PIN_TOP
 10
759.055000
 20
352.362500
 40
0.000000
 41
0.000000
 42
0.000000
  0
VERTEX
  8
PIN_TOP
 10
806.299000
 20
352.362500
 40
0.000000
 41
0.000000
 42
0.000000
  0
VERTEX
  8
PIN_TOP
 10
806.299000
 20
332.677500
 40
0.000000
 41
0.000000
 42
0.000000
  0
VERTEX
  8
PIN_TOP
 10
759.055000
 20
332.677500
 40
0.000000
 41
0.000000
 42
0.000000
  0
SEQEND
  0
POLYLINE
  8
PIN_TOP
 66
1
 70
1
 40
0.000000
 41
0.000000
 39
0.000000
  0
VERTEX
  8
PIN_TOP
 10
849.606500
 20
309.055000
 40
0.000000
 41
0.000000
 42
0.000000
  0
VERTEX
  8
PIN_TOP
 10
849.606500
 20
261.811000
 40
0.000000
 41
0.000000
 42
0.000000
  0
VERTEX
  8
PIN_TOP
 10
829.921500
 20
261.811000
 40
0.000000
 41
0.000000
 42
0.000000
  0
VERTEX
  8
PIN_TOP
 10
829.921500
 20
309.055000
 40
0.000000
 41
0.000000
 42
0.000000
  0
SEQEND
  0
POLYLINE
  8
PIN_TOP
 66
1
 70
1
 40
0.000000
 41
0.000000
 39
0.000000
  0
VERTEX
  8
PIN_TOP
 10
881.102500
 20
309.055000
 40
0.000000
 41
0.000000
 42
0.000000
  0
VERTEX
  8
PIN_TOP
 10
881.102500
 20
261.811000
 40
0.000000
 41
0.000000
 42
0.000000
  0
VERTEX
  8
PIN_TOP
 10
861.417500
 20
261.811000
 40
0.000000
 41
0.000000
 42
0.000000
  0
VERTEX
  8
PIN_TOP
 10
861.417500
 20
309.055000
 40
0.000000
 41
0.000000
 42
0.000000
  0
SEQEND
  0
POLYLINE
  8
PIN_TOP
 66
1
 70
1
 40
0.000000
 41
0.000000
 39
0.000000
  0
VERTEX
  8
PIN_TOP
 10
912.598500
 20
309.055000
 40
0.000000
 41
0.000000
 42
0.000000
  0
VERTEX
  8
PIN_TOP
 10
912.598500
 20
261.811000
 40
0.000000
 41
0.000000
 42
0.000000
  0
VERTEX
  8
PIN_TOP
 10
892.913500
 20
261.811000
 40
0.000000
 41
0.000000
 42
0.000000
  0
VERTEX
  8
PIN_TOP
 10
892.913500
 20
309.055000
 40
0.000000
 41
0.000000
 42
0.000000
  0
SEQEND
  0
POLYLINE
  8
PIN_TOP
 66
1
 70
1
 40
0.000000
 41
0.000000
 39
0.000000
  0
VERTEX
  8
PIN_TOP
 10
944.094500
 20
309.055000
 40
0.000000
 41
0.000000
 42
0.000000
  0
VERTEX
  8
PIN_TOP
 10
944.094500
 20
261.811000
 40
0.000000
 41
0.000000
 42
0.000000
  0
VERTEX
  8
PIN_TOP
 10
924.409500
 20
261.811000
 40
0.000000
 41
0.000000
 42
0.000000
  0
VERTEX
  8
PIN_TOP
 10
924.409500
 20
309.055000
 40
0.000000
 41
0.000000
 42
0.000000
  0
SEQEND
  0
POLYLINE
  8
PIN_TOP
 66
1
 70
1
 40
0.000000
 41
0.000000
 39
0.000000
  0
VERTEX
  8
PIN_TOP
 10
975.590500
 20
309.055000
 40
0.000000
 41
0.000000
 42
0.000000
  0
VERTEX
  8
PIN_TOP
 10
975.590500
 20
261.811000
 40
0.000000
 41
0.000000
 42
0.000000
  0
VERTEX
  8
PIN_TOP
 10
955.905500
 20
261.811000
 40
0.000000
 41
0.000000
 42
0.000000
  0
VERTEX
  8
PIN_TOP
 10
955.905500
 20
309.055000
 40
0.000000
 41
0.000000
 42
0.000000
  0
SEQEND
  0
POLYLINE
  8
PIN_TOP
 66
1
 70
1
 40
0.000000
 41
0.000000
 39
0.000000
  0
VERTEX
  8
PIN_TOP
 10
1007.086500
 20
309.055000
 40
0.000000
 41
0.000000
 42
0.000000
  0
VERTEX
  8
PIN_TOP
 10
1007.086500
 20
261.811000
 40
0.000000
 41
0.000000
 42
0.000000
  0
VERTEX
  8
PIN_TOP
 10
987.401500
 20
261.811000
 40
0.000000
 41
0.000000
 42
0.000000
  0
VERTEX
  8
PIN_TOP
 10
987.401500
 20
309.055000
 40
0.000000
 41
0.000000
 42
0.000000
  0
SEQEND
  0
POLYLINE
  8
PIN_TOP
 66
1
 70
1
 40
0.000000
 41
0.000000
 39
0.000000
  0
VERTEX
  8
PIN_TOP
 10
1038.582500
 20
309.055000
 40
0.000000
 41
0.000000
 42
0.000000
  0
VERTEX
  8
PIN_TOP
 10
1038.582500
 20
261.811000
 40
0.000000
 41
0.000000
 42
0.000000
  0
VERTEX
  8
PIN_TOP
 10
1018.897500
 20
261.811000
 40
0.000000
 41
0.000000
 42
0.000000
  0
VERTEX
  8
PIN_TOP
 10
1018.897500
 20
309.055000
 40
0.000000
 41
0.000000
 42
0.000000
  0
SEQEND
  0
POLYLINE
  8
PIN_TOP
 66
1
 70
1
 40
0.000000
 41
0.000000
 39
0.000000
  0
VERTEX
  8
PIN_TOP
 10
1070.078500
 20
309.055000
 40
0.000000
 41
0.000000
 42
0.000000
  0
VERTEX
  8
PIN_TOP
 10
1070.078500
 20
261.811000
 40
0.000000
 41
0.000000
 42
0.000000
  0
VERTEX
  8
PIN_TOP
 10
1050.393500
 20
261.811000
 40
0.000000
 41
0.000000
 42
0.000000
  0
VERTEX
  8
PIN_TOP
 10
1050.393500
 20
309.055000
 40
0.000000
 41
0.000000
 42
0.000000
  0
SEQEND
  0
POLYLINE
  8
PG_SILKSCREEN_TOP
 66
1
 70
0
 40
0.000000
 41
0.000000
 39
0.000000
  0
VERTEX
  8
PG_SILKSCREEN_TOP
 10
1087.795000
 20
590.551000
 40
5.906000
 41
5.906000
 42
0.000000
  0
VERTEX
  8
PG_SILKSCREEN_TOP
 10
812.205000
 20
590.551000
 40
5.906000
 41
5.906000
 42
0.000000
  0
VERTEX
  8
PG_SILKSCREEN_TOP
 10
812.205000
 20
314.960000
 40
5.906000
 41
5.906000
 42
0.000000
  0
VERTEX
  8
PG_SILKSCREEN_TOP
 10
1066.142000
 20
314.960000
 40
5.906000
 41
5.906000
 42
0.000000
  0
VERTEX
  8
PG_SILKSCREEN_TOP
 10
1087.795000
 20
336.614000
 40
5.906000
 41
5.906000
 42
0.000000
  0
VERTEX
  8
PG_SILKSCREEN_TOP
 10
1087.795000
 20
590.551000
 40
5.906000
 41
5.906000
 42
0.000000
  0
SEQEND
  0
POLYLINE
  8
PG_SILKSCREEN_TOP
 66
1
 70
1
 40
0.000000
 41
0.000000
 39
0.000000
  0
VERTEX
  8
PG_SILKSCREEN_TOP
 10
1170.472000
 20
342.520000
 40
0.000000
 41
0.000000
 42
1.000000
  0
VERTEX
  8
PG_SILKSCREEN_TOP
 10
1154.724850
 20
342.519055
 40
0.000000
 41
0.000000
 42
1.000000
  0
SEQEND
  0
TEXT
  8
RD_SILKSCREEN_TOP
 10
932.000000
 20
670.000000
 11
0.000000
 21
0.000000
 40
30.000000
 41
0.866667
 50
0.000000
  7
STANDARD
 71
0
 72
0
  1
U2
 73
0
  0
POLYLINE
  8
PIN_TOP
 66
1
 70
1
 40
0.000000
 41
0.000000
 39
0.000000
  0
VERTEX
  8
PIN_TOP
 10
407.750000
 20
219.252000
 40
0.000000
 41
0.000000
 42
0.000000
  0
VERTEX
  8
PIN_TOP
 10
407.750000
 20
250.752000
 40
0.000000
 41
0.000000
 42
0.000000
  0
VERTEX
  8
PIN_TOP
 10
439.250000
 20
250.752000
 40
0.000000
 41
0.000000
 42
0.000000
  0
VERTEX
  8
PIN_TOP
 10
439.250000
 20
219.252000
 40
0.000000
 41
0.000000
 42
0.000000
  0
SEQEND
  0
POLYLINE
  8
PIN_TOP
 66
1
 70
1
 40
0.000000
 41
0.000000
 39
0.000000
  0
VERTEX
  8
PIN_TOP
 10
470.750000
 20
219.252000
 40
0.000000
 41
0.000000
 42
0.000000
  0
VERTEX
  8
PIN_TOP
 10
470.750000
 20
250.752000
 40
0.000000
 41
0.000000
 42
0.000000
  0
VERTEX
  8
PIN_TOP
 10
502.250000
 20
250.752000
 40
0.000000
 41
0.000000
 42
0.000000
  0
VERTEX
  8
PIN_TOP
 10
502.250000
 20
219.252000
 40
0.000000
 41
0.000000
 42
0.000000
  0
SEQEND
  0
POLYLINE
  8
PG_SILKSCREEN_TOP
 66
1
 70
0
 40
0.000000
 41
0.000000
 39
0.000000
  0
VERTEX
  8
PG_SILKSCREEN_TOP
 10
400.500000
 20
259.002000
 40
6.000000
 41
6.000000
 42
0.000000
  0
VERTEX
  8
PG_SILKSCREEN_TOP
 10
510.000000
 20
259.002000
 40
6.000000
 41
6.000000
 42
0.000000
  0
SEQEND
  0
POLYLINE
  8
PG_SILKSCREEN_TOP
 66
1
 70
0
 40
0.000000
 41
0.000000
 39
0.000000
  0
VERTEX
  8
PG_SILKSCREEN_TOP
 10
510.000000
 20
259.002000
 40
6.000000
 41
6.000000
 42
0.000000
  0
VERTEX
  8
PG_SILKSCREEN_TOP
 10
510.000000
 20
211.002000
 40
6.000000
 41
6.000000
 42
0.000000
  0
SEQEND
  0
POLYLINE
  8
PG_SILKSCREEN_TOP
 66
1
 70
0
 40
0.000000
 41
0.000000
 39
0.000000
  0
VERTEX
  8
PG_SILKSCREEN_TOP
 10
510.000000
 20
211.002000
 40
6.000000
 41
6.000000
 42
0.000000
  0
VERTEX
  8
PG_SILKSCREEN_TOP
 10
400.500000
 20
211.002000
 40
6.000000
 41
6.000000
 42
0.000000
  0
SEQEND
  0
POLYLINE
  8
PG_SILKSCREEN_TOP
 66
1
 70
0
 40
0.000000
 41
0.000000
 39
0.000000
  0
VERTEX
  8
PG_SILKSCREEN_TOP
 10
400.500000
 20
211.002000
 40
6.000000
 41
6.000000
 42
0.000000
  0
VERTEX
  8
PG_SILKSCREEN_TOP
 10
400.500000
 20
259.002000
 40
6.000000
 41
6.000000
 42
0.000000
  0
SEQEND
  0
TEXT
  8
RD_SILKSCREEN_TOP
 10
437.000000
 20
170.000000
 11
0.000000
 21
0.000000
 40
30.000000
 41
0.866667
 50
0.000000
  7
STANDARD
 71
0
 72
0
  1
L1
 73
0
  0
POLYLINE
  8
PIN_TOP
 66
1
 70
1
 40
0.000000
 41
0.000000
 39
0.000000
  0
VERTEX
  8
PIN_TOP
 10
1493.201000
 20
696.480000
 40
0.000000
 41
0.000000
 42
0.000000
  0
VERTEX
  8
PIN_TOP
 10
1516.799000
 20
696.480000
 40
0.000000
 41
0.000000
 42
0.000000
  0
VERTEX
  8
PIN_TOP
 10
1516.799000
 20
672.882000
 40
0.000000
 41
0.000000
 42
0.000000
  0
VERTEX
  8
PIN_TOP
 10
1493.201000
 20
672.882000
 40
0.000000
 41
0.000000
 42
0.000000
  0
SEQEND
  0
POLYLINE
  8
PIN_TOP
 66
1
 70
1
 40
0.000000
 41
0.000000
 39
0.000000
  0
VERTEX
  8
PIN_TOP
 10
1493.201000
 20
657.118000
 40
0.000000
 41
0.000000
 42
0.000000
  0
VERTEX
  8
PIN_TOP
 10
1516.799000
 20
657.118000
 40
0.000000
 41
0.000000
 42
0.000000
  0
VERTEX
  8
PIN_TOP
 10
1516.799000
 20
633.520000
 40
0.000000
 41
0.000000
 42
0.000000
  0
VERTEX
  8
PIN_TOP
 10
1493.201000
 20
633.520000
 40
0.000000
 41
0.000000
 42
0.000000
  0
SEQEND
  0
POLYLINE
  8
PG_SILKSCREEN_TOP
 66
1
 70
0
 40
0.000000
 41
0.000000
 39
0.000000
  0
VERTEX
  8
PG_SILKSCREEN_TOP
 10
1522.000000
 20
702.000000
 40
4.000000
 41
4.000000
 42
0.000000
  0
VERTEX
  8
PG_SILKSCREEN_TOP
 10
1522.000000
 20
628.000000
 40
4.000000
 41
4.000000
 42
0.000000
  0
VERTEX
  8
PG_SILKSCREEN_TOP
 10
1488.000000
 20
628.000000
 40
4.000000
 41
4.000000
 42
0.000000
  0
VERTEX
  8
PG_SILKSCREEN_TOP
 10
1488.000000
 20
702.000000
 40
4.000000
 41
4.000000
 42
0.000000
  0
VERTEX
  8
PG_SILKSCREEN_TOP
 10
1522.000000
 20
702.000000
 40
4.000000
 41
4.000000
 42
0.000000
  0
SEQEND
  0
TEXT
  8
RD_SILKSCREEN_TOP
 10
1517.000000
 20
745.000000
 11
0.000000
 21
0.000000
 40
30.000000
 41
0.866667
 50
0.000000
  7
STANDARD
 71
0
 72
0
  1
R8
 73
0
  0
POLYLINE
  8
PIN_TOP
 66
1
 70
1
 40
0.000000
 41
0.000000
 39
0.000000
  0
VERTEX
  8
PIN_TOP
 10
1373.201000
 20
484.236000
 40
0.000000
 41
0.000000
 42
0.000000
  0
VERTEX
  8
PIN_TOP
 10
1396.799000
 20
484.236000
 40
0.000000
 41
0.000000
 42
0.000000
  0
VERTEX
  8
PIN_TOP
 10
1396.799000
 20
460.638000
 40
0.000000
 41
0.000000
 42
0.000000
  0
VERTEX
  8
PIN_TOP
 10
1373.201000
 20
460.638000
 40
0.000000
 41
0.000000
 42
0.000000
  0
SEQEND
  0
POLYLINE
  8
PIN_TOP
 66
1
 70
1
 40
0.000000
 41
0.000000
 39
0.000000
  0
VERTEX
  8
PIN_TOP
 10
1373.201000
 20
444.874000
 40
0.000000
 41
0.000000
 42
0.000000
  0
VERTEX
  8
PIN_TOP
 10
1396.799000
 20
444.874000
 40
0.000000
 41
0.000000
 42
0.000000
  0
VERTEX
  8
PIN_TOP
 10
1396.799000
 20
421.276000
 40
0.000000
 41
0.000000
 42
0.000000
  0
VERTEX
  8
PIN_TOP
 10
1373.201000
 20
421.276000
 40
0.000000
 41
0.000000
 42
0.000000
  0
SEQEND
  0
POLYLINE
  8
PG_SILKSCREEN_TOP
 66
1
 70
0
 40
0.000000
 41
0.000000
 39
0.000000
  0
VERTEX
  8
PG_SILKSCREEN_TOP
 10
1402.000000
 20
489.756000
 40
4.000000
 41
4.000000
 42
0.000000
  0
VERTEX
  8
PG_SILKSCREEN_TOP
 10
1402.000000
 20
415.756000
 40
4.000000
 41
4.000000
 42
0.000000
  0
VERTEX
  8
PG_SILKSCREEN_TOP
 10
1368.000000
 20
415.756000
 40
4.000000
 41
4.000000
 42
0.000000
  0
VERTEX
  8
PG_SILKSCREEN_TOP
 10
1368.000000
 20
489.756000
 40
4.000000
 41
4.000000
 42
0.000000
  0
VERTEX
  8
PG_SILKSCREEN_TOP
 10
1402.000000
 20
489.756000
 40
4.000000
 41
4.000000
 42
0.000000
  0
SEQEND
  0
TEXT
  8
RD_SILKSCREEN_TOP
 10
1362.000000
 20
495.000000
 11
0.000000
 21
0.000000
 40
30.000000
 41
0.866667
 50
0.000000
  7
STANDARD
 71
0
 72
0
  1
R5
 73
0
  0
POLYLINE
  8
PIN_TOP
 66
1
 70
1
 40
0.000000
 41
0.000000
 39
0.000000
  0
VERTEX
  8
PIN_TOP
 10
1373.201000
 20
671.480000
 40
0.000000
 41
0.000000
 42
0.000000
  0
VERTEX
  8
PIN_TOP
 10
1396.799000
 20
671.480000
 40
0.000000
 41
0.000000
 42
0.000000
  0
VERTEX
  8
PIN_TOP
 10
1396.799000
 20
647.882000
 40
0.000000
 41
0.000000
 42
0.000000
  0
VERTEX
  8
PIN_TOP
 10
1373.201000
 20
647.882000
 40
0.000000
 41
0.000000
 42
0.000000
  0
SEQEND
  0
POLYLINE
  8
PIN_TOP
 66
1
 70
1
 40
0.000000
 41
0.000000
 39
0.000000
  0
VERTEX
  8
PIN_TOP
 10
1373.201000
 20
632.118000
 40
0.000000
 41
0.000000
 42
0.000000
  0
VERTEX
  8
PIN_TOP
 10
1396.799000
 20
632.118000
 40
0.000000
 41
0.000000
 42
0.000000
  0
VERTEX
  8
PIN_TOP
 10
1396.799000
 20
608.520000
 40
0.000000
 41
0.000000
 42
0.000000
  0
VERTEX
  8
PIN_TOP
 10
1373.201000
 20
608.520000
 40
0.000000
 41
0.000000
 42
0.000000
  0
SEQEND
  0
POLYLINE
  8
PG_SILKSCREEN_TOP
 66
1
 70
0
 40
0.000000
 41
0.000000
 39
0.000000
  0
VERTEX
  8
PG_SILKSCREEN_TOP
 10
1402.000000
 20
677.000000
 40
4.000000
 41
4.000000
 42
0.000000
  0
VERTEX
  8
PG_SILKSCREEN_TOP
 10
1402.000000
 20
603.000000
 40
4.000000
 41
4.000000
 42
0.000000
  0
VERTEX
  8
PG_SILKSCREEN_TOP
 10
1368.000000
 20
603.000000
 40
4.000000
 41
4.000000
 42
0.000000
  0
VERTEX
  8
PG_SILKSCREEN_TOP
 10
1368.000000
 20
677.000000
 40
4.000000
 41
4.000000
 42
0.000000
  0
VERTEX
  8
PG_SILKSCREEN_TOP
 10
1402.000000
 20
677.000000
 40
4.000000
 41
4.000000
 42
0.000000
  0
SEQEND
  0
TEXT
  8
RD_SILKSCREEN_TOP
 10
1360.000000
 20
617.000000
 11
0.000000
 21
0.000000
 40
30.000000
 41
0.866667
 50
90.000000
  7
STANDARD
 71
0
 72
0
  1
R4
 73
0
  0
POLYLINE
  8
PIN_TOP
 66
1
 70
1
 40
0.000000
 41
0.000000
 39
0.000000
  0
VERTEX
  8
PIN_TOP
 10
533.520000
 20
223.201000
 40
0.000000
 41
0.000000
 42
0.000000
  0
VERTEX
  8
PIN_TOP
 10
533.520000
 20
246.799000
 40
0.000000
 41
0.000000
 42
0.000000
  0
VERTEX
  8
PIN_TOP
 10
557.118000
 20
246.799000
 40
0.000000
 41
0.000000
 42
0.000000
  0
VERTEX
  8
PIN_TOP
 10
557.118000
 20
223.201000
 40
0.000000
 41
0.000000
 42
0.000000
  0
SEQEND
  0
POLYLINE
  8
PIN_TOP
 66
1
 70
1
 40
0.000000
 41
0.000000
 39
0.000000
  0
VERTEX
  8
PIN_TOP
 10
572.882000
 20
223.201000
 40
0.000000
 41
0.000000
 42
0.000000
  0
VERTEX
  8
PIN_TOP
 10
572.882000
 20
246.799000
 40
0.000000
 41
0.000000
 42
0.000000
  0
VERTEX
  8
PIN_TOP
 10
596.480000
 20
246.799000
 40
0.000000
 41
0.000000
 42
0.000000
  0
VERTEX
  8
PIN_TOP
 10
596.480000
 20
223.201000
 40
0.000000
 41
0.000000
 42
0.000000
  0
SEQEND
  0
POLYLINE
  8
PG_SILKSCREEN_TOP
 66
1
 70
0
 40
0.000000
 41
0.000000
 39
0.000000
  0
VERTEX
  8
PG_SILKSCREEN_TOP
 10
528.000000
 20
252.000000
 40
4.000000
 41
4.000000
 42
0.000000
  0
VERTEX
  8
PG_SILKSCREEN_TOP
 10
602.000000
 20
252.000000
 40
4.000000
 41
4.000000
 42
0.000000
  0
VERTEX
  8
PG_SILKSCREEN_TOP
 10
602.000000
 20
218.000000
 40
4.000000
 41
4.000000
 42
0.000000
  0
VERTEX
  8
PG_SILKSCREEN_TOP
 10
528.000000
 20
218.000000
 40
4.000000
 41
4.000000
 42
0.000000
  0
VERTEX
  8
PG_SILKSCREEN_TOP
 10
528.000000
 20
252.000000
 40
4.000000
 41
4.000000
 42
0.000000
  0
SEQEND
  0
TEXT
  8
RD_SILKSCREEN_TOP
 10
542.000000
 20
170.000000
 11
0.000000
 21
0.000000
 40
30.000000
 41
0.866667
 50
0.000000
  7
STANDARD
 71
0
 72
0
  1
R2
 73
0
  0
POLYLINE
  8
PIN_TOP
 66
1
 70
1
 40
0.000000
 41
0.000000
 39
0.000000
  0
VERTEX
  8
PIN_TOP
 10
1493.201000
 20
356.480000
 40
0.000000
 41
0.000000
 42
0.000000
  0
VERTEX
  8
PIN_TOP
 10
1516.799000
 20
356.480000
 40
0.000000
 41
0.000000
 42
0.000000
  0
VERTEX
  8
PIN_TOP
 10
1516.799000
 20
332.882000
 40
0.000000
 41
0.000000
 42
0.000000
  0
VERTEX
  8
PIN_TOP
 10
1493.201000
 20
332.882000
 40
0.000000
 41
0.000000
 42
0.000000
  0
SEQEND
  0
POLYLINE
  8
PIN_TOP
 66
1
 70
1
 40
0.000000
 41
0.000000
 39
0.000000
  0
VERTEX
  8
PIN_TOP
 10
1493.201000
 20
317.118000
 40
0.000000
 41
0.000000
 42
0.000000
  0
VERTEX
  8
PIN_TOP
 10
1516.799000
 20
317.118000
 40
0.000000
 41
0.000000
 42
0.000000
  0
VERTEX
  8
PIN_TOP
 10
1516.799000
 20
293.520000
 40
0.000000
 41
0.000000
 42
0.000000
  0
VERTEX
  8
PIN_TOP
 10
1493.201000
 20
293.520000
 40
0.000000
 41
0.000000
 42
0.000000
  0
SEQEND
  0
POLYLINE
  8
PG_SILKSCREEN_TOP
 66
1
 70
0
 40
0.000000
 41
0.000000
 39
0.000000
  0
VERTEX
  8
PG_SILKSCREEN_TOP
 10
1522.000000
 20
362.000000
 40
4.000000
 41
4.000000
 42
0.000000
  0
VERTEX
  8
PG_SILKSCREEN_TOP
 10
1522.000000
 20
288.000000
 40
4.000000
 41
4.000000
 42
0.000000
  0
VERTEX
  8
PG_SILKSCREEN_TOP
 10
1488.000000
 20
288.000000
 40
4.000000
 41
4.000000
 42
0.000000
  0
VERTEX
  8
PG_SILKSCREEN_TOP
 10
1488.000000
 20
362.000000
 40
4.000000
 41
4.000000
 42
0.000000
  0
VERTEX
  8
PG_SILKSCREEN_TOP
 10
1522.000000
 20
362.000000
 40
4.000000
 41
4.000000
 42
0.000000
  0
SEQEND
  0
TEXT
  8
RD_SILKSCREEN_TOP
 10
1482.000000
 20
165.000000
 11
0.000000
 21
0.000000
 40
30.000000
 41
0.866667
 50
0.000000
  7
STANDARD
 71
0
 72
0
  1
R9
 73
0
  0
POLYLINE
  8
PIN_TOP
 66
1
 70
1
 40
0.000000
 41
0.000000
 39
0.000000
  0
VERTEX
  8
PIN_TOP
 10
1516.799000
 20
378.520000
 40
0.000000
 41
0.000000
 42
0.000000
  0
VERTEX
  8
PIN_TOP
 10
1493.201000
 20
378.520000
 40
0.000000
 41
0.000000
 42
0.000000
  0
VERTEX
  8
PIN_TOP
 10
1493.201000
 20
402.118000
 40
0.000000
 41
0.000000
 42
0.000000
  0
VERTEX
  8
PIN_TOP
 10
1516.799000
 20
402.118000
 40
0.000000
 41
0.000000
 42
0.000000
  0
SEQEND
  0
POLYLINE
  8
PIN_TOP
 66
1
 70
1
 40
0.000000
 41
0.000000
 39
0.000000
  0
VERTEX
  8
PIN_TOP
 10
1516.799000
 20
417.882000
 40
0.000000
 41
0.000000
 42
0.000000
  0
VERTEX
  8
PIN_TOP
 10
1493.201000
 20
417.882000
 40
0.000000
 41
0.000000
 42
0.000000
  0
VERTEX
  8
PIN_TOP
 10
1493.201000
 20
441.480000
 40
0.000000
 41
0.000000
 42
0.000000
  0
VERTEX
  8
PIN_TOP
 10
1516.799000
 20
441.480000
 40
0.000000
 41
0.000000
 42
0.000000
  0
SEQEND
  0
POLYLINE
  8
PG_SILKSCREEN_TOP
 66
1
 70
0
 40
0.000000
 41
0.000000
 39
0.000000
  0
VERTEX
  8
PG_SILKSCREEN_TOP
 10
1488.000000
 20
373.000000
 40
4.000000
 41
4.000000
 42
0.000000
  0
VERTEX
  8
PG_SILKSCREEN_TOP
 10
1488.000000
 20
447.000000
 40
4.000000
 41
4.000000
 42
0.000000
  0
VERTEX
  8
PG_SILKSCREEN_TOP
 10
1522.000000
 20
447.000000
 40
4.000000
 41
4.000000
 42
0.000000
  0
VERTEX
  8
PG_SILKSCREEN_TOP
 10
1522.000000
 20
373.000000
 40
4.000000
 41
4.000000
 42
0.000000
  0
VERTEX
  8
PG_SILKSCREEN_TOP
 10
1488.000000
 20
373.000000
 40
4.000000
 41
4.000000
 42
0.000000
  0
SEQEND
  0
TEXT
  8
RD_SILKSCREEN_TOP
 10
1557.000000
 20
350.000000
 11
0.000000
 21
0.000000
 40
30.000000
 41
0.866667
 50
0.000000
  7
STANDARD
 71
0
 72
0
  1
R7
 73
0
  0
POLYLINE
  8
PIN_TOP
 66
1
 70
1
 40
0.000000
 41
0.000000
 39
0.000000
  0
VERTEX
  8
PIN_TOP
 10
1373.201000
 20
301.480000
 40
0.000000
 41
0.000000
 42
0.000000
  0
VERTEX
  8
PIN_TOP
 10
1396.799000
 20
301.480000
 40
0.000000
 41
0.000000
 42
0.000000
  0
VERTEX
  8
PIN_TOP
 10
1396.799000
 20
277.882000
 40
0.000000
 41
0.000000
 42
0.000000
  0
VERTEX
  8
PIN_TOP
 10
1373.201000
 20
277.882000
 40
0.000000
 41
0.000000
 42
0.000000
  0
SEQEND
  0
POLYLINE
  8
PIN_TOP
 66
1
 70
1
 40
0.000000
 41
0.000000
 39
0.000000
  0
VERTEX
  8
PIN_TOP
 10
1373.201000
 20
262.118000
 40
0.000000
 41
0.000000
 42
0.000000
  0
VERTEX
  8
PIN_TOP
 10
1396.799000
 20
262.118000
 40
0.000000
 41
0.000000
 42
0.000000
  0
VERTEX
  8
PIN_TOP
 10
1396.799000
 20
238.520000
 40
0.000000
 41
0.000000
 42
0.000000
  0
VERTEX
  8
PIN_TOP
 10
1373.201000
 20
238.520000
 40
0.000000
 41
0.000000
 42
0.000000
  0
SEQEND
  0
POLYLINE
  8
PG_SILKSCREEN_TOP
 66
1
 70
0
 40
0.000000
 41
0.000000
 39
0.000000
  0
VERTEX
  8
PG_SILKSCREEN_TOP
 10
1402.000000
 20
307.000000
 40
4.000000
 41
4.000000
 42
0.000000
  0
VERTEX
  8
PG_SILKSCREEN_TOP
 10
1402.000000
 20
233.000000
 40
4.000000
 41
4.000000
 42
0.000000
  0
VERTEX
  8
PG_SILKSCREEN_TOP
 10
1368.000000
 20
233.000000
 40
4.000000
 41
4.000000
 42
0.000000
  0
VERTEX
  8
PG_SILKSCREEN_TOP
 10
1368.000000
 20
307.000000
 40
4.000000
 41
4.000000
 42
0.000000
  0
VERTEX
  8
PG_SILKSCREEN_TOP
 10
1402.000000
 20
307.000000
 40
4.000000
 41
4.000000
 42
0.000000
  0
SEQEND
  0
TEXT
  8
RD_SILKSCREEN_TOP
 10
1355.000000
 20
247.000000
 11
0.000000
 21
0.000000
 40
30.000000
 41
0.866667
 50
90.000000
  7
STANDARD
 71
0
 72
0
  1
R6
 73
0
  0
POLYLINE
  8
PIN_TOP
 66
1
 70
1
 40
0.000000
 41
0.000000
 39
0.000000
  0
VERTEX
  8
PIN_TOP
 10
143.520000
 20
213.201000
 40
0.000000
 41
0.000000
 42
0.000000
  0
VERTEX
  8
PIN_TOP
 10
143.520000
 20
236.799000
 40
0.000000
 41
0.000000
 42
0.000000
  0
VERTEX
  8
PIN_TOP
 10
167.118000
 20
236.799000
 40
0.000000
 41
0.000000
 42
0.000000
  0
VERTEX
  8
PIN_TOP
 10
167.118000
 20
213.201000
 40
0.000000
 41
0.000000
 42
0.000000
  0
SEQEND
  0
POLYLINE
  8
PIN_TOP
 66
1
 70
1
 40
0.000000
 41
0.000000
 39
0.000000
  0
VERTEX
  8
PIN_TOP
 10
182.882000
 20
213.201000
 40
0.000000
 41
0.000000
 42
0.000000
  0
VERTEX
  8
PIN_TOP
 10
182.882000
 20
236.799000
 40
0.000000
 41
0.000000
 42
0.000000
  0
VERTEX
  8
PIN_TOP
 10
206.480000
 20
236.799000
 40
0.000000
 41
0.000000
 42
0.000000
  0
VERTEX
  8
PIN_TOP
 10
206.480000
 20
213.201000
 40
0.000000
 41
0.000000
 42
0.000000
  0
SEQEND
  0
POLYLINE
  8
PG_SILKSCREEN_TOP
 66
1
 70
0
 40
0.000000
 41
0.000000
 39
0.000000
  0
VERTEX
  8
PG_SILKSCREEN_TOP
 10
138.000000
 20
242.000000
 40
4.000000
 41
4.000000
 42
0.000000
  0
VERTEX
  8
PG_SILKSCREEN_TOP
 10
212.000000
 20
242.000000
 40
4.000000
 41
4.000000
 42
0.000000
  0
VERTEX
  8
PG_SILKSCREEN_TOP
 10
212.000000
 20
208.000000
 40
4.000000
 41
4.000000
 42
0.000000
  0
VERTEX
  8
PG_SILKSCREEN_TOP
 10
138.000000
 20
208.000000
 40
4.000000
 41
4.000000
 42
0.000000
  0
VERTEX
  8
PG_SILKSCREEN_TOP
 10
138.000000
 20
242.000000
 40
4.000000
 41
4.000000
 42
0.000000
  0
SEQEND
  0
TEXT
  8
RD_SILKSCREEN_TOP
 10
227.000000
 20
210.000000
 11
0.000000
 21
0.000000
 40
30.000000
 41
0.866667
 50
0.000000
  7
STANDARD
 71
0
 72
0
  1
R3
 73
0
  0
POLYLINE
  8
PIN_TOP
 66
1
 70
1
 40
0.000000
 41
0.000000
 39
0.000000
  0
VERTEX
  8
PIN_TOP
 10
143.520000
 20
668.201000
 40
0.000000
 41
0.000000
 42
0.000000
  0
VERTEX
  8
PIN_TOP
 10
143.520000
 20
691.799000
 40
0.000000
 41
0.000000
 42
0.000000
  0
VERTEX
  8
PIN_TOP
 10
167.118000
 20
691.799000
 40
0.000000
 41
0.000000
 42
0.000000
  0
VERTEX
  8
PIN_TOP
 10
167.118000
 20
668.201000
 40
0.000000
 41
0.000000
 42
0.000000
  0
SEQEND
  0
POLYLINE
  8
PIN_TOP
 66
1
 70
1
 40
0.000000
 41
0.000000
 39
0.000000
  0
VERTEX
  8
PIN_TOP
 10
182.882000
 20
668.201000
 40
0.000000
 41
0.000000
 42
0.000000
  0
VERTEX
  8
PIN_TOP
 10
182.882000
 20
691.799000
 40
0.000000
 41
0.000000
 42
0.000000
  0
VERTEX
  8
PIN_TOP
 10
206.480000
 20
691.799000
 40
0.000000
 41
0.000000
 42
0.000000
  0
VERTEX
  8
PIN_TOP
 10
206.480000
 20
668.201000
 40
0.000000
 41
0.000000
 42
0.000000
  0
SEQEND
  0
POLYLINE
  8
PG_SILKSCREEN_TOP
 66
1
 70
0
 40
0.000000
 41
0.000000
 39
0.000000
  0
VERTEX
  8
PG_SILKSCREEN_TOP
 10
138.000000
 20
697.000000
 40
4.000000
 41
4.000000
 42
0.000000
  0
VERTEX
  8
PG_SILKSCREEN_TOP
 10
212.000000
 20
697.000000
 40
4.000000
 41
4.000000
 42
0.000000
  0
VERTEX
  8
PG_SILKSCREEN_TOP
 10
212.000000
 20
663.000000
 40
4.000000
 41
4.000000
 42
0.000000
  0
VERTEX
  8
PG_SILKSCREEN_TOP
 10
138.000000
 20
663.000000
 40
4.000000
 41
4.000000
 42
0.000000
  0
VERTEX
  8
PG_SILKSCREEN_TOP
 10
138.000000
 20
697.000000
 40
4.000000
 41
4.000000
 42
0.000000
  0
SEQEND
  0
TEXT
  8
RD_SILKSCREEN_TOP
 10
227.000000
 20
665.000000
 11
0.000000
 21
0.000000
 40
30.000000
 41
0.866667
 50
0.000000
  7
STANDARD
 71
0
 72
0
  1
R1
 73
0
  0
POLYLINE
  8
PIN_TOP
 66
1
 70
1
 40
0.000000
 41
0.000000
 39
0.000000
  0
VERTEX
  8
PIN_TOP
 10
664.290500
 20
221.384000
 40
0.000000
 41
0.000000
 42
0.000000
  0
VERTEX
  8
PIN_TOP
 10
625.711500
 20
221.384000
 40
0.000000
 41
0.000000
 42
0.000000
  0
VERTEX
  8
PIN_TOP
 10
625.711500
 20
257.994000
 40
0.000000
 41
0.000000
 42
0.000000
  0
VERTEX
  8
PIN_TOP
 10
664.290500
 20
257.994000
 40
0.000000
 41
0.000000
 42
0.000000
  0
SEQEND
  0
POLYLINE
  8
PIN_TOP
 66
1
 70
1
 40
0.000000
 41
0.000000
 39
0.000000
  0
VERTEX
  8
PIN_TOP
 10
664.290500
 20
282.014000
 40
0.000000
 41
0.000000
 42
0.000000
  0
VERTEX
  8
PIN_TOP
 10
625.711500
 20
282.014000
 40
0.000000
 41
0.000000
 42
0.000000
  0
VERTEX
  8
PIN_TOP
 10
625.711500
 20
318.624000
 40
0.000000
 41
0.000000
 42
0.000000
  0
VERTEX
  8
PIN_TOP
 10
664.290500
 20
318.624000
 40
0.000000
 41
0.000000
 42
0.000000
  0
SEQEND
  0
POLYLINE
  8
PG_SILKSCREEN_TOP
 66
1
 70
0
 40
0.000000
 41
0.000000
 39
0.000000
  0
VERTEX
  8
PG_SILKSCREEN_TOP
 10
613.902000
 20
321.181000
 40
7.870000
 41
7.870000
 42
0.000000
  0
VERTEX
  8
PG_SILKSCREEN_TOP
 10
613.902000
 20
285.748000
 40
7.870000
 41
7.870000
 42
0.000000
  0
SEQEND
  0
POLYLINE
  8
PG_SILKSCREEN_TOP
 66
1
 70
0
 40
0.000000
 41
0.000000
 39
0.000000
  0
VERTEX
  8
PG_SILKSCREEN_TOP
 10
621.501000
 20
329.059000
 40
7.870000
 41
7.870000
 42
0.000000
  0
VERTEX
  8
PG_SILKSCREEN_TOP
 10
613.902000
 20
321.181000
 40
7.870000
 41
7.870000
 42
0.000000
  0
SEQEND
  0
POLYLINE
  8
PG_SILKSCREEN_TOP
 66
1
 70
0
 40
0.000000
 41
0.000000
 39
0.000000
  0
VERTEX
  8
PG_SILKSCREEN_TOP
 10
668.501000
 20
329.059000
 40
7.870000
 41
7.870000
 42
0.000000
  0
VERTEX
  8
PG_SILKSCREEN_TOP
 10
621.501000
 20
329.059000
 40
7.870000
 41
7.870000
 42
0.000000
  0
SEQEND
  0
POLYLINE
  8
PG_SILKSCREEN_TOP
 66
1
 70
0
 40
0.000000
 41
0.000000
 39
0.000000
  0
VERTEX
  8
PG_SILKSCREEN_TOP
 10
676.099000
 20
321.181000
 40
7.870000
 41
7.870000
 42
0.000000
  0
VERTEX
  8
PG_SILKSCREEN_TOP
 10
668.501000
 20
329.059000
 40
7.870000
 41
7.870000
 42
0.000000
  0
SEQEND
  0
POLYLINE
  8
PG_SILKSCREEN_TOP
 66
1
 70
0
 40
0.000000
 41
0.000000
 39
0.000000
  0
VERTEX
  8
PG_SILKSCREEN_TOP
 10
676.099000
 20
285.748000
 40
7.870000
 41
7.870000
 42
0.000000
  0
VERTEX
  8
PG_SILKSCREEN_TOP
 10
676.099000
 20
321.181000
 40
7.870000
 41
7.870000
 42
0.000000
  0
SEQEND
  0
POLYLINE
  8
PG_SILKSCREEN_TOP
 66
1
 70
0
 40
0.000000
 41
0.000000
 39
0.000000
  0
VERTEX
  8
PG_SILKSCREEN_TOP
 10
613.902000
 20
209.571000
 40
7.870000
 41
7.870000
 42
0.000000
  0
VERTEX
  8
PG_SILKSCREEN_TOP
 10
613.902000
 20
254.252000
 40
7.870000
 41
7.870000
 42
0.000000
  0
SEQEND
  0
POLYLINE
  8
PG_SILKSCREEN_TOP
 66
1
 70
0
 40
0.000000
 41
0.000000
 39
0.000000
  0
VERTEX
  8
PG_SILKSCREEN_TOP
 10
676.099000
 20
209.571000
 40
7.870000
 41
7.870000
 42
0.000000
  0
VERTEX
  8
PG_SILKSCREEN_TOP
 10
613.902000
 20
209.571000
 40
7.870000
 41
7.870000
 42
0.000000
  0
SEQEND
  0
POLYLINE
  8
PG_SILKSCREEN_TOP
 66
1
 70
0
 40
0.000000
 41
0.000000
 39
0.000000
  0
VERTEX
  8
PG_SILKSCREEN_TOP
 10
676.099000
 20
254.252000
 40
7.870000
 41
7.870000
 42
0.000000
  0
VERTEX
  8
PG_SILKSCREEN_TOP
 10
676.099000
 20
209.571000
 40
7.870000
 41
7.870000
 42
0.000000
  0
SEQEND
  0
POLYLINE
  8
PG_SILKSCREEN_TOP
 66
1
 70
1
 40
0.000000
 41
0.000000
 39
0.000000
  0
VERTEX
  8
PG_SILKSCREEN_TOP
 10
668.619000
 20
337.909000
 40
0.000000
 41
0.000000
 42
0.000000
  0
VERTEX
  8
PG_SILKSCREEN_TOP
 10
668.619000
 20
349.728000
 40
0.000000
 41
0.000000
 42
0.000000
  0
VERTEX
  8
PG_SILKSCREEN_TOP
 10
621.383000
 20
349.728000
 40
0.000000
 41
0.000000
 42
0.000000
  0
VERTEX
  8
PG_SILKSCREEN_TOP
 10
621.383000
 20
337.909000
 40
0.000000
 41
0.000000
 42
0.000000
  0
SEQEND
  0
TEXT
  8
RD_SILKSCREEN_TOP
 10
596.000000
 20
170.000000
 11
0.000000
 21
0.000000
 40
30.000000
 41
0.866667
 50
0.000000
  7
STANDARD
 71
0
 72
0
  1
LED1
 73
0
  0
POLYLINE
  8
PIN_TOP
 66
1
 70
1
 40
0.000000
 41
0.000000
 39
0.000000
  0
VERTEX
  8
PIN_TOP
 10
1464.290500
 20
403.156000
 40
0.000000
 41
0.000000
 42
0.000000
  0
VERTEX
  8
PIN_TOP
 10
1425.711500
 20
403.156000
 40
0.000000
 41
0.000000
 42
0.000000
  0
VERTEX
  8
PIN_TOP
 10
1425.711500
 20
439.766000
 40
0.000000
 41
0.000000
 42
0.000000
  0
VERTEX
  8
PIN_TOP
 10
1464.290500
 20
439.766000
 40
0.000000
 41
0.000000
 42
0.000000
  0
SEQEND
  0
POLYLINE
  8
PIN_TOP
 66
1
 70
1
 40
0.000000
 41
0.000000
 39
0.000000
  0
VERTEX
  8
PIN_TOP
 10
1464.290500
 20
463.786000
 40
0.000000
 41
0.000000
 42
0.000000
  0
VERTEX
  8
PIN_TOP
 10
1425.711500
 20
463.786000
 40
0.000000
 41
0.000000
 42
0.000000
  0
VERTEX
  8
PIN_TOP
 10
1425.711500
 20
500.396000
 40
0.000000
 41
0.000000
 42
0.000000
  0
VERTEX
  8
PIN_TOP
 10
1464.290500
 20
500.396000
 40
0.000000
 41
0.000000
 42
0.000000
  0
SEQEND
  0
POLYLINE
  8
PG_SILKSCREEN_TOP
 66
1
 70
0
 40
0.000000
 41
0.000000
 39
0.000000
  0
VERTEX
  8
PG_SILKSCREEN_TOP
 10
1413.902000
 20
502.953000
 40
7.870000
 41
7.870000
 42
0.000000
  0
VERTEX
  8
PG_SILKSCREEN_TOP
 10
1413.902000
 20
467.520000
 40
7.870000
 41
7.870000
 42
0.000000
  0
SEQEND
  0
POLYLINE
  8
PG_SILKSCREEN_TOP
 66
1
 70
0
 40
0.000000
 41
0.000000
 39
0.000000
  0
VERTEX
  8
PG_SILKSCREEN_TOP
 10
1421.501000
 20
510.831000
 40
7.870000
 41
7.870000
 42
0.000000
  0
VERTEX
  8
PG_SILKSCREEN_TOP
 10
1413.902000
 20
502.953000
 40
7.870000
 41
7.870000
 42
0.000000
  0
SEQEND
  0
POLYLINE
  8
PG_SILKSCREEN_TOP
 66
1
 70
0
 40
0.000000
 41
0.000000
 39
0.000000
  0
VERTEX
  8
PG_SILKSCREEN_TOP
 10
1468.501000
 20
510.831000
 40
7.870000
 41
7.870000
 42
0.000000
  0
VERTEX
  8
PG_SILKSCREEN_TOP
 10
1421.501000
 20
510.831000
 40
7.870000
 41
7.870000
 42
0.000000
  0
SEQEND
  0
POLYLINE
  8
PG_SILKSCREEN_TOP
 66
1
 70
0
 40
0.000000
 41
0.000000
 39
0.000000
  0
VERTEX
  8
PG_SILKSCREEN_TOP
 10
1476.099000
 20
502.953000
 40
7.870000
 41
7.870000
 42
0.000000
  0
VERTEX
  8
PG_SILKSCREEN_TOP
 10
1468.501000
 20
510.831000
 40
7.870000
 41
7.870000
 42
0.000000
  0
SEQEND
  0
POLYLINE
  8
PG_SILKSCREEN_TOP
 66
1
 70
0
 40
0.000000
 41
0.000000
 39
0.000000
  0
VERTEX
  8
PG_SILKSCREEN_TOP
 10
1476.099000
 20
467.520000
 40
7.870000
 41
7.870000
 42
0.000000
  0
VERTEX
  8
PG_SILKSCREEN_TOP
 10
1476.099000
 20
502.953000
 40
7.870000
 41
7.870000
 42
0.000000
  0
SEQEND
  0
POLYLINE
  8
PG_SILKSCREEN_TOP
 66
1
 70
0
 40
0.000000
 41
0.000000
 39
0.000000
  0
VERTEX
  8
PG_SILKSCREEN_TOP
 10
1413.902000
 20
391.343000
 40
7.870000
 41
7.870000
 42
0.000000
  0
VERTEX
  8
PG_SILKSCREEN_TOP
 10
1413.902000
 20
436.024000
 40
7.870000
 41
7.870000
 42
0.000000
  0
SEQEND
  0
POLYLINE
  8
PG_SILKSCREEN_TOP
 66
1
 70
0
 40
0.000000
 41
0.000000
 39
0.000000
  0
VERTEX
  8
PG_SILKSCREEN_TOP
 10
1476.099000
 20
391.343000
 40
7.870000
 41
7.870000
 42
0.000000
  0
VERTEX
  8
PG_SILKSCREEN_TOP
 10
1413.902000
 20
391.343000
 40
7.870000
 41
7.870000
 42
0.000000
  0
SEQEND
  0
POLYLINE
  8
PG_SILKSCREEN_TOP
 66
1
 70
0
 40
0.000000
 41
0.000000
 39
0.000000
  0
VERTEX
  8
PG_SILKSCREEN_TOP
 10
1476.099000
 20
436.024000
 40
7.870000
 41
7.870000
 42
0.000000
  0
VERTEX
  8
PG_SILKSCREEN_TOP
 10
1476.099000
 20
391.343000
 40
7.870000
 41
7.870000
 42
0.000000
  0
SEQEND
  0
POLYLINE
  8
PG_SILKSCREEN_TOP
 66
1
 70
1
 40
0.000000
 41
0.000000
 39
0.000000
  0
VERTEX
  8
PG_SILKSCREEN_TOP
 10
1468.619000
 20
519.681000
 40
0.000000
 41
0.000000
 42
0.000000
  0
VERTEX
  8
PG_SILKSCREEN_TOP
 10
1468.619000
 20
531.500000
 40
0.000000
 41
0.000000
 42
0.000000
  0
VERTEX
  8
PG_SILKSCREEN_TOP
 10
1421.383000
 20
531.500000
 40
0.000000
 41
0.000000
 42
0.000000
  0
VERTEX
  8
PG_SILKSCREEN_TOP
 10
1421.383000
 20
519.681000
 40
0.000000
 41
0.000000
 42
0.000000
  0
SEQEND
  0
TEXT
  8
RD_SILKSCREEN_TOP
 10
1376.000000
 20
540.000000
 11
0.000000
 21
0.000000
 40
30.000000
 41
0.866667
 50
0.000000
  7
STANDARD
 71
0
 72
0
  1
LED3
 73
0
  0
POLYLINE
  8
PIN_TOP
 66
1
 70
1
 40
0.000000
 41
0.000000
 39
0.000000
  0
VERTEX
  8
PIN_TOP
 10
1464.290500
 20
591.385000
 40
0.000000
 41
0.000000
 42
0.000000
  0
VERTEX
  8
PIN_TOP
 10
1425.711500
 20
591.385000
 40
0.000000
 41
0.000000
 42
0.000000
  0
VERTEX
  8
PIN_TOP
 10
1425.711500
 20
627.995000
 40
0.000000
 41
0.000000
 42
0.000000
  0
VERTEX
  8
PIN_TOP
 10
1464.290500
 20
627.995000
 40
0.000000
 41
0.000000
 42
0.000000
  0
SEQEND
  0
POLYLINE
  8
PIN_TOP
 66
1
 70
1
 40
0.000000
 41
0.000000
 39
0.000000
  0
VERTEX
  8
PIN_TOP
 10
1464.290500
 20
652.015000
 40
0.000000
 41
0.000000
 42
0.000000
  0
VERTEX
  8
PIN_TOP
 10
1425.711500
 20
652.015000
 40
0.000000
 41
0.000000
 42
0.000000
  0
VERTEX
  8
PIN_TOP
 10
1425.711500
 20
688.625000
 40
0.000000
 41
0.000000
 42
0.000000
  0
VERTEX
  8
PIN_TOP
 10
1464.290500
 20
688.625000
 40
0.000000
 41
0.000000
 42
0.000000
  0
SEQEND
  0
POLYLINE
  8
PG_SILKSCREEN_TOP
 66
1
 70
0
 40
0.000000
 41
0.000000
 39
0.000000
  0
VERTEX
  8
PG_SILKSCREEN_TOP
 10
1413.902000
 20
691.182000
 40
7.870000
 41
7.870000
 42
0.000000
  0
VERTEX
  8
PG_SILKSCREEN_TOP
 10
1413.902000
 20
655.749000
 40
7.870000
 41
7.870000
 42
0.000000
  0
SEQEND
  0
POLYLINE
  8
PG_SILKSCREEN_TOP
 66
1
 70
0
 40
0.000000
 41
0.000000
 39
0.000000
  0
VERTEX
  8
PG_SILKSCREEN_TOP
 10
1421.501000
 20
699.060000
 40
7.870000
 41
7.870000
 42
0.000000
  0
VERTEX
  8
PG_SILKSCREEN_TOP
 10
1413.902000
 20
691.182000
 40
7.870000
 41
7.870000
 42
0.000000
  0
SEQEND
  0
POLYLINE
  8
PG_SILKSCREEN_TOP
 66
1
 70
0
 40
0.000000
 41
0.000000
 39
0.000000
  0
VERTEX
  8
PG_SILKSCREEN_TOP
 10
1468.501000
 20
699.060000
 40
7.870000
 41
7.870000
 42
0.000000
  0
VERTEX
  8
PG_SILKSCREEN_TOP
 10
1421.501000
 20
699.060000
 40
7.870000
 41
7.870000
 42
0.000000
  0
SEQEND
  0
POLYLINE
  8
PG_SILKSCREEN_TOP
 66
1
 70
0
 40
0.000000
 41
0.000000
 39
0.000000
  0
VERTEX
  8
PG_SILKSCREEN_TOP
 10
1476.099000
 20
691.182000
 40
7.870000
 41
7.870000
 42
0.000000
  0
VERTEX
  8
PG_SILKSCREEN_TOP
 10
1468.501000
 20
699.060000
 40
7.870000
 41
7.870000
 42
0.000000
  0
SEQEND
  0
POLYLINE
  8
PG_SILKSCREEN_TOP
 66
1
 70
0
 40
0.000000
 41
0.000000
 39
0.000000
  0
VERTEX
  8
PG_SILKSCREEN_TOP
 10
1476.099000
 20
655.749000
 40
7.870000
 41
7.870000
 42
0.000000
  0
VERTEX
  8
PG_SILKSCREEN_TOP
 10
1476.099000
 20
691.182000
 40
7.870000
 41
7.870000
 42
0.000000
  0
SEQEND
  0
POLYLINE
  8
PG_SILKSCREEN_TOP
 66
1
 70
0
 40
0.000000
 41
0.000000
 39
0.000000
  0
VERTEX
  8
PG_SILKSCREEN_TOP
 10
1413.902000
 20
579.571000
 40
7.870000
 41
7.870000
 42
0.000000
  0
VERTEX
  8
PG_SILKSCREEN_TOP
 10
1413.902000
 20
624.253000
 40
7.870000
 41
7.870000
 42
0.000000
  0
SEQEND
  0
POLYLINE
  8
PG_SILKSCREEN_TOP
 66
1
 70
0
 40
0.000000
 41
0.000000
 39
0.000000
  0
VERTEX
  8
PG_SILKSCREEN_TOP
 10
1476.099000
 20
579.571000
 40
7.870000
 41
7.870000
 42
0.000000
  0
VERTEX
  8
PG_SILKSCREEN_TOP
 10
1413.902000
 20
579.571000
 40
7.870000
 41
7.870000
 42
0.000000
  0
SEQEND
  0
POLYLINE
  8
PG_SILKSCREEN_TOP
 66
1
 70
0
 40
0.000000
 41
0.000000
 39
0.000000
  0
VERTEX
  8
PG_SILKSCREEN_TOP
 10
1476.099000
 20
624.253000
 40
7.870000
 41
7.870000
 42
0.000000
  0
VERTEX
  8
PG_SILKSCREEN_TOP
 10
1476.099000
 20
579.571000
 40
7.870000
 41
7.870000
 42
0.000000
  0
SEQEND
  0
POLYLINE
  8
PG_SILKSCREEN_TOP
 66
1
 70
1
 40
0.000000
 41
0.000000
 39
0.000000
  0
VERTEX
  8
PG_SILKSCREEN_TOP
 10
1468.619000
 20
707.906000
 40
0.000000
 41
0.000000
 42
0.000000
  0
VERTEX
  8
PG_SILKSCREEN_TOP
 10
1468.619000
 20
719.729000
 40
0.000000
 41
0.000000
 42
0.000000
  0
VERTEX
  8
PG_SILKSCREEN_TOP
 10
1421.383000
 20
719.729000
 40
0.000000
 41
0.000000
 42
0.000000
  0
VERTEX
  8
PG_SILKSCREEN_TOP
 10
1421.383000
 20
707.906000
 40
0.000000
 41
0.000000
 42
0.000000
  0
SEQEND
  0
TEXT
  8
RD_SILKSCREEN_TOP
 10
1381.000000
 20
730.000000
 11
0.000000
 21
0.000000
 40
30.000000
 41
0.866667
 50
0.000000
  7
STANDARD
 71
0
 72
0
  1
LED2
 73
0
  0
POLYLINE
  8
PIN_TOP
 66
1
 70
1
 40
0.000000
 41
0.000000
 39
0.000000
  0
VERTEX
  8
PIN_TOP
 10
1464.290500
 20
221.383000
 40
0.000000
 41
0.000000
 42
0.000000
  0
VERTEX
  8
PIN_TOP
 10
1425.711500
 20
221.383000
 40
0.000000
 41
0.000000
 42
0.000000
  0
VERTEX
  8
PIN_TOP
 10
1425.711500
 20
257.993000
 40
0.000000
 41
0.000000
 42
0.000000
  0
VERTEX
  8
PIN_TOP
 10
1464.290500
 20
257.993000
 40
0.000000
 41
0.000000
 42
0.000000
  0
SEQEND
  0
POLYLINE
  8
PIN_TOP
 66
1
 70
1
 40
0.000000
 41
0.000000
 39
0.000000
  0
VERTEX
  8
PIN_TOP
 10
1464.290500
 20
282.013000
 40
0.000000
 41
0.000000
 42
0.000000
  0
VERTEX
  8
PIN_TOP
 10
1425.711500
 20
282.013000
 40
0.000000
 41
0.000000
 42
0.000000
  0
VERTEX
  8
PIN_TOP
 10
1425.711500
 20
318.623000
 40
0.000000
 41
0.000000
 42
0.000000
  0
VERTEX
  8
PIN_TOP
 10
1464.290500
 20
318.623000
 40
0.000000
 41
0.000000
 42
0.000000
  0
SEQEND
  0
POLYLINE
  8
PG_SILKSCREEN_TOP
 66
1
 70
0
 40
0.000000
 41
0.000000
 39
0.000000
  0
VERTEX
  8
PG_SILKSCREEN_TOP
 10
1413.902000
 20
321.181000
 40
7.870000
 41
7.870000
 42
0.000000
  0
VERTEX
  8
PG_SILKSCREEN_TOP
 10
1413.902000
 20
285.747000
 40
7.870000
 41
7.870000
 42
0.000000
  0
SEQEND
  0
POLYLINE
  8
PG_SILKSCREEN_TOP
 66
1
 70
0
 40
0.000000
 41
0.000000
 39
0.000000
  0
VERTEX
  8
PG_SILKSCREEN_TOP
 10
1421.501000
 20
329.058000
 40
7.870000
 41
7.870000
 42
0.000000
  0
VERTEX
  8
PG_SILKSCREEN_TOP
 10
1413.902000
 20
321.181000
 40
7.870000
 41
7.870000
 42
0.000000
  0
SEQEND
  0
POLYLINE
  8
PG_SILKSCREEN_TOP
 66
1
 70
0
 40
0.000000
 41
0.000000
 39
0.000000
  0
VERTEX
  8
PG_SILKSCREEN_TOP
 10
1468.501000
 20
329.058000
 40
7.870000
 41
7.870000
 42
0.000000
  0
VERTEX
  8
PG_SILKSCREEN_TOP
 10
1421.501000
 20
329.058000
 40
7.870000
 41
7.870000
 42
0.000000
  0
SEQEND
  0
POLYLINE
  8
PG_SILKSCREEN_TOP
 66
1
 70
0
 40
0.000000
 41
0.000000
 39
0.000000
  0
VERTEX
  8
PG_SILKSCREEN_TOP
 10
1476.099000
 20
321.181000
 40
7.870000
 41
7.870000
 42
0.000000
  0
VERTEX
  8
PG_SILKSCREEN_TOP
 10
1468.501000
 20
329.058000
 40
7.870000
 41
7.870000
 42
0.000000
  0
SEQEND
  0
POLYLINE
  8
PG_SILKSCREEN_TOP
 66
1
 70
0
 40
0.000000
 41
0.000000
 39
0.000000
  0
VERTEX
  8
PG_SILKSCREEN_TOP
 10
1476.099000
 20
285.747000
 40
7.870000
 41
7.870000
 42
0.000000
  0
VERTEX
  8
PG_SILKSCREEN_TOP
 10
1476.099000
 20
321.181000
 40
7.870000
 41
7.870000
 42
0.000000
  0
SEQEND
  0
POLYLINE
  8
PG_SILKSCREEN_TOP
 66
1
 70
0
 40
0.000000
 41
0.000000
 39
0.000000
  0
VERTEX
  8
PG_SILKSCREEN_TOP
 10
1413.902000
 20
209.570000
 40
7.870000
 41
7.870000
 42
0.000000
  0
VERTEX
  8
PG_SILKSCREEN_TOP
 10
1413.902000
 20
254.251000
 40
7.870000
 41
7.870000
 42
0.000000
  0
SEQEND
  0
POLYLINE
  8
PG_SILKSCREEN_TOP
 66
1
 70
0
 40
0.000000
 41
0.000000
 39
0.000000
  0
VERTEX
  8
PG_SILKSCREEN_TOP
 10
1476.099000
 20
209.570000
 40
7.870000
 41
7.870000
 42
0.000000
  0
VERTEX
  8
PG_SILKSCREEN_TOP
 10
1413.902000
 20
209.570000
 40
7.870000
 41
7.870000
 42
0.000000
  0
SEQEND
  0
POLYLINE
  8
PG_SILKSCREEN_TOP
 66
1
 70
0
 40
0.000000
 41
0.000000
 39
0.000000
  0
VERTEX
  8
PG_SILKSCREEN_TOP
 10
1476.099000
 20
254.251000
 40
7.870000
 41
7.870000
 42
0.000000
  0
VERTEX
  8
PG_SILKSCREEN_TOP
 10
1476.099000
 20
209.570000
 40
7.870000
 41
7.870000
 42
0.000000
  0
SEQEND
  0
POLYLINE
  8
PG_SILKSCREEN_TOP
 66
1
 70
1
 40
0.000000
 41
0.000000
 39
0.000000
  0
VERTEX
  8
PG_SILKSCREEN_TOP
 10
1468.619000
 20
337.909000
 40
0.000000
 41
0.000000
 42
0.000000
  0
VERTEX
  8
PG_SILKSCREEN_TOP
 10
1468.619000
 20
349.728000
 40
0.000000
 41
0.000000
 42
0.000000
  0
VERTEX
  8
PG_SILKSCREEN_TOP
 10
1421.383000
 20
349.728000
 40
0.000000
 41
0.000000
 42
0.000000
  0
VERTEX
  8
PG_SILKSCREEN_TOP
 10
1421.383000
 20
337.909000
 40
0.000000
 41
0.000000
 42
0.000000
  0
SEQEND
  0
TEXT
  8
RD_SILKSCREEN_TOP
 10
1381.000000
 20
355.000000
 11
0.000000
 21
0.000000
 40
30.000000
 41
0.866667
 50
0.000000
  7
STANDARD
 71
0
 72
0
  1
LED4
 73
0
  0
POLYLINE
  8
PIN_TOP
 66
1
 70
1
 40
0.000000
 41
0.000000
 39
0.000000
  0
VERTEX
  8
PIN_TOP
 10
699.201000
 20
436.480000
 40
0.000000
 41
0.000000
 42
0.000000
  0
VERTEX
  8
PIN_TOP
 10
722.799000
 20
436.480000
 40
0.000000
 41
0.000000
 42
0.000000
  0
VERTEX
  8
PIN_TOP
 10
722.799000
 20
412.882000
 40
0.000000
 41
0.000000
 42
0.000000
  0
VERTEX
  8
PIN_TOP
 10
699.201000
 20
412.882000
 40
0.000000
 41
0.000000
 42
0.000000
  0
SEQEND
  0
POLYLINE
  8
PIN_TOP
 66
1
 70
1
 40
0.000000
 41
0.000000
 39
0.000000
  0
VERTEX
  8
PIN_TOP
 10
699.201000
 20
397.118000
 40
0.000000
 41
0.000000
 42
0.000000
  0
VERTEX
  8
PIN_TOP
 10
722.799000
 20
397.118000
 40
0.000000
 41
0.000000
 42
0.000000
  0
VERTEX
  8
PIN_TOP
 10
722.799000
 20
373.520000
 40
0.000000
 41
0.000000
 42
0.000000
  0
VERTEX
  8
PIN_TOP
 10
699.201000
 20
373.520000
 40
0.000000
 41
0.000000
 42
0.000000
  0
SEQEND
  0
POLYLINE
  8
PG_SILKSCREEN_TOP
 66
1
 70
0
 40
0.000000
 41
0.000000
 39
0.000000
  0
VERTEX
  8
PG_SILKSCREEN_TOP
 10
728.000000
 20
442.000000
 40
4.000000
 41
4.000000
 42
0.000000
  0
VERTEX
  8
PG_SILKSCREEN_TOP
 10
728.000000
 20
368.000000
 40
4.000000
 41
4.000000
 42
0.000000
  0
VERTEX
  8
PG_SILKSCREEN_TOP
 10
694.000000
 20
368.000000
 40
4.000000
 41
4.000000
 42
0.000000
  0
VERTEX
  8
PG_SILKSCREEN_TOP
 10
694.000000
 20
442.000000
 40
4.000000
 41
4.000000
 42
0.000000
  0
VERTEX
  8
PG_SILKSCREEN_TOP
 10
728.000000
 20
442.000000
 40
4.000000
 41
4.000000
 42
0.000000
  0
SEQEND
  0
TEXT
  8
RD_SILKSCREEN_TOP
 10
725.000000
 20
289.000000
 11
0.000000
 21
0.000000
 40
30.000000
 41
0.866667
 50
90.000000
  7
STANDARD
 71
0
 72
0
  1
C14
 73
0
  0
POLYLINE
  8
PIN_TOP
 66
1
 70
1
 40
0.000000
 41
0.000000
 39
0.000000
  0
VERTEX
  8
PIN_TOP
 10
722.799000
 20
468.520000
 40
0.000000
 41
0.000000
 42
0.000000
  0
VERTEX
  8
PIN_TOP
 10
699.201000
 20
468.520000
 40
0.000000
 41
0.000000
 42
0.000000
  0
VERTEX
  8
PIN_TOP
 10
699.201000
 20
492.118000
 40
0.000000
 41
0.000000
 42
0.000000
  0
VERTEX
  8
PIN_TOP
 10
722.799000
 20
492.118000
 40
0.000000
 41
0.000000
 42
0.000000
  0
SEQEND
  0
POLYLINE
  8
PIN_TOP
 66
1
 70
1
 40
0.000000
 41
0.000000
 39
0.000000
  0
VERTEX
  8
PIN_TOP
 10
722.799000
 20
507.882000
 40
0.000000
 41
0.000000
 42
0.000000
  0
VERTEX
  8
PIN_TOP
 10
699.201000
 20
507.882000
 40
0.000000
 41
0.000000
 42
0.000000
  0
VERTEX
  8
PIN_TOP
 10
699.201000
 20
531.480000
 40
0.000000
 41
0.000000
 42
0.000000
  0
VERTEX
  8
PIN_TOP
 10
722.799000
 20
531.480000
 40
0.000000
 41
0.000000
 42
0.000000
  0
SEQEND
  0
POLYLINE
  8
PG_SILKSCREEN_TOP
 66
1
 70
0
 40
0.000000
 41
0.000000
 39
0.000000
  0
VERTEX
  8
PG_SILKSCREEN_TOP
 10
694.000000
 20
463.000000
 40
4.000000
 41
4.000000
 42
0.000000
  0
VERTEX
  8
PG_SILKSCREEN_TOP
 10
694.000000
 20
537.000000
 40
4.000000
 41
4.000000
 42
0.000000
  0
VERTEX
  8
PG_SILKSCREEN_TOP
 10
728.000000
 20
537.000000
 40
4.000000
 41
4.000000
 42
0.000000
  0
VERTEX
  8
PG_SILKSCREEN_TOP
 10
728.000000
 20
463.000000
 40
4.000000
 41
4.000000
 42
0.000000
  0
VERTEX
  8
PG_SILKSCREEN_TOP
 10
694.000000
 20
463.000000
 40
4.000000
 41
4.000000
 42
0.000000
  0
SEQEND
  0
TEXT
  8
RD_SILKSCREEN_TOP
 10
725.000000
 20
544.000000
 11
0.000000
 21
0.000000
 40
30.000000
 41
0.866667
 50
90.000000
  7
STANDARD
 71
0
 72
0
  1
C13
 73
0
  0
POLYLINE
  8
PIN_TOP
 66
1
 70
1
 40
0.000000
 41
0.000000
 39
0.000000
  0
VERTEX
  8
PIN_TOP
 10
1221.799000
 20
468.520000
 40
0.000000
 41
0.000000
 42
0.000000
  0
VERTEX
  8
PIN_TOP
 10
1198.201000
 20
468.520000
 40
0.000000
 41
0.000000
 42
0.000000
  0
VERTEX
  8
PIN_TOP
 10
1198.201000
 20
492.118000
 40
0.000000
 41
0.000000
 42
0.000000
  0
VERTEX
  8
PIN_TOP
 10
1221.799000
 20
492.118000
 40
0.000000
 41
0.000000
 42
0.000000
  0
SEQEND
  0
POLYLINE
  8
PIN_TOP
 66
1
 70
1
 40
0.000000
 41
0.000000
 39
0.000000
  0
VERTEX
  8
PIN_TOP
 10
1221.799000
 20
507.882000
 40
0.000000
 41
0.000000
 42
0.000000
  0
VERTEX
  8
PIN_TOP
 10
1198.201000
 20
507.882000
 40
0.000000
 41
0.000000
 42
0.000000
  0
VERTEX
  8
PIN_TOP
 10
1198.201000
 20
531.480000
 40
0.000000
 41
0.000000
 42
0.000000
  0
VERTEX
  8
PIN_TOP
 10
1221.799000
 20
531.480000
 40
0.000000
 41
0.000000
 42
0.000000
  0
SEQEND
  0
POLYLINE
  8
PG_SILKSCREEN_TOP
 66
1
 70
0
 40
0.000000
 41
0.000000
 39
0.000000
  0
VERTEX
  8
PG_SILKSCREEN_TOP
 10
1193.000000
 20
463.000000
 40
4.000000
 41
4.000000
 42
0.000000
  0
VERTEX
  8
PG_SILKSCREEN_TOP
 10
1193.000000
 20
537.000000
 40
4.000000
 41
4.000000
 42
0.000000
  0
VERTEX
  8
PG_SILKSCREEN_TOP
 10
1227.000000
 20
537.000000
 40
4.000000
 41
4.000000
 42
0.000000
  0
VERTEX
  8
PG_SILKSCREEN_TOP
 10
1227.000000
 20
463.000000
 40
4.000000
 41
4.000000
 42
0.000000
  0
VERTEX
  8
PG_SILKSCREEN_TOP
 10
1193.000000
 20
463.000000
 40
4.000000
 41
4.000000
 42
0.000000
  0
SEQEND
  0
TEXT
  8
RD_SILKSCREEN_TOP
 10
1185.000000
 20
477.000000
 11
0.000000
 21
0.000000
 40
30.000000
 41
0.866667
 50
90.000000
  7
STANDARD
 71
0
 72
0
  1
C9
 73
0
  0
POLYLINE
  8
PIN_TOP
 66
1
 70
1
 40
0.000000
 41
0.000000
 39
0.000000
  0
VERTEX
  8
PIN_TOP
 10
1198.201000
 20
436.480000
 40
0.000000
 41
0.000000
 42
0.000000
  0
VERTEX
  8
PIN_TOP
 10
1221.799000
 20
436.480000
 40
0.000000
 41
0.000000
 42
0.000000
  0
VERTEX
  8
PIN_TOP
 10
1221.799000
 20
412.882000
 40
0.000000
 41
0.000000
 42
0.000000
  0
VERTEX
  8
PIN_TOP
 10
1198.201000
 20
412.882000
 40
0.000000
 41
0.000000
 42
0.000000
  0
SEQEND
  0
POLYLINE
  8
PIN_TOP
 66
1
 70
1
 40
0.000000
 41
0.000000
 39
0.000000
  0
VERTEX
  8
PIN_TOP
 10
1198.201000
 20
397.118000
 40
0.000000
 41
0.000000
 42
0.000000
  0
VERTEX
  8
PIN_TOP
 10
1221.799000
 20
397.118000
 40
0.000000
 41
0.000000
 42
0.000000
  0
VERTEX
  8
PIN_TOP
 10
1221.799000
 20
373.520000
 40
0.000000
 41
0.000000
 42
0.000000
  0
VERTEX
  8
PIN_TOP
 10
1198.201000
 20
373.520000
 40
0.000000
 41
0.000000
 42
0.000000
  0
SEQEND
  0
POLYLINE
  8
PG_SILKSCREEN_TOP
 66
1
 70
0
 40
0.000000
 41
0.000000
 39
0.000000
  0
VERTEX
  8
PG_SILKSCREEN_TOP
 10
1227.000000
 20
442.000000
 40
4.000000
 41
4.000000
 42
0.000000
  0
VERTEX
  8
PG_SILKSCREEN_TOP
 10
1227.000000
 20
368.000000
 40
4.000000
 41
4.000000
 42
0.000000
  0
VERTEX
  8
PG_SILKSCREEN_TOP
 10
1193.000000
 20
368.000000
 40
4.000000
 41
4.000000
 42
0.000000
  0
VERTEX
  8
PG_SILKSCREEN_TOP
 10
1193.000000
 20
442.000000
 40
4.000000
 41
4.000000
 42
0.000000
  0
VERTEX
  8
PG_SILKSCREEN_TOP
 10
1227.000000
 20
442.000000
 40
4.000000
 41
4.000000
 42
0.000000
  0
SEQEND
  0
TEXT
  8
RD_SILKSCREEN_TOP
 10
1185.000000
 20
377.000000
 11
0.000000
 21
0.000000
 40
30.000000
 41
0.866667
 50
90.000000
  7
STANDARD
 71
0
 72
0
  1
C8
 73
0
  0
POLYLINE
  8
PIN_TOP
 66
1
 70
1
 40
0.000000
 41
0.000000
 39
0.000000
  0
VERTEX
  8
PIN_TOP
 10
533.520000
 20
598.201000
 40
0.000000
 41
0.000000
 42
0.000000
  0
VERTEX
  8
PIN_TOP
 10
533.520000
 20
621.799000
 40
0.000000
 41
0.000000
 42
0.000000
  0
VERTEX
  8
PIN_TOP
 10
557.118000
 20
621.799000
 40
0.000000
 41
0.000000
 42
0.000000
  0
VERTEX
  8
PIN_TOP
 10
557.118000
 20
598.201000
 40
0.000000
 41
0.000000
 42
0.000000
  0
SEQEND
  0
POLYLINE
  8
PIN_TOP
 66
1
 70
1
 40
0.000000
 41
0.000000
 39
0.000000
  0
VERTEX
  8
PIN_TOP
 10
572.882000
 20
598.201000
 40
0.000000
 41
0.000000
 42
0.000000
  0
VERTEX
  8
PIN_TOP
 10
572.882000
 20
621.799000
 40
0.000000
 41
0.000000
 42
0.000000
  0
VERTEX
  8
PIN_TOP
 10
596.480000
 20
621.799000
 40
0.000000
 41
0.000000
 42
0.000000
  0
VERTEX
  8
PIN_TOP
 10
596.480000
 20
598.201000
 40
0.000000
 41
0.000000
 42
0.000000
  0
SEQEND
  0
POLYLINE
  8
PG_SILKSCREEN_TOP
 66
1
 70
0
 40
0.000000
 41
0.000000
 39
0.000000
  0
VERTEX
  8
PG_SILKSCREEN_TOP
 10
528.000000
 20
627.000000
 40
4.000000
 41
4.000000
 42
0.000000
  0
VERTEX
  8
PG_SILKSCREEN_TOP
 10
602.000000
 20
627.000000
 40
4.000000
 41
4.000000
 42
0.000000
  0
VERTEX
  8
PG_SILKSCREEN_TOP
 10
602.000000
 20
593.000000
 40
4.000000
 41
4.000000
 42
0.000000
  0
VERTEX
  8
PG_SILKSCREEN_TOP
 10
528.000000
 20
593.000000
 40
4.000000
 41
4.000000
 42
0.000000
  0
VERTEX
  8
PG_SILKSCREEN_TOP
 10
528.000000
 20
627.000000
 40
4.000000
 41
4.000000
 42
0.000000
  0
SEQEND
  0
TEXT
  8
RD_SILKSCREEN_TOP
 10
542.000000
 20
710.000000
 11
0.000000
 21
0.000000
 40
30.000000
 41
0.866667
 50
0.000000
  7
STANDARD
 71
0
 72
0
  1
C4
 73
0
  0
POLYLINE
  8
PIN_TOP
 66
1
 70
1
 40
0.000000
 41
0.000000
 39
0.000000
  0
VERTEX
  8
PIN_TOP
 10
1493.201000
 20
611.480000
 40
0.000000
 41
0.000000
 42
0.000000
  0
VERTEX
  8
PIN_TOP
 10
1516.799000
 20
611.480000
 40
0.000000
 41
0.000000
 42
0.000000
  0
VERTEX
  8
PIN_TOP
 10
1516.799000
 20
587.882000
 40
0.000000
 41
0.000000
 42
0.000000
  0
VERTEX
  8
PIN_TOP
 10
1493.201000
 20
587.882000
 40
0.000000
 41
0.000000
 42
0.000000
  0
SEQEND
  0
POLYLINE
  8
PIN_TOP
 66
1
 70
1
 40
0.000000
 41
0.000000
 39
0.000000
  0
VERTEX
  8
PIN_TOP
 10
1493.201000
 20
572.118000
 40
0.000000
 41
0.000000
 42
0.000000
  0
VERTEX
  8
PIN_TOP
 10
1516.799000
 20
572.118000
 40
0.000000
 41
0.000000
 42
0.000000
  0
VERTEX
  8
PIN_TOP
 10
1516.799000
 20
548.520000
 40
0.000000
 41
0.000000
 42
0.000000
  0
VERTEX
  8
PIN_TOP
 10
1493.201000
 20
548.520000
 40
0.000000
 41
0.000000
 42
0.000000
  0
SEQEND
  0
POLYLINE
  8
PG_SILKSCREEN_TOP
 66
1
 70
0
 40
0.000000
 41
0.000000
 39
0.000000
  0
VERTEX
  8
PG_SILKSCREEN_TOP
 10
1522.000000
 20
617.000000
 40
4.000000
 41
4.000000
 42
0.000000
  0
VERTEX
  8
PG_SILKSCREEN_TOP
 10
1522.000000
 20
543.000000
 40
4.000000
 41
4.000000
 42
0.000000
  0
VERTEX
  8
PG_SILKSCREEN_TOP
 10
1488.000000
 20
543.000000
 40
4.000000
 41
4.000000
 42
0.000000
  0
VERTEX
  8
PG_SILKSCREEN_TOP
 10
1488.000000
 20
617.000000
 40
4.000000
 41
4.000000
 42
0.000000
  0
VERTEX
  8
PG_SILKSCREEN_TOP
 10
1522.000000
 20
617.000000
 40
4.000000
 41
4.000000
 42
0.000000
  0
SEQEND
  0
TEXT
  8
RD_SILKSCREEN_TOP
 10
1504.000000
 20
710.000000
 11
0.000000
 21
0.000000
 40
30.000000
 41
0.866667
 50
0.000000
  7
STANDARD
 71
0
 72
0
  1
C11
 73
0
  0
POLYLINE
  8
PIN_TOP
 66
1
 70
1
 40
0.000000
 41
0.000000
 39
0.000000
  0
VERTEX
  8
PIN_TOP
 10
1493.201000
 20
271.480000
 40
0.000000
 41
0.000000
 42
0.000000
  0
VERTEX
  8
PIN_TOP
 10
1516.799000
 20
271.480000
 40
0.000000
 41
0.000000
 42
0.000000
  0
VERTEX
  8
PIN_TOP
 10
1516.799000
 20
247.882000
 40
0.000000
 41
0.000000
 42
0.000000
  0
VERTEX
  8
PIN_TOP
 10
1493.201000
 20
247.882000
 40
0.000000
 41
0.000000
 42
0.000000
  0
SEQEND
  0
POLYLINE
  8
PIN_TOP
 66
1
 70
1
 40
0.000000
 41
0.000000
 39
0.000000
  0
VERTEX
  8
PIN_TOP
 10
1493.201000
 20
232.118000
 40
0.000000
 41
0.000000
 42
0.000000
  0
VERTEX
  8
PIN_TOP
 10
1516.799000
 20
232.118000
 40
0.000000
 41
0.000000
 42
0.000000
  0
VERTEX
  8
PIN_TOP
 10
1516.799000
 20
208.520000
 40
0.000000
 41
0.000000
 42
0.000000
  0
VERTEX
  8
PIN_TOP
 10
1493.201000
 20
208.520000
 40
0.000000
 41
0.000000
 42
0.000000
  0
SEQEND
  0
POLYLINE
  8
PG_SILKSCREEN_TOP
 66
1
 70
0
 40
0.000000
 41
0.000000
 39
0.000000
  0
VERTEX
  8
PG_SILKSCREEN_TOP
 10
1522.000000
 20
277.000000
 40
4.000000
 41
4.000000
 42
0.000000
  0
VERTEX
  8
PG_SILKSCREEN_TOP
 10
1522.000000
 20
203.000000
 40
4.000000
 41
4.000000
 42
0.000000
  0
VERTEX
  8
PG_SILKSCREEN_TOP
 10
1488.000000
 20
203.000000
 40
4.000000
 41
4.000000
 42
0.000000
  0
VERTEX
  8
PG_SILKSCREEN_TOP
 10
1488.000000
 20
277.000000
 40
4.000000
 41
4.000000
 42
0.000000
  0
VERTEX
  8
PG_SILKSCREEN_TOP
 10
1522.000000
 20
277.000000
 40
4.000000
 41
4.000000
 42
0.000000
  0
SEQEND
  0
TEXT
  8
RD_SILKSCREEN_TOP
 10
1469.000000
 20
130.000000
 11
0.000000
 21
0.000000
 40
30.000000
 41
0.866667
 50
0.000000
  7
STANDARD
 71
0
 72
0
  1
C12
 73
0
  0
POLYLINE
  8
PIN_TOP
 66
1
 70
1
 40
0.000000
 41
0.000000
 39
0.000000
  0
VERTEX
  8
PIN_TOP
 10
1516.799000
 20
463.520000
 40
0.000000
 41
0.000000
 42
0.000000
  0
VERTEX
  8
PIN_TOP
 10
1493.201000
 20
463.520000
 40
0.000000
 41
0.000000
 42
0.000000
  0
VERTEX
  8
PIN_TOP
 10
1493.201000
 20
487.118000
 40
0.000000
 41
0.000000
 42
0.000000
  0
VERTEX
  8
PIN_TOP
 10
1516.799000
 20
487.118000
 40
0.000000
 41
0.000000
 42
0.000000
  0
SEQEND
  0
POLYLINE
  8
PIN_TOP
 66
1
 70
1
 40
0.000000
 41
0.000000
 39
0.000000
  0
VERTEX
  8
PIN_TOP
 10
1516.799000
 20
502.882000
 40
0.000000
 41
0.000000
 42
0.000000
  0
VERTEX
  8
PIN_TOP
 10
1493.201000
 20
502.882000
 40
0.000000
 41
0.000000
 42
0.000000
  0
VERTEX
  8
PIN_TOP
 10
1493.201000
 20
526.480000
 40
0.000000
 41
0.000000
 42
0.000000
  0
VERTEX
  8
PIN_TOP
 10
1516.799000
 20
526.480000
 40
0.000000
 41
0.000000
 42
0.000000
  0
SEQEND
  0
POLYLINE
  8
PG_SILKSCREEN_TOP
 66
1
 70
0
 40
0.000000
 41
0.000000
 39
0.000000
  0
VERTEX
  8
PG_SILKSCREEN_TOP
 10
1488.000000
 20
458.000000
 40
4.000000
 41
4.000000
 42
0.000000
  0
VERTEX
  8
PG_SILKSCREEN_TOP
 10
1488.000000
 20
532.000000
 40
4.000000
 41
4.000000
 42
0.000000
  0
VERTEX
  8
PG_SILKSCREEN_TOP
 10
1522.000000
 20
532.000000
 40
4.000000
 41
4.000000
 42
0.000000
  0
VERTEX
  8
PG_SILKSCREEN_TOP
 10
1522.000000
 20
458.000000
 40
4.000000
 41
4.000000
 42
0.000000
  0
VERTEX
  8
PG_SILKSCREEN_TOP
 10
1488.000000
 20
458.000000
 40
4.000000
 41
4.000000
 42
0.000000
  0
SEQEND
  0
TEXT
  8
RD_SILKSCREEN_TOP
 10
1539.000000
 20
530.000000
 11
0.000000
 21
0.000000
 40
30.000000
 41
0.866667
 50
0.000000
  7
STANDARD
 71
0
 72
0
  1
C10
 73
0
  0
POLYLINE
  8
PIN_TOP
 66
1
 70
1
 40
0.000000
 41
0.000000
 39
0.000000
  0
VERTEX
  8
PIN_TOP
 10
1188.520000
 20
328.201000
 40
0.000000
 41
0.000000
 42
0.000000
  0
VERTEX
  8
PIN_TOP
 10
1188.520000
 20
351.799000
 40
0.000000
 41
0.000000
 42
0.000000
  0
VERTEX
  8
PIN_TOP
 10
1212.118000
 20
351.799000
 40
0.000000
 41
0.000000
 42
0.000000
  0
VERTEX
  8
PIN_TOP
 10
1212.118000
 20
328.201000
 40
0.000000
 41
0.000000
 42
0.000000
  0
SEQEND
  0
POLYLINE
  8
PIN_TOP
 66
1
 70
1
 40
0.000000
 41
0.000000
 39
0.000000
  0
VERTEX
  8
PIN_TOP
 10
1227.882000
 20
328.201000
 40
0.000000
 41
0.000000
 42
0.000000
  0
VERTEX
  8
PIN_TOP
 10
1227.882000
 20
351.799000
 40
0.000000
 41
0.000000
 42
0.000000
  0
VERTEX
  8
PIN_TOP
 10
1251.480000
 20
351.799000
 40
0.000000
 41
0.000000
 42
0.000000
  0
VERTEX
  8
PIN_TOP
 10
1251.480000
 20
328.201000
 40
0.000000
 41
0.000000
 42
0.000000
  0
SEQEND
  0
POLYLINE
  8
PG_SILKSCREEN_TOP
 66
1
 70
0
 40
0.000000
 41
0.000000
 39
0.000000
  0
VERTEX
  8
PG_SILKSCREEN_TOP
 10
1183.000000
 20
357.000000
 40
4.000000
 41
4.000000
 42
0.000000
  0
VERTEX
  8
PG_SILKSCREEN_TOP
 10
1257.000000
 20
357.000000
 40
4.000000
 41
4.000000
 42
0.000000
  0
VERTEX
  8
PG_SILKSCREEN_TOP
 10
1257.000000
 20
323.000000
 40
4.000000
 41
4.000000
 42
0.000000
  0
VERTEX
  8
PG_SILKSCREEN_TOP
 10
1183.000000
 20
323.000000
 40
4.000000
 41
4.000000
 42
0.000000
  0
VERTEX
  8
PG_SILKSCREEN_TOP
 10
1183.000000
 20
357.000000
 40
4.000000
 41
4.000000
 42
0.000000
  0
SEQEND
  0
TEXT
  8
RD_SILKSCREEN_TOP
 10
1197.000000
 20
280.000000
 11
0.000000
 21
0.000000
 40
30.000000
 41
0.866667
 50
0.000000
  7
STANDARD
 71
0
 72
0
  1
C7
 73
0
  0
POLYLINE
  8
PIN_TOP
 66
1
 70
1
 40
0.000000
 41
0.000000
 39
0.000000
  0
VERTEX
  8
PIN_TOP
 10
533.520000
 20
298.201000
 40
0.000000
 41
0.000000
 42
0.000000
  0
VERTEX
  8
PIN_TOP
 10
533.520000
 20
321.799000
 40
0.000000
 41
0.000000
 42
0.000000
  0
VERTEX
  8
PIN_TOP
 10
557.118000
 20
321.799000
 40
0.000000
 41
0.000000
 42
0.000000
  0
VERTEX
  8
PIN_TOP
 10
557.118000
 20
298.201000
 40
0.000000
 41
0.000000
 42
0.000000
  0
SEQEND
  0
POLYLINE
  8
PIN_TOP
 66
1
 70
1
 40
0.000000
 41
0.000000
 39
0.000000
  0
VERTEX
  8
PIN_TOP
 10
572.882000
 20
298.201000
 40
0.000000
 41
0.000000
 42
0.000000
  0
VERTEX
  8
PIN_TOP
 10
572.882000
 20
321.799000
 40
0.000000
 41
0.000000
 42
0.000000
  0
VERTEX
  8
PIN_TOP
 10
596.480000
 20
321.799000
 40
0.000000
 41
0.000000
 42
0.000000
  0
VERTEX
  8
PIN_TOP
 10
596.480000
 20
298.201000
 40
0.000000
 41
0.000000
 42
0.000000
  0
SEQEND
  0
POLYLINE
  8
PG_SILKSCREEN_TOP
 66
1
 70
0
 40
0.000000
 41
0.000000
 39
0.000000
  0
VERTEX
  8
PG_SILKSCREEN_TOP
 10
528.000000
 20
327.000000
 40
4.000000
 41
4.000000
 42
0.000000
  0
VERTEX
  8
PG_SILKSCREEN_TOP
 10
602.000000
 20
327.000000
 40
4.000000
 41
4.000000
 42
0.000000
  0
VERTEX
  8
PG_SILKSCREEN_TOP
 10
602.000000
 20
293.000000
 40
4.000000
 41
4.000000
 42
0.000000
  0
VERTEX
  8
PG_SILKSCREEN_TOP
 10
528.000000
 20
293.000000
 40
4.000000
 41
4.000000
 42
0.000000
  0
VERTEX
  8
PG_SILKSCREEN_TOP
 10
528.000000
 20
327.000000
 40
4.000000
 41
4.000000
 42
0.000000
  0
SEQEND
  0
TEXT
  8
RD_SILKSCREEN_TOP
 10
542.000000
 20
258.000000
 11
0.000000
 21
0.000000
 40
30.000000
 41
0.866667
 50
0.000000
  7
STANDARD
 71
0
 72
0
  1
C6
 73
0
  0
POLYLINE
  8
PIN_TOP
 66
1
 70
1
 40
0.000000
 41
0.000000
 39
0.000000
  0
VERTEX
  8
PIN_TOP
 10
533.520000
 20
663.201000
 40
0.000000
 41
0.000000
 42
0.000000
  0
VERTEX
  8
PIN_TOP
 10
533.520000
 20
686.799000
 40
0.000000
 41
0.000000
 42
0.000000
  0
VERTEX
  8
PIN_TOP
 10
557.118000
 20
686.799000
 40
0.000000
 41
0.000000
 42
0.000000
  0
VERTEX
  8
PIN_TOP
 10
557.118000
 20
663.201000
 40
0.000000
 41
0.000000
 42
0.000000
  0
SEQEND
  0
POLYLINE
  8
PIN_TOP
 66
1
 70
1
 40
0.000000
 41
0.000000
 39
0.000000
  0
VERTEX
  8
PIN_TOP
 10
572.882000
 20
663.201000
 40
0.000000
 41
0.000000
 42
0.000000
  0
VERTEX
  8
PIN_TOP
 10
572.882000
 20
686.799000
 40
0.000000
 41
0.000000
 42
0.000000
  0
VERTEX
  8
PIN_TOP
 10
596.480000
 20
686.799000
 40
0.000000
 41
0.000000
 42
0.000000
  0
VERTEX
  8
PIN_TOP
 10
596.480000
 20
663.201000
 40
0.000000
 41
0.000000
 42
0.000000
  0
SEQEND
  0
POLYLINE
  8
PG_SILKSCREEN_TOP
 66
1
 70
0
 40
0.000000
 41
0.000000
 39
0.000000
  0
VERTEX
  8
PG_SILKSCREEN_TOP
 10
528.000000
 20
692.000000
 40
4.000000
 41
4.000000
 42
0.000000
  0
VERTEX
  8
PG_SILKSCREEN_TOP
 10
602.000000
 20
692.000000
 40
4.000000
 41
4.000000
 42
0.000000
  0
VERTEX
  8
PG_SILKSCREEN_TOP
 10
602.000000
 20
658.000000
 40
4.000000
 41
4.000000
 42
0.000000
  0
VERTEX
  8
PG_SILKSCREEN_TOP
 10
528.000000
 20
658.000000
 40
4.000000
 41
4.000000
 42
0.000000
  0
VERTEX
  8
PG_SILKSCREEN_TOP
 10
528.000000
 20
692.000000
 40
4.000000
 41
4.000000
 42
0.000000
  0
SEQEND
  0
TEXT
  8
RD_SILKSCREEN_TOP
 10
542.000000
 20
745.000000
 11
0.000000
 21
0.000000
 40
30.000000
 41
0.866667
 50
0.000000
  7
STANDARD
 71
0
 72
0
  1
C1
 73
0
  0
POLYLINE
  8
PIN_TOP
 66
1
 70
1
 40
0.000000
 41
0.000000
 39
0.000000
  0
VERTEX
  8
PIN_TOP
 10
439.250000
 20
325.750000
 40
0.000000
 41
0.000000
 42
0.000000
  0
VERTEX
  8
PIN_TOP
 10
439.250000
 20
294.250000
 40
0.000000
 41
0.000000
 42
0.000000
  0
VERTEX
  8
PIN_TOP
 10
407.750000
 20
294.250000
 40
0.000000
 41
0.000000
 42
0.000000
  0
VERTEX
  8
PIN_TOP
 10
407.750000
 20
325.750000
 40
0.000000
 41
0.000000
 42
0.000000
  0
SEQEND
  0
POLYLINE
  8
PIN_TOP
 66
1
 70
1
 40
0.000000
 41
0.000000
 39
0.000000
  0
VERTEX
  8
PIN_TOP
 10
502.250000
 20
325.750000
 40
0.000000
 41
0.000000
 42
0.000000
  0
VERTEX
  8
PIN_TOP
 10
502.250000
 20
294.250000
 40
0.000000
 41
0.000000
 42
0.000000
  0
VERTEX
  8
PIN_TOP
 10
470.750000
 20
294.250000
 40
0.000000
 41
0.000000
 42
0.000000
  0
VERTEX
  8
PIN_TOP
 10
470.750000
 20
325.750000
 40
0.000000
 41
0.000000
 42
0.000000
  0
SEQEND
  0
POLYLINE
  8
PG_SILKSCREEN_TOP
 66
1
 70
0
 40
0.000000
 41
0.000000
 39
0.000000
  0
VERTEX
  8
PG_SILKSCREEN_TOP
 10
465.000000
 20
335.000000
 40
5.000000
 41
5.000000
 42
0.000000
  0
VERTEX
  8
PG_SILKSCREEN_TOP
 10
510.000000
 20
335.000000
 40
5.000000
 41
5.000000
 42
0.000000
  0
VERTEX
  8
PG_SILKSCREEN_TOP
 10
510.000000
 20
285.000000
 40
5.000000
 41
5.000000
 42
0.000000
  0
SEQEND
  0
POLYLINE
  8
PG_SILKSCREEN_TOP
 66
1
 70
0
 40
0.000000
 41
0.000000
 39
0.000000
  0
VERTEX
  8
PG_SILKSCREEN_TOP
 10
445.000000
 20
285.000000
 40
5.000000
 41
5.000000
 42
0.000000
  0
VERTEX
  8
PG_SILKSCREEN_TOP
 10
400.000000
 20
285.000000
 40
5.000000
 41
5.000000
 42
0.000000
  0
VERTEX
  8
PG_SILKSCREEN_TOP
 10
400.000000
 20
335.000000
 40
5.000000
 41
5.000000
 42
0.000000
  0
VERTEX
  8
PG_SILKSCREEN_TOP
 10
445.000000
 20
335.000000
 40
5.000000
 41
5.000000
 42
0.000000
  0
SEQEND
  0
POLYLINE
  8
PG_SILKSCREEN_TOP
 66
1
 70
0
 40
0.000000
 41
0.000000
 39
0.000000
  0
VERTEX
  8
PG_SILKSCREEN_TOP
 10
510.000000
 20
285.000000
 40
5.000000
 41
5.000000
 42
0.000000
  0
VERTEX
  8
PG_SILKSCREEN_TOP
 10
465.000000
 20
285.000000
 40
5.000000
 41
5.000000
 42
0.000000
  0
SEQEND
  0
TEXT
  8
RD_SILKSCREEN_TOP
 10
337.000000
 20
265.000000
 11
0.000000
 21
0.000000
 40
30.000000
 41
0.866667
 50
0.000000
  7
STANDARD
 71
0
 72
0
  1
C5
 73
0
  0
POLYLINE
  8
PIN_TOP
 66
1
 70
1
 40
0.000000
 41
0.000000
 39
0.000000
  0
VERTEX
  8
PIN_TOP
 10
439.250000
 20
690.750000
 40
0.000000
 41
0.000000
 42
0.000000
  0
VERTEX
  8
PIN_TOP
 10
439.250000
 20
659.250000
 40
0.000000
 41
0.000000
 42
0.000000
  0
VERTEX
  8
PIN_TOP
 10
407.750000
 20
659.250000
 40
0.000000
 41
0.000000
 42
0.000000
  0
VERTEX
  8
PIN_TOP
 10
407.750000
 20
690.750000
 40
0.000000
 41
0.000000
 42
0.000000
  0
SEQEND
  0
POLYLINE
  8
PIN_TOP
 66
1
 70
1
 40
0.000000
 41
0.000000
 39
0.000000
  0
VERTEX
  8
PIN_TOP
 10
502.250000
 20
690.750000
 40
0.000000
 41
0.000000
 42
0.000000
  0
VERTEX
  8
PIN_TOP
 10
502.250000
 20
659.250000
 40
0.000000
 41
0.000000
 42
0.000000
  0
VERTEX
  8
PIN_TOP
 10
470.750000
 20
659.250000
 40
0.000000
 41
0.000000
 42
0.000000
  0
VERTEX
  8
PIN_TOP
 10
470.750000
 20
690.750000
 40
0.000000
 41
0.000000
 42
0.000000
  0
SEQEND
  0
POLYLINE
  8
PG_SILKSCREEN_TOP
 66
1
 70
0
 40
0.000000
 41
0.000000
 39
0.000000
  0
VERTEX
  8
PG_SILKSCREEN_TOP
 10
465.000000
 20
700.000000
 40
5.000000
 41
5.000000
 42
0.000000
  0
VERTEX
  8
PG_SILKSCREEN_TOP
 10
510.000000
 20
700.000000
 40
5.000000
 41
5.000000
 42
0.000000
  0
VERTEX
  8
PG_SILKSCREEN_TOP
 10
510.000000
 20
650.000000
 40
5.000000
 41
5.000000
 42
0.000000
  0
SEQEND
  0
POLYLINE
  8
PG_SILKSCREEN_TOP
 66
1
 70
0
 40
0.000000
 41
0.000000
 39
0.000000
  0
VERTEX
  8
PG_SILKSCREEN_TOP
 10
445.000000
 20
650.000000
 40
5.000000
 41
5.000000
 42
0.000000
  0
VERTEX
  8
PG_SILKSCREEN_TOP
 10
400.000000
 20
650.000000
 40
5.000000
 41
5.000000
 42
0.000000
  0
VERTEX
  8
PG_SILKSCREEN_TOP
 10
400.000000
 20
700.000000
 40
5.000000
 41
5.000000
 42
0.000000
  0
VERTEX
  8
PG_SILKSCREEN_TOP
 10
445.000000
 20
700.000000
 40
5.000000
 41
5.000000
 42
0.000000
  0
SEQEND
  0
POLYLINE
  8
PG_SILKSCREEN_TOP
 66
1
 70
0
 40
0.000000
 41
0.000000
 39
0.000000
  0
VERTEX
  8
PG_SILKSCREEN_TOP
 10
510.000000
 20
650.000000
 40
5.000000
 41
5.000000
 42
0.000000
  0
VERTEX
  8
PG_SILKSCREEN_TOP
 10
465.000000
 20
650.000000
 40
5.000000
 41
5.000000
 42
0.000000
  0
SEQEND
  0
TEXT
  8
RD_SILKSCREEN_TOP
 10
432.000000
 20
710.000000
 11
0.000000
 21
0.000000
 40
30.000000
 41
0.866667
 50
0.000000
  7
STANDARD
 71
0
 72
0
  1
C2
 73
0
  0
POLYLINE
  8
PIN_TOP
 66
1
 70
1
 40
0.000000
 41
0.000000
 39
0.000000
  0
VERTEX
  8
PIN_TOP
 10
439.250000
 20
625.750000
 40
0.000000
 41
0.000000
 42
0.000000
  0
VERTEX
  8
PIN_TOP
 10
439.250000
 20
594.250000
 40
0.000000
 41
0.000000
 42
0.000000
  0
VERTEX
  8
PIN_TOP
 10
407.750000
 20
594.250000
 40
0.000000
 41
0.000000
 42
0.000000
  0
VERTEX
  8
PIN_TOP
 10
407.750000
 20
625.750000
 40
0.000000
 41
0.000000
 42
0.000000
  0
SEQEND
  0
POLYLINE
  8
PIN_TOP
 66
1
 70
1
 40
0.000000
 41
0.000000
 39
0.000000
  0
VERTEX
  8
PIN_TOP
 10
502.250000
 20
625.750000
 40
0.000000
 41
0.000000
 42
0.000000
  0
VERTEX
  8
PIN_TOP
 10
502.250000
 20
594.250000
 40
0.000000
 41
0.000000
 42
0.000000
  0
VERTEX
  8
PIN_TOP
 10
470.750000
 20
594.250000
 40
0.000000
 41
0.000000
 42
0.000000
  0
VERTEX
  8
PIN_TOP
 10
470.750000
 20
625.750000
 40
0.000000
 41
0.000000
 42
0.000000
  0
SEQEND
  0
POLYLINE
  8
PG_SILKSCREEN_TOP
 66
1
 70
0
 40
0.000000
 41
0.000000
 39
0.000000
  0
VERTEX
  8
PG_SILKSCREEN_TOP
 10
465.000000
 20
635.000000
 40
5.000000
 41
5.000000
 42
0.000000
  0
VERTEX
  8
PG_SILKSCREEN_TOP
 10
510.000000
 20
635.000000
 40
5.000000
 41
5.000000
 42
0.000000
  0
VERTEX
  8
PG_SILKSCREEN_TOP
 10
510.000000
 20
585.000000
 40
5.000000
 41
5.000000
 42
0.000000
  0
SEQEND
  0
POLYLINE
  8
PG_SILKSCREEN_TOP
 66
1
 70
0
 40
0.000000
 41
0.000000
 39
0.000000
  0
VERTEX
  8
PG_SILKSCREEN_TOP
 10
445.000000
 20
585.000000
 40
5.000000
 41
5.000000
 42
0.000000
  0
VERTEX
  8
PG_SILKSCREEN_TOP
 10
400.000000
 20
585.000000
 40
5.000000
 41
5.000000
 42
0.000000
  0
VERTEX
  8
PG_SILKSCREEN_TOP
 10
400.000000
 20
635.000000
 40
5.000000
 41
5.000000
 42
0.000000
  0
VERTEX
  8
PG_SILKSCREEN_TOP
 10
445.000000
 20
635.000000
 40
5.000000
 41
5.000000
 42
0.000000
  0
SEQEND
  0
POLYLINE
  8
PG_SILKSCREEN_TOP
 66
1
 70
0
 40
0.000000
 41
0.000000
 39
0.000000
  0
VERTEX
  8
PG_SILKSCREEN_TOP
 10
510.000000
 20
585.000000
 40
5.000000
 41
5.000000
 42
0.000000
  0
VERTEX
  8
PG_SILKSCREEN_TOP
 10
465.000000
 20
585.000000
 40
5.000000
 41
5.000000
 42
0.000000
  0
SEQEND
  0
TEXT
  8
RD_SILKSCREEN_TOP
 10
342.000000
 20
610.000000
 11
0.000000
 21
0.000000
 40
30.000000
 41
0.866667
 50
0.000000
  7
STANDARD
 71
0
 72
0
  1
C3
 73
0
  0
POLYLINE
  8
PIN_TOP
 66
1
 70
1
 40
0.000000
 41
0.000000
 39
0.000000
  0
VERTEX
  8
PIN_TOP
 10
571.259500
 20
547.244000
 40
0.000000
 41
0.000000
 42
0.000000
  0
VERTEX
  8
PIN_TOP
 10
571.259500
 20
484.252000
 40
0.000000
 41
0.000000
 42
0.000000
  0
VERTEX
  8
PIN_TOP
 10
546.850500
 20
484.252000
 40
0.000000
 41
0.000000
 42
0.000000
  0
VERTEX
  8
PIN_TOP
 10
546.850500
 20
547.244000
 40
0.000000
 41
0.000000
 42
0.000000
  0
SEQEND
  0
POLYLINE
  8
PIN_TOP
 66
1
 70
1
 40
0.000000
 41
0.000000
 39
0.000000
  0
VERTEX
  8
PIN_TOP
 10
453.149500
 20
547.244000
 40
0.000000
 41
0.000000
 42
0.000000
  0
VERTEX
  8
PIN_TOP
 10
453.149500
 20
484.252000
 40
0.000000
 41
0.000000
 42
0.000000
  0
VERTEX
  8
PIN_TOP
 10
428.740500
 20
484.252000
 40
0.000000
 41
0.000000
 42
0.000000
  0
VERTEX
  8
PIN_TOP
 10
428.740500
 20
547.244000
 40
0.000000
 41
0.000000
 42
0.000000
  0
SEQEND
  0
POLYLINE
  8
PIN_TOP
 66
1
 70
1
 40
0.000000
 41
0.000000
 39
0.000000
  0
VERTEX
  8
PIN_TOP
 10
535.433000
 20
350.394000
 40
0.000000
 41
0.000000
 42
0.000000
  0
VERTEX
  8
PIN_TOP
 10
464.567000
 20
350.394000
 40
0.000000
 41
0.000000
 42
0.000000
  0
VERTEX
  8
PIN_TOP
 10
464.567000
 20
484.252000
 40
0.000000
 41
0.000000
 42
0.000000
  0
VERTEX
  8
PIN_TOP
 10
487.795000
 20
484.252000
 40
0.000000
 41
0.000000
 42
0.000000
  0
VERTEX
  8
PIN_TOP
 10
487.795000
 20
547.244000
 40
0.000000
 41
0.000000
 42
0.000000
  0
VERTEX
  8
PIN_TOP
 10
512.205000
 20
547.244000
 40
0.000000
 41
0.000000
 42
0.000000
  0
VERTEX
  8
PIN_TOP
 10
512.205000
 20
484.252000
 40
0.000000
 41
0.000000
 42
0.000000
  0
VERTEX
  8
PIN_TOP
 10
535.433000
 20
484.252000
 40
0.000000
 41
0.000000
 42
0.000000
  0
SEQEND
  0
POLYLINE
  8
PG_SILKSCREEN_TOP
 66
1
 70
0
 40
0.000000
 41
0.000000
 39
0.000000
  0
VERTEX
  8
PG_SILKSCREEN_TOP
 10
590.551000
 20
366.142000
 40
5.906000
 41
5.906000
 42
0.000000
  0
VERTEX
  8
PG_SILKSCREEN_TOP
 10
547.244000
 20
366.142000
 40
5.906000
 41
5.906000
 42
0.000000
  0
SEQEND
  0
POLYLINE
  8
PG_SILKSCREEN_TOP
 66
1
 70
0
 40
0.000000
 41
0.000000
 39
0.000000
  0
VERTEX
  8
PG_SILKSCREEN_TOP
 10
452.756000
 20
366.142000
 40
5.906000
 41
5.906000
 42
0.000000
  0
VERTEX
  8
PG_SILKSCREEN_TOP
 10
409.449000
 20
366.142000
 40
5.906000
 41
5.906000
 42
0.000000
  0
VERTEX
  8
PG_SILKSCREEN_TOP
 10
409.449000
 20
555.118000
 40
5.906000
 41
5.906000
 42
0.000000
  0
VERTEX
  8
PG_SILKSCREEN_TOP
 10
590.551000
 20
555.118000
 40
5.906000
 41
5.906000
 42
0.000000
  0
VERTEX
  8
PG_SILKSCREEN_TOP
 10
590.551000
 20
366.142000
 40
5.906000
 41
5.906000
 42
0.000000
  0
SEQEND
  0
TEXT
  8
RD_SILKSCREEN_TOP
 10
630.000000
 20
547.000000
 11
0.000000
 21
0.000000
 40
30.000000
 41
0.866667
 50
90.000000
  7
STANDARD
 71
0
 72
0
  1
U1
 73
0
  0
POLYLINE
  8
PIN_TOP
 66
1
 70
1
 40
0.000000
 41
0.000000
 39
0.000000
  0
VERTEX
  8
PIN_TOP
 10
1536.732000
 20
481.299000
 40
0.000000
 41
0.000000
 42
0.000000
  0
VERTEX
  8
PIN_TOP
 10
1536.732000
 20
506.890000
 40
0.000000
 41
0.000000
 42
0.000000
  0
VERTEX
  8
PIN_TOP
 10
1583.976000
 20
506.890000
 40
0.000000
 41
0.000000
 42
0.000000
  0
VERTEX
  8
PIN_TOP
 10
1583.976000
 20
481.299000
 40
0.000000
 41
0.000000
 42
0.000000
  0
SEQEND
  0
POLYLINE
  8
PIN_TOP
 66
1
 70
1
 40
0.000000
 41
0.000000
 39
0.000000
  0
VERTEX
  8
PIN_TOP
 10
1706.024000
 20
481.299000
 40
0.000000
 41
0.000000
 42
0.000000
  0
VERTEX
  8
PIN_TOP
 10
1706.024000
 20
506.890000
 40
0.000000
 41
0.000000
 42
0.000000
  0
VERTEX
  8
PIN_TOP
 10
1753.268000
 20
506.890000
 40
0.000000
 41
0.000000
 42
0.000000
  0
VERTEX
  8
PIN_TOP
 10
1753.268000
 20
481.299000
 40
0.000000
 41
0.000000
 42
0.000000
  0
SEQEND
  0
POLYLINE
  8
PIN_TOP
 66
1
 70
1
 40
0.000000
 41
0.000000
 39
0.000000
  0
VERTEX
  8
PIN_TOP
 10
1536.732000
 20
396.653000
 40
0.000000
 41
0.000000
 42
0.000000
  0
VERTEX
  8
PIN_TOP
 10
1536.732000
 20
422.244000
 40
0.000000
 41
0.000000
 42
0.000000
  0
VERTEX
  8
PIN_TOP
 10
1583.976000
 20
422.244000
 40
0.000000
 41
0.000000
 42
0.000000
  0
VERTEX
  8
PIN_TOP
 10
1583.976000
 20
396.653000
 40
0.000000
 41
0.000000
 42
0.000000
  0
SEQEND
  0
POLYLINE
  8
PIN_TOP
 66
1
 70
1
 40
0.000000
 41
0.000000
 39
0.000000
  0
VERTEX
  8
PIN_TOP
 10
1706.024000
 20
396.653000
 40
0.000000
 41
0.000000
 42
0.000000
  0
VERTEX
  8
PIN_TOP
 10
1706.024000
 20
422.244000
 40
0.000000
 41
0.000000
 42
0.000000
  0
VERTEX
  8
PIN_TOP
 10
1753.268000
 20
422.244000
 40
0.000000
 41
0.000000
 42
0.000000
  0
VERTEX
  8
PIN_TOP
 10
1753.268000
 20
396.653000
 40
0.000000
 41
0.000000
 42
0.000000
  0
SEQEND
  0
POLYLINE
  8
PG_SILKSCREEN_TOP
 66
1
 70
0
 40
0.000000
 41
0.000000
 39
0.000000
  0
VERTEX
  8
PG_SILKSCREEN_TOP
 10
1562.323000
 20
514.764000
 40
5.906000
 41
5.906000
 42
0.000000
  0
VERTEX
  8
PG_SILKSCREEN_TOP
 10
1727.677000
 20
514.764000
 40
5.906000
 41
5.906000
 42
0.000000
  0
SEQEND
  0
POLYLINE
  8
PG_SILKSCREEN_TOP
 66
1
 70
0
 40
0.000000
 41
0.000000
 39
0.000000
  0
VERTEX
  8
PG_SILKSCREEN_TOP
 10
1727.677000
 20
471.457000
 40
5.906000
 41
5.906000
 42
0.000000
  0
VERTEX
  8
PG_SILKSCREEN_TOP
 10
1727.677000
 20
432.087000
 40
5.906000
 41
5.906000
 42
0.000000
  0
SEQEND
  0
POLYLINE
  8
PG_SILKSCREEN_TOP
 66
1
 70
0
 40
0.000000
 41
0.000000
 39
0.000000
  0
VERTEX
  8
PG_SILKSCREEN_TOP
 10
1562.323000
 20
471.457000
 40
5.906000
 41
5.906000
 42
0.000000
  0
VERTEX
  8
PG_SILKSCREEN_TOP
 10
1562.323000
 20
432.087000
 40
5.906000
 41
5.906000
 42
0.000000
  0
SEQEND
  0
POLYLINE
  8
PG_SILKSCREEN_TOP
 66
1
 70
0
 40
0.000000
 41
0.000000
 39
0.000000
  0
VERTEX
  8
PG_SILKSCREEN_TOP
 10
1562.323000
 20
388.780000
 40
5.906000
 41
5.906000
 42
0.000000
  0
VERTEX
  8
PG_SILKSCREEN_TOP
 10
1727.677000
 20
388.780000
 40
5.906000
 41
5.906000
 42
0.000000
  0
SEQEND
  0
TEXT
  8
RD_SILKSCREEN_TOP
 10
1543.195000
 20
404.095000
 11
0.000000
 21
0.000000
 40
11.811000
 41
0.666328
 50
0.000000
  7
STANDARD
 71
0
 72
0
  1
SW1
 73
0
  0
POLYLINE
  8
PIN_TOP
 66
1
 70
1
 40
0.000000
 41
0.000000
 39
0.000000
  0
VERTEX
  8
PIN_TOP
 10
1536.732000
 20
664.527000
 40
0.000000
 41
0.000000
 42
0.000000
  0
VERTEX
  8
PIN_TOP
 10
1536.732000
 20
690.118000
 40
0.000000
 41
0.000000
 42
0.000000
  0
VERTEX
  8
PIN_TOP
 10
1583.976000
 20
690.118000
 40
0.000000
 41
0.000000
 42
0.000000
  0
VERTEX
  8
PIN_TOP
 10
1583.976000
 20
664.527000
 40
0.000000
 41
0.000000
 42
0.000000
  0
SEQEND
  0
POLYLINE
  8
PIN_TOP
 66
1
 70
1
 40
0.000000
 41
0.000000
 39
0.000000
  0
VERTEX
  8
PIN_TOP
 10
1706.024000
 20
664.527000
 40
0.000000
 41
0.000000
 42
0.000000
  0
VERTEX
  8
PIN_TOP
 10
1706.024000
 20
690.118000
 40
0.000000
 41
0.000000
 42
0.000000
  0
VERTEX
  8
PIN_TOP
 10
1753.268000
 20
690.118000
 40
0.000000
 41
0.000000
 42
0.000000
  0
VERTEX
  8
PIN_TOP
 10
1753.268000
 20
664.527000
 40
0.000000
 41
0.000000
 42
0.000000
  0
SEQEND
  0
POLYLINE
  8
PIN_TOP
 66
1
 70
1
 40
0.000000
 41
0.000000
 39
0.000000
  0
VERTEX
  8
PIN_TOP
 10
1536.732000
 20
579.881000
 40
0.000000
 41
0.000000
 42
0.000000
  0
VERTEX
  8
PIN_TOP
 10
1536.732000
 20
605.472000
 40
0.000000
 41
0.000000
 42
0.000000
  0
VERTEX
  8
PIN_TOP
 10
1583.976000
 20
605.472000
 40
0.000000
 41
0.000000
 42
0.000000
  0
VERTEX
  8
PIN_TOP
 10
1583.976000
 20
579.881000
 40
0.000000
 41
0.000000
 42
0.000000
  0
SEQEND
  0
POLYLINE
  8
PIN_TOP
 66
1
 70
1
 40
0.000000
 41
0.000000
 39
0.000000
  0
VERTEX
  8
PIN_TOP
 10
1706.024000
 20
579.881000
 40
0.000000
 41
0.000000
 42
0.000000
  0
VERTEX
  8
PIN_TOP
 10
1706.024000
 20
605.472000
 40
0.000000
 41
0.000000
 42
0.000000
  0
VERTEX
  8
PIN_TOP
 10
1753.268000
 20
605.472000
 40
0.000000
 41
0.000000
 42
0.000000
  0
VERTEX
  8
PIN_TOP
 10
1753.268000
 20
579.881000
 40
0.000000
 41
0.000000
 42
0.000000
  0
SEQEND
  0
POLYLINE
  8
PG_SILKSCREEN_TOP
 66
1
 70
0
 40
0.000000
 41
0.000000
 39
0.000000
  0
VERTEX
  8
PG_SILKSCREEN_TOP
 10
1562.323000
 20
697.993000
 40
5.906000
 41
5.906000
 42
0.000000
  0
VERTEX
  8
PG_SILKSCREEN_TOP
 10
1727.677000
 20
697.993000
 40
5.906000
 41
5.906000
 42
0.000000
  0
SEQEND
  0
POLYLINE
  8
PG_SILKSCREEN_TOP
 66
1
 70
0
 40
0.000000
 41
0.000000
 39
0.000000
  0
VERTEX
  8
PG_SILKSCREEN_TOP
 10
1727.677000
 20
654.685000
 40
5.906000
 41
5.906000
 42
0.000000
  0
VERTEX
  8
PG_SILKSCREEN_TOP
 10
1727.677000
 20
615.315000
 40
5.906000
 41
5.906000
 42
0.000000
  0
SEQEND
  0
POLYLINE
  8
PG_SILKSCREEN_TOP
 66
1
 70
0
 40
0.000000
 41
0.000000
 39
0.000000
  0
VERTEX
  8
PG_SILKSCREEN_TOP
 10
1562.323000
 20
654.685000
 40
5.906000
 41
5.906000
 42
0.000000
  0
VERTEX
  8
PG_SILKSCREEN_TOP
 10
1562.323000
 20
615.315000
 40
5.906000
 41
5.906000
 42
0.000000
  0
SEQEND
  0
POLYLINE
  8
PG_SILKSCREEN_TOP
 66
1
 70
0
 40
0.000000
 41
0.000000
 39
0.000000
  0
VERTEX
  8
PG_SILKSCREEN_TOP
 10
1562.323000
 20
572.008000
 40
5.906000
 41
5.906000
 42
0.000000
  0
VERTEX
  8
PG_SILKSCREEN_TOP
 10
1727.677000
 20
572.008000
 40
5.906000
 41
5.906000
 42
0.000000
  0
SEQEND
  0
TEXT
  8
RD_SILKSCREEN_TOP
 10
1543.195000
 20
589.095000
 11
0.000000
 21
0.000000
 40
11.811000
 41
0.666328
 50
0.000000
  7
STANDARD
 71
0
 72
0
  1
SW2
 73
0
  0
POLYLINE
  8
PIN_TOP
 66
1
 70
1
 40
0.000000
 41
0.000000
 39
0.000000
  0
VERTEX
  8
PIN_TOP
 10
1536.732000
 20
299.526000
 40
0.000000
 41
0.000000
 42
0.000000
  0
VERTEX
  8
PIN_TOP
 10
1536.732000
 20
325.117000
 40
0.000000
 41
0.000000
 42
0.000000
  0
VERTEX
  8
PIN_TOP
 10
1583.976000
 20
325.117000
 40
0.000000
 41
0.000000
 42
0.000000
  0
VERTEX
  8
PIN_TOP
 10
1583.976000
 20
299.526000
 40
0.000000
 41
0.000000
 42
0.000000
  0
SEQEND
  0
POLYLINE
  8
PIN_TOP
 66
1
 70
1
 40
0.000000
 41
0.000000
 39
0.000000
  0
VERTEX
  8
PIN_TOP
 10
1706.024000
 20
299.526000
 40
0.000000
 41
0.000000
 42
0.000000
  0
VERTEX
  8
PIN_TOP
 10
1706.024000
 20
325.117000
 40
0.000000
 41
0.000000
 42
0.000000
  0
VERTEX
  8
PIN_TOP
 10
1753.268000
 20
325.117000
 40
0.000000
 41
0.000000
 42
0.000000
  0
VERTEX
  8
PIN_TOP
 10
1753.268000
 20
299.526000
 40
0.000000
 41
0.000000
 42
0.000000
  0
SEQEND
  0
POLYLINE
  8
PIN_TOP
 66
1
 70
1
 40
0.000000
 41
0.000000
 39
0.000000
  0
VERTEX
  8
PIN_TOP
 10
1536.732000
 20
214.880000
 40
0.000000
 41
0.000000
 42
0.000000
  0
VERTEX
  8
PIN_TOP
 10
1536.732000
 20
240.471000
 40
0.000000
 41
0.000000
 42
0.000000
  0
VERTEX
  8
PIN_TOP
 10
1583.976000
 20
240.471000
 40
0.000000
 41
0.000000
 42
0.000000
  0
VERTEX
  8
PIN_TOP
 10
1583.976000
 20
214.880000
 40
0.000000
 41
0.000000
 42
0.000000
  0
SEQEND
  0
POLYLINE
  8
PIN_TOP
 66
1
 70
1
 40
0.000000
 41
0.000000
 39
0.000000
  0
VERTEX
  8
PIN_TOP
 10
1706.024000
 20
214.880000
 40
0.000000
 41
0.000000
 42
0.000000
  0
VERTEX
  8
PIN_TOP
 10
1706.024000
 20
240.471000
 40
0.000000
 41
0.000000
 42
0.000000
  0
VERTEX
  8
PIN_TOP
 10
1753.268000
 20
240.471000
 40
0.000000
 41
0.000000
 42
0.000000
  0
VERTEX
  8
PIN_TOP
 10
1753.268000
 20
214.880000
 40
0.000000
 41
0.000000
 42
0.000000
  0
SEQEND
  0
POLYLINE
  8
PG_SILKSCREEN_TOP
 66
1
 70
0
 40
0.000000
 41
0.000000
 39
0.000000
  0
VERTEX
  8
PG_SILKSCREEN_TOP
 10
1562.323000
 20
332.991000
 40
5.906000
 41
5.906000
 42
0.000000
  0
VERTEX
  8
PG_SILKSCREEN_TOP
 10
1727.677000
 20
332.991000
 40
5.906000
 41
5.906000
 42
0.000000
  0
SEQEND
  0
POLYLINE
  8
PG_SILKSCREEN_TOP
 66
1
 70
0
 40
0.000000
 41
0.000000
 39
0.000000
  0
VERTEX
  8
PG_SILKSCREEN_TOP
 10
1727.677000
 20
289.684000
 40
5.906000
 41
5.906000
 42
0.000000
  0
VERTEX
  8
PG_SILKSCREEN_TOP
 10
1727.677000
 20
250.314000
 40
5.906000
 41
5.906000
 42
0.000000
  0
SEQEND
  0
POLYLINE
  8
PG_SILKSCREEN_TOP
 66
1
 70
0
 40
0.000000
 41
0.000000
 39
0.000000
  0
VERTEX
  8
PG_SILKSCREEN_TOP
 10
1562.323000
 20
289.684000
 40
5.906000
 41
5.906000
 42
0.000000
  0
VERTEX
  8
PG_SILKSCREEN_TOP
 10
1562.323000
 20
250.314000
 40
5.906000
 41
5.906000
 42
0.000000
  0
SEQEND
  0
POLYLINE
  8
PG_SILKSCREEN_TOP
 66
1
 70
0
 40
0.000000
 41
0.000000
 39
0.000000
  0
VERTEX
  8
PG_SILKSCREEN_TOP
 10
1562.323000
 20
207.007000
 40
5.906000
 41
5.906000
 42
0.000000
  0
VERTEX
  8
PG_SILKSCREEN_TOP
 10
1727.677000
 20
207.007000
 40
5.906000
 41
5.906000
 42
0.000000
  0
SEQEND
  0
TEXT
  8
RD_SILKSCREEN_TOP
 10
1543.195000
 20
219.095000
 11
0.000000
 21
0.000000
 40
11.811000
 41
0.666328
 50
0.000000
  7
STANDARD
 71
0
 72
0
  1
SW3
 73
0
  0
POLYLINE
  8
PIN_TOP
 66
1
 70
1
 40
0.000000
 41
0.000000
 39
0.000000
  0
VERTEX
  8
PIN_TOP
 10
1910.787000
 20
221.260000
 40
0.000000
 41
0.000000
 42
0.000000
  0
VERTEX
  8
PIN_TOP
 10
1847.795000
 20
221.260000
 40
0.000000
 41
0.000000
 42
0.000000
  0
VERTEX
  8
PIN_TOP
 10
1847.795000
 20
284.252000
 40
0.000000
 41
0.000000
 42
0.000000
  0
VERTEX
  8
PIN_TOP
 10
1910.787000
 20
284.252000
 40
0.000000
 41
0.000000
 42
0.000000
  0
SEQEND
  0
CIRCLE
  8
PIN_TOP
 10
1879.291000
 20
352.756000
 40
31.496000
  0
CIRCLE
  8
PIN_TOP
 10
1879.291000
 20
452.756000
 40
31.496000
  0
CIRCLE
  8
PIN_TOP
 10
1879.291000
 20
552.756000
 40
31.496000
  0
CIRCLE
  8
PIN_TOP
 10
1879.291000
 20
652.756000
 40
31.496000
  0
POLYLINE
  8
PG_SILKSCREEN_TOP
 66
1
 70
0
 40
0.000000
 41
0.000000
 39
0.000000
  0
VERTEX
  8
PG_SILKSCREEN_TOP
 10
1928.504000
 20
302.756000
 40
5.906000
 41
5.906000
 42
0.000000
  0
VERTEX
  8
PG_SILKSCREEN_TOP
 10
1830.078000
 20
302.756000
 40
5.906000
 41
5.906000
 42
0.000000
  0
VERTEX
  8
PG_SILKSCREEN_TOP
 10
1830.078000
 20
702.756000
 40
5.906000
 41
5.906000
 42
0.000000
  0
VERTEX
  8
PG_SILKSCREEN_TOP
 10
1928.504000
 20
702.756000
 40
5.906000
 41
5.906000
 42
0.000000
  0
VERTEX
  8
PG_SILKSCREEN_TOP
 10
1928.504000
 20
202.756000
 40
5.906000
 41
5.906000
 42
0.000000
  0
VERTEX
  8
PG_SILKSCREEN_TOP
 10
1830.078000
 20
202.756000
 40
5.906000
 41
5.906000
 42
0.000000
  0
VERTEX
  8
PG_SILKSCREEN_TOP
 10
1830.078000
 20
302.756000
 40
5.906000
 41
5.906000
 42
0.000000
  0
SEQEND
  0
TEXT
  8
RD_SILKSCREEN_TOP
 10
1767.000000
 20
715.000000
 11
0.000000
 21
0.000000
 40
30.000000
 41
0.866667
 50
0.000000
  7
STANDARD
 71
0
 72
0
  1
J4
 73
0
  0
POLYLINE
  8
PIN_TOP
 66
1
 70
1
 40
0.000000
 41
0.000000
 39
0.000000
  0
VERTEX
  8
PIN_TOP
 10
274.429000
 20
590.563500
 40
0.000000
 41
0.000000
 42
0.000000
  0
VERTEX
  8
PIN_TOP
 10
353.169000
 20
590.563500
 40
0.000000
 41
0.000000
 42
0.000000
  0
VERTEX
  8
PIN_TOP
 10
353.169000
 20
578.752500
 40
0.000000
 41
0.000000
 42
0.000000
  0
VERTEX
  8
PIN_TOP
 10
274.429000
 20
578.752500
 40
0.000000
 41
0.000000
 42
0.000000
  0
SEQEND
  0
CIRCLE
  8
PIN_TOP
 10
246.098000
 20
566.555000
 40
12.795500
  0
CIRCLE
  8
PIN_TOP
 10
246.098000
 20
338.957000
 40
12.795500
  0
POLYLINE
  8
PIN_TOP
 66
1
 70
1
 40
0.000000
 41
0.000000
 39
0.000000
  0
VERTEX
  8
PIN_TOP
 10
113.809000
 20
601.198500
 40
0.000000
 41
0.000000
 42
0.000000
  0
VERTEX
  8
PIN_TOP
 10
90.191000
 20
601.198500
 40
0.000000
 41
0.000000
 42
-1.000000
  0
VERTEX
  8
PIN_TOP
 10
90.191000
 20
644.509500
 40
0.000000
 41
0.000000
 42
0.000000
  0
VERTEX
  8
PIN_TOP
 10
113.809000
 20
644.509500
 40
0.000000
 41
0.000000
 42
-1.000000
  0
SEQEND
  0
POLYLINE
  8
PIN_TOP
 66
1
 70
1
 40
0.000000
 41
0.000000
 39
0.000000
  0
VERTEX
  8
PIN_TOP
 10
113.809000
 20
261.002500
 40
0.000000
 41
0.000000
 42
0.000000
  0
VERTEX
  8
PIN_TOP
 10
90.191000
 20
261.002500
 40
0.000000
 41
0.000000
 42
-1.000000
  0
VERTEX
  8
PIN_TOP
 10
90.191000
 20
304.313500
 40
0.000000
 41
0.000000
 42
0.000000
  0
VERTEX
  8
PIN_TOP
 10
113.809000
 20
304.313500
 40
0.000000
 41
0.000000
 42
-1.000000
  0
SEQEND
  0
POLYLINE
  8
PIN_TOP
 66
1
 70
1
 40
0.000000
 41
0.000000
 39
0.000000
  0
VERTEX
  8
PIN_TOP
 10
288.649500
 20
601.198500
 40
0.000000
 41
0.000000
 42
0.000000
  0
VERTEX
  8
PIN_TOP
 10
245.350500
 20
601.198500
 40
0.000000
 41
0.000000
 42
-1.000000
  0
VERTEX
  8
PIN_TOP
 10
245.350500
 20
644.509500
 40
0.000000
 41
0.000000
 42
0.000000
  0
VERTEX
  8
PIN_TOP
 10
288.649500
 20
644.509500
 40
0.000000
 41
0.000000
 42
-1.000000
  0
SEQEND
  0
POLYLINE
  8
PIN_TOP
 66
1
 70
1
 40
0.000000
 41
0.000000
 39
0.000000
  0
VERTEX
  8
PIN_TOP
 10
288.649500
 20
261.002500
 40
0.000000
 41
0.000000
 42
0.000000
  0
VERTEX
  8
PIN_TOP
 10
245.350500
 20
261.002500
 40
0.000000
 41
0.000000
 42
-1.000000
  0
VERTEX
  8
PIN_TOP
 10
245.350500
 20
304.313500
 40
0.000000
 41
0.000000
 42
0.000000
  0
VERTEX
  8
PIN_TOP
 10
288.649500
 20
304.313500
 40
0.000000
 41
0.000000
 42
-1.000000
  0
SEQEND
  0
POLYLINE
  8
PIN_TOP
 66
1
 70
1
 40
0.000000
 41
0.000000
 39
0.000000
  0
VERTEX
  8
PIN_TOP
 10
274.429000
 20
578.759500
 40
0.000000
 41
0.000000
 42
0.000000
  0
VERTEX
  8
PIN_TOP
 10
353.169000
 20
578.759500
 40
0.000000
 41
0.000000
 42
0.000000
  0
VERTEX
  8
PIN_TOP
 10
353.169000
 20
566.948500
 40
0.000000
 41
0.000000
 42
0.000000
  0
VERTEX
  8
PIN_TOP
 10
274.429000
 20
566.948500
 40
0.000000
 41
0.000000
 42
0.000000
  0
SEQEND
  0
POLYLINE
  8
PIN_TOP
 66
1
 70
1
 40
0.000000
 41
0.000000
 39
0.000000
  0
VERTEX
  8
PIN_TOP
 10
274.429000
 20
559.063500
 40
0.000000
 41
0.000000
 42
0.000000
  0
VERTEX
  8
PIN_TOP
 10
353.169000
 20
559.063500
 40
0.000000
 41
0.000000
 42
0.000000
  0
VERTEX
  8
PIN_TOP
 10
353.169000
 20
547.252500
 40
0.000000
 41
0.000000
 42
0.000000
  0
VERTEX
  8
PIN_TOP
 10
274.429000
 20
547.252500
 40
0.000000
 41
0.000000
 42
0.000000
  0
SEQEND
  0
POLYLINE
  8
PIN_TOP
 66
1
 70
1
 40
0.000000
 41
0.000000
 39
0.000000
  0
VERTEX
  8
PIN_TOP
 10
274.429000
 20
547.259500
 40
0.000000
 41
0.000000
 42
0.000000
  0
VERTEX
  8
PIN_TOP
 10
353.169000
 20
547.259500
 40
0.000000
 41
0.000000
 42
0.000000
  0
VERTEX
  8
PIN_TOP
 10
353.169000
 20
535.448500
 40
0.000000
 41
0.000000
 42
0.000000
  0
VERTEX
  8
PIN_TOP
 10
274.429000
 20
535.448500
 40
0.000000
 41
0.000000
 42
0.000000
  0
SEQEND
  0
POLYLINE
  8
PIN_TOP
 66
1
 70
1
 40
0.000000
 41
0.000000
 39
0.000000
  0
VERTEX
  8
PIN_TOP
 10
274.429000
 20
527.563500
 40
0.000000
 41
0.000000
 42
0.000000
  0
VERTEX
  8
PIN_TOP
 10
353.169000
 20
527.563500
 40
0.000000
 41
0.000000
 42
0.000000
  0
VERTEX
  8
PIN_TOP
 10
353.169000
 20
515.752500
 40
0.000000
 41
0.000000
 42
0.000000
  0
VERTEX
  8
PIN_TOP
 10
274.429000
 20
515.752500
 40
0.000000
 41
0.000000
 42
0.000000
  0
SEQEND
  0
POLYLINE
  8
PIN_TOP
 66
1
 70
1
 40
0.000000
 41
0.000000
 39
0.000000
  0
VERTEX
  8
PIN_TOP
 10
274.429000
 20
507.862500
 40
0.000000
 41
0.000000
 42
0.000000
  0
VERTEX
  8
PIN_TOP
 10
353.169000
 20
507.862500
 40
0.000000
 41
0.000000
 42
0.000000
  0
VERTEX
  8
PIN_TOP
 10
353.169000
 20
496.051500
 40
0.000000
 41
0.000000
 42
0.000000
  0
VERTEX
  8
PIN_TOP
 10
274.429000
 20
496.051500
 40
0.000000
 41
0.000000
 42
0.000000
  0
SEQEND
  0
POLYLINE
  8
PIN_TOP
 66
1
 70
1
 40
0.000000
 41
0.000000
 39
0.000000
  0
VERTEX
  8
PIN_TOP
 10
274.429000
 20
488.161500
 40
0.000000
 41
0.000000
 42
0.000000
  0
VERTEX
  8
PIN_TOP
 10
353.169000
 20
488.161500
 40
0.000000
 41
0.000000
 42
0.000000
  0
VERTEX
  8
PIN_TOP
 10
353.169000
 20
476.350500
 40
0.000000
 41
0.000000
 42
0.000000
  0
VERTEX
  8
PIN_TOP
 10
274.429000
 20
476.350500
 40
0.000000
 41
0.000000
 42
0.000000
  0
SEQEND
  0
POLYLINE
  8
PIN_TOP
 66
1
 70
1
 40
0.000000
 41
0.000000
 39
0.000000
  0
VERTEX
  8
PIN_TOP
 10
274.429000
 20
468.460500
 40
0.000000
 41
0.000000
 42
0.000000
  0
VERTEX
  8
PIN_TOP
 10
353.169000
 20
468.460500
 40
0.000000
 41
0.000000
 42
0.000000
  0
VERTEX
  8
PIN_TOP
 10
353.169000
 20
456.649500
 40
0.000000
 41
0.000000
 42
0.000000
  0
VERTEX
  8
PIN_TOP
 10
274.429000
 20
456.649500
 40
0.000000
 41
0.000000
 42
0.000000
  0
SEQEND
  0
POLYLINE
  8
PIN_TOP
 66
1
 70
1
 40
0.000000
 41
0.000000
 39
0.000000
  0
VERTEX
  8
PIN_TOP
 10
274.429000
 20
448.862500
 40
0.000000
 41
0.000000
 42
0.000000
  0
VERTEX
  8
PIN_TOP
 10
353.169000
 20
448.862500
 40
0.000000
 41
0.000000
 42
0.000000
  0
VERTEX
  8
PIN_TOP
 10
353.169000
 20
437.051500
 40
0.000000
 41
0.000000
 42
0.000000
  0
VERTEX
  8
PIN_TOP
 10
274.429000
 20
437.051500
 40
0.000000
 41
0.000000
 42
0.000000
  0
SEQEND
  0
POLYLINE
  8
PIN_TOP
 66
1
 70
1
 40
0.000000
 41
0.000000
 39
0.000000
  0
VERTEX
  8
PIN_TOP
 10
274.429000
 20
409.460500
 40
0.000000
 41
0.000000
 42
0.000000
  0
VERTEX
  8
PIN_TOP
 10
353.169000
 20
409.460500
 40
0.000000
 41
0.000000
 42
0.000000
  0
VERTEX
  8
PIN_TOP
 10
353.169000
 20
397.649500
 40
0.000000
 41
0.000000
 42
0.000000
  0
VERTEX
  8
PIN_TOP
 10
274.429000
 20
397.649500
 40
0.000000
 41
0.000000
 42
0.000000
  0
SEQEND
  0
POLYLINE
  8
PIN_TOP
 66
1
 70
1
 40
0.000000
 41
0.000000
 39
0.000000
  0
VERTEX
  8
PIN_TOP
 10
274.429000
 20
389.759500
 40
0.000000
 41
0.000000
 42
0.000000
  0
VERTEX
  8
PIN_TOP
 10
353.169000
 20
389.759500
 40
0.000000
 41
0.000000
 42
0.000000
  0
VERTEX
  8
PIN_TOP
 10
353.169000
 20
377.948500
 40
0.000000
 41
0.000000
 42
0.000000
  0
VERTEX
  8
PIN_TOP
 10
274.429000
 20
377.948500
 40
0.000000
 41
0.000000
 42
0.000000
  0
SEQEND
  0
POLYLINE
  8
PIN_TOP
 66
1
 70
1
 40
0.000000
 41
0.000000
 39
0.000000
  0
VERTEX
  8
PIN_TOP
 10
274.429000
 20
429.161500
 40
0.000000
 41
0.000000
 42
0.000000
  0
VERTEX
  8
PIN_TOP
 10
353.169000
 20
429.161500
 40
0.000000
 41
0.000000
 42
0.000000
  0
VERTEX
  8
PIN_TOP
 10
353.169000
 20
417.350500
 40
0.000000
 41
0.000000
 42
0.000000
  0
VERTEX
  8
PIN_TOP
 10
274.429000
 20
417.350500
 40
0.000000
 41
0.000000
 42
0.000000
  0
SEQEND
  0
POLYLINE
  8
PIN_TOP
 66
1
 70
1
 40
0.000000
 41
0.000000
 39
0.000000
  0
VERTEX
  8
PIN_TOP
 10
274.429000
 20
370.063500
 40
0.000000
 41
0.000000
 42
0.000000
  0
VERTEX
  8
PIN_TOP
 10
353.169000
 20
370.063500
 40
0.000000
 41
0.000000
 42
0.000000
  0
VERTEX
  8
PIN_TOP
 10
353.169000
 20
358.252500
 40
0.000000
 41
0.000000
 42
0.000000
  0
VERTEX
  8
PIN_TOP
 10
274.429000
 20
358.252500
 40
0.000000
 41
0.000000
 42
0.000000
  0
SEQEND
  0
POLYLINE
  8
PIN_TOP
 66
1
 70
1
 40
0.000000
 41
0.000000
 39
0.000000
  0
VERTEX
  8
PIN_TOP
 10
274.429000
 20
358.259500
 40
0.000000
 41
0.000000
 42
0.000000
  0
VERTEX
  8
PIN_TOP
 10
353.169000
 20
358.259500
 40
0.000000
 41
0.000000
 42
0.000000
  0
VERTEX
  8
PIN_TOP
 10
353.169000
 20
346.448500
 40
0.000000
 41
0.000000
 42
0.000000
  0
VERTEX
  8
PIN_TOP
 10
274.429000
 20
346.448500
 40
0.000000
 41
0.000000
 42
0.000000
  0
SEQEND
  0
POLYLINE
  8
PIN_TOP
 66
1
 70
1
 40
0.000000
 41
0.000000
 39
0.000000
  0
VERTEX
  8
PIN_TOP
 10
274.429000
 20
338.563500
 40
0.000000
 41
0.000000
 42
0.000000
  0
VERTEX
  8
PIN_TOP
 10
353.169000
 20
338.563500
 40
0.000000
 41
0.000000
 42
0.000000
  0
VERTEX
  8
PIN_TOP
 10
353.169000
 20
326.752500
 40
0.000000
 41
0.000000
 42
0.000000
  0
VERTEX
  8
PIN_TOP
 10
274.429000
 20
326.752500
 40
0.000000
 41
0.000000
 42
0.000000
  0
SEQEND
  0
POLYLINE
  8
PIN_TOP
 66
1
 70
1
 40
0.000000
 41
0.000000
 39
0.000000
  0
VERTEX
  8
PIN_TOP
 10
274.429000
 20
326.759500
 40
0.000000
 41
0.000000
 42
0.000000
  0
VERTEX
  8
PIN_TOP
 10
353.169000
 20
326.759500
 40
0.000000
 41
0.000000
 42
0.000000
  0
VERTEX
  8
PIN_TOP
 10
353.169000
 20
314.948500
 40
0.000000
 41
0.000000
 42
0.000000
  0
VERTEX
  8
PIN_TOP
 10
274.429000
 20
314.948500
 40
0.000000
 41
0.000000
 42
0.000000
  0
SEQEND
  0
POLYLINE
  8
PG_SILKSCREEN_TOP
 66
1
 70
0
 40
0.000000
 41
0.000000
 39
0.000000
  0
VERTEX
  8
PG_SILKSCREEN_TOP
 10
287.098000
 20
629.957000
 40
9.799000
 41
9.799000
 42
0.000000
  0
VERTEX
  8
PG_SILKSCREEN_TOP
 10
287.098000
 20
275.555000
 40
9.799000
 41
9.799000
 42
0.000000
  0
SEQEND
  0
POLYLINE
  8
PG_SILKSCREEN_TOP
 66
1
 70
0
 40
0.000000
 41
0.000000
 39
0.000000
  0
VERTEX
  8
PG_SILKSCREEN_TOP
 10
287.098000
 20
275.555000
 40
9.799000
 41
9.799000
 42
0.000000
  0
VERTEX
  8
PG_SILKSCREEN_TOP
 10
0.000000
 20
275.555000
 40
9.799000
 41
9.799000
 42
0.000000
  0
SEQEND
  0
POLYLINE
  8
PG_SILKSCREEN_TOP
 66
1
 70
0
 40
0.000000
 41
0.000000
 39
0.000000
  0
VERTEX
  8
PG_SILKSCREEN_TOP
 10
0.000000
 20
275.555000
 40
9.799000
 41
9.799000
 42
0.000000
  0
VERTEX
  8
PG_SILKSCREEN_TOP
 10
0.000000
 20
629.957000
 40
9.799000
 41
9.799000
 42
0.000000
  0
SEQEND
  0
POLYLINE
  8
PG_SILKSCREEN_TOP
 66
1
 70
0
 40
0.000000
 41
0.000000
 39
0.000000
  0
VERTEX
  8
PG_SILKSCREEN_TOP
 10
0.000000
 20
629.957000
 40
9.799000
 41
9.799000
 42
0.000000
  0
VERTEX
  8
PG_SILKSCREEN_TOP
 10
287.098000
 20
629.957000
 40
9.799000
 41
9.799000
 42
0.000000
  0
SEQEND
  0
TEXT
  8
RD_SILKSCREEN_TOP
 10
85.000000
 20
210.000000
 11
95.000000
 21
210.000000
 40
30.000000
 41
0.866667
 50
0.000000
  7
STANDARD
 71
0
 72
1
  1
J1
 73
0
  0
POLYLINE
  8
BG_DIMENSION
 66
1
 70
0
 40
0.000000
 41
0.000000
 39
0.000000
  0
VERTEX
  8
BG_DIMENSION
 10
139.370000
 20
805.000000
 40
0.000000
 41
0.000000
 42
1.000000
  0
VERTEX
  8
BG_DIMENSION
 10
60.630000
 20
805.000000
 40
0.000000
 41
0.000000
 42
1.000000
  0
VERTEX
  8
BG_DIMENSION
 10
139.370000
 20
805.000000
 40
0.000000
 41
0.000000
 42
0.000000
  0
SEQEND
  0
POLYLINE
  8
BG_SILKSCREEN_TOP
 66
1
 70
0
 40
0.000000
 41
0.000000
 39
0.000000
  0
VERTEX
  8
BG_SILKSCREEN_TOP
 10
1530.000000
 20
515.000000
 40
6.000000
 41
6.000000
 42
0.000000
  0
VERTEX
  8
BG_SILKSCREEN_TOP
 10
1545.000000
 20
515.000000
 40
6.000000
 41
6.000000
 42
0.000000
  0
VERTEX
  8
BG_SILKSCREEN_TOP
 10
1545.000000
 20
525.000000
 40
6.000000
 41
6.000000
 42
0.000000
  0
SEQEND
  0
POLYLINE
  8
BG_SILKSCREEN_TOP
 66
1
 70
0
 40
0.000000
 41
0.000000
 39
0.000000
  0
VERTEX
  8
BG_SILKSCREEN_TOP
 10
1530.000000
 20
380.000000
 40
6.000000
 41
6.000000
 42
0.000000
  0
VERTEX
  8
BG_SILKSCREEN_TOP
 10
1540.000000
 20
380.000000
 40
6.000000
 41
6.000000
 42
0.000000
  0
VERTEX
  8
BG_SILKSCREEN_TOP
 10
1540.000000
 20
365.000000
 40
6.000000
 41
6.000000
 42
0.000000
  0
VERTEX
  8
BG_SILKSCREEN_TOP
 10
1550.000000
 20
365.000000
 40
6.000000
 41
6.000000
 42
0.000000
  0
SEQEND
  0
POLYLINE
  8
BG_OUTLINE
 66
1
 70
0
 40
0.000000
 41
0.000000
 39
0.000000
  0
VERTEX
  8
BG_OUTLINE
 10
118.110000
 20
0.000000
 40
0.000000
 41
0.000000
 42
0.000000
  0
VERTEX
  8
BG_OUTLINE
 10
1850.394000
 20
0.000000
 40
0.000000
 41
0.000000
 42
0.414214
  0
VERTEX
  8
BG_OUTLINE
 10
1968.504000
 20
118.110000
 40
0.000000
 41
0.000000
 42
0.000000
  0
VERTEX
  8
BG_OUTLINE
 10
1968.504000
 20
787.402000
 40
0.000000
 41
0.000000
 42
0.414214
  0
VERTEX
  8
BG_OUTLINE
 10
1850.394000
 20
905.512000
 40
0.000000
 41
0.000000
 42
0.000000
  0
VERTEX
  8
BG_OUTLINE
 10
118.110000
 20
905.512000
 40
0.000000
 41
0.000000
 42
0.414214
  0
VERTEX
  8
BG_OUTLINE
 10
0.000000
 20
787.402000
 40
0.000000
 41
0.000000
 42
0.000000
  0
VERTEX
  8
BG_OUTLINE
 10
0.000000
 20
118.110000
 40
0.000000
 41
0.000000
 42
0.414214
  0
VERTEX
  8
BG_OUTLINE
 10
118.110000
 20
0.000000
 40
0.000000
 41
0.000000
 42
0.000000
  0
SEQEND
  0
POLYLINE
  8
BG_SILKSCREEN_TOP
 66
1
 70
0
 40
0.000000
 41
0.000000
 39
0.000000
  0
VERTEX
  8
BG_SILKSCREEN_TOP
 10
1820.078000
 20
202.756000
 40
6.000000
 41
6.000000
 42
0.000000
  0
VERTEX
  8
BG_SILKSCREEN_TOP
 10
1795.078000
 20
202.756000
 40
6.000000
 41
6.000000
 42
-0.414214
  0
VERTEX
  8
BG_SILKSCREEN_TOP
 10
1765.078000
 20
232.756000
 40
6.000000
 41
6.000000
 42
0.000000
  0
VERTEX
  8
BG_SILKSCREEN_TOP
 10
1765.078000
 20
672.756000
 40
6.000000
 41
6.000000
 42
-0.414214
  0
VERTEX
  8
BG_SILKSCREEN_TOP
 10
1795.078000
 20
702.756000
 40
6.000000
 41
6.000000
 42
0.000000
  0
VERTEX
  8
BG_SILKSCREEN_TOP
 10
1820.078000
 20
702.756000
 40
6.000000
 41
6.000000
 42
0.000000
  0
VERTEX
  8
BG_SILKSCREEN_TOP
 10
1820.078000
 20
202.756000
 40
6.000000
 41
6.000000
 42
0.000000
  0
SEQEND
  0
TEXT
  8
BG_SILKSCREEN_TOP
 10
1633.000000
 20
350.000000
 11
0.000000
 21
0.000000
 40
30.000000
 41
0.866667
 50
0.000000
  7
STANDARD
 71
0
 72
0
  1
RST
 73
0
  0
TEXT
  8
BG_SILKSCREEN_TOP
 10
1620.000000
 20
530.000000
 11
0.000000
 21
0.000000
 40
30.000000
 41
0.866667
 50
0.000000
  7
STANDARD
 71
0
 72
0
  1
KEY1
 73
0
  0
TEXT
  8
BG_SILKSCREEN_TOP
 10
1620.000000
 20
710.000000
 11
0.000000
 21
0.000000
 40
30.000000
 41
0.866667
 50
0.000000
  7
STANDARD
 71
0
 72
0
  1
KEY2
 73
0
  0
TEXT
  8
BG_SILKSCREEN_TOP
 10
1809.291000
 20
616.756000
 11
0.000000
 21
0.000000
 40
30.000000
 41
0.866667
 50
90.000000
  7
STANDARD
 71
0
 72
0
  1
3V3
 73
0
  0
TEXT
  8
BG_SILKSCREEN_TOP
 10
1809.291000
 20
516.756000
 11
0.000000
 21
0.000000
 40
30.000000
 41
0.866667
 50
90.000000
  7
STANDARD
 71
0
 72
0
  1
DIO
 73
0
  0
TEXT
  8
BG_SILKSCREEN_TOP
 10
1809.291000
 20
416.756000
 11
0.000000
 21
0.000000
 40
30.000000
 41
0.866667
 50
90.000000
  7
STANDARD
 71
0
 72
0
  1
GND
 73
0
  0
TEXT
  8
BG_SILKSCREEN_TOP
 10
1809.291000
 20
316.756000
 11
0.000000
 21
0.000000
 40
30.000000
 41
0.866667
 50
90.000000
  7
STANDARD
 71
0
 72
0
  1
CLK
 73
0
  0
TEXT
  8
BG_SILKSCREEN_TOP
 10
1809.291000
 20
216.756000
 11
0.000000
 21
0.000000
 40
30.000000
 41
0.866667
 50
90.000000
  7
STANDARD
 71
0
 72
0
  1
RST
 73
0
  0
TEXT
  8
BG_SILKSCREEN_TOP
 10
396.000000
 20
426.000000
 11
0.000000
 21
0.000000
 40
30.000000
 41
0.866667
 50
90.000000
  7
STANDARD
 71
0
 72
0
  1
PWR
 73
0
  0
ENDSEC
  0
EOF
