  0
SECTION
  2
HEADER
  9
$ACADVER
  1
AC1009
  9
$INSBASE
 10
0.000000
 20
0.000000
  9
$LIMMIN
 10
-321.310000
 20
-208.280000
  9
$LIMMAX
 10
948.690000
 20
1061.720000
  9
$EXTMIN
 10
-321.310000
 20
-208.280000
  9
$EXTMAX
 10
948.690000
 20
1061.720000
  9
$ATTMODE
 70
0
  9
$LUNITS
 70
2
  9
$LUPREC
 70
3
  9
$THICKNESS
 40
0.264160
  0
ENDSEC
  0
SECTION
  2
TABLES
  0
TABLE
  2
LTYPE
 70
1
  0
LTYPE
  3
Solid Line
  2
CONTINUOUS
 70
0
 72
65
 73
0
 40
0.000000
  0
ENDTAB
  0
TABLE
  2
LAYER
 70
5
  0
LAYER
  2
454
 70
0
 62
7
  6
CONTINUOUS
  0
LAYER
  2
454
 70
0
 62
3
  6
CONTINUOUS
  0
LAYER
  2
454
 70
0
 62
7
  6
CONTINUOUS
  0
LAYER
  2
454
 70
0
 62
92
  6
CONTINUOUS
  0
LAYER
  2
454
 70
0
 62
142
  6
CONTINUOUS
  0
ENDTAB
  0
TABLE
  2
STYLE
 70
1
  0
STYLE
  2
STANDARD
 70
0
 40
0.000000
 41
1.000000
 50
0.000000
 71
0
 42
0.200000
  3
txt
  0
ENDTAB
  0
ENDSEC
  0
SECTION
  2
BLOCKS
  0
BLOCK
  8
0
  2
FIGURE_CIRCLE
 70
0
 10
0.000000
 20
0.000000
  0
CIRCLE
  8
0
 10
0.000000
 20
0.000000
 40
0.500000
  0
ENDBLK
  0
BLOCK
  8
0
  2
FIGURE_SQUARE
 70
0
 10
0.000000
 20
0.000000
  0
POLYLINE
  8
0
 66
1
 70
1
 40
0.000000
 41
0.000000
 39
0.000000
  0
VERTEX
  8
0
 10
-0.500000
 20
-0.500000
 40
0.000000
 41
0.000000
 42
0.000000
  0
VERTEX
  8
0
 10
-0.500000
 20
0.500000
 40
0.000000
 41
0.000000
 42
0.000000
  0
VERTEX
  8
0
 10
0.500000
 20
0.500000
 40
0.000000
 41
0.000000
 42
0.000000
  0
VERTEX
  8
0
 10
0.500000
 20
-0.500000
 40
0.000000
 41
0.000000
 42
0.000000
  0
SEQEND
  0
ENDBLK
  0
BLOCK
  8
0
  2
FIGURE_HEX
 70
0
 10
0.000000
 20
0.000000
  0
POLYLINE
  8
0
 66
1
 70
1
 40
0.000000
 41
0.000000
 39
0.000000
  0
VERTEX
  8
0
 10
-0.500000
 20
0.000000
 40
0.000000
 41
0.000000
 42
0.000000
  0
VERTEX
  8
0
 10
-0.250000
 20
0.500000
 40
0.000000
 41
0.000000
 42
0.000000
  0
VERTEX
  8
0
 10
0.250000
 20
0.500000
 40
0.000000
 41
0.000000
 42
0.000000
  0
VERTEX
  8
0
 10
0.500000
 20
0.000000
 40
0.000000
 41
0.000000
 42
0.000000
  0
VERTEX
  8
0
 10
0.250000
 20
-0.500000
 40
0.000000
 41
0.000000
 42
0.000000
  0
VERTEX
  8
0
 10
-0.250000
 20
-0.500000
 40
0.000000
 41
0.000000
 42
0.000000
  0
SEQEND
  0
ENDBLK
  0
BLOCK
  8
0
  2
FIGURE_OCT
 70
0
 10
0.000000
 20
0.000000
  0
POLYLINE
  8
0
 66
1
 70
1
 40
0.000000
 41
0.000000
 39
0.000000
  0
VERTEX
  8
0
 10
-0.500000
 20
-0.207100
 40
0.000000
 41
0.000000
 42
0.000000
  0
VERTEX
  8
0
 10
-0.500000
 20
0.207100
 40
0.000000
 41
0.000000
 42
0.000000
  0
VERTEX
  8
0
 10
-0.207100
 20
0.500000
 40
0.000000
 41
0.000000
 42
0.000000
  0
VERTEX
  8
0
 10
0.207100
 20
0.500000
 40
0.000000
 41
0.000000
 42
0.000000
  0
VERTEX
  8
0
 10
0.500000
 20
0.207100
 40
0.000000
 41
0.000000
 42
0.000000
  0
VERTEX
  8
0
 10
0.500000
 20
-0.207100
 40
0.000000
 41
0.000000
 42
0.000000
  0
VERTEX
  8
0
 10
0.207100
 20
-0.500000
 40
0.000000
 41
0.000000
 42
0.000000
  0
VERTEX
  8
0
 10
-0.207100
 20
-0.500000
 40
0.000000
 41
0.000000
 42
0.000000
  0
SEQEND
  0
ENDBLK
  0
BLOCK
  8
0
  2
FIGURE_OBLONG
 70
0
 10
0.000000
 20
0.000000
  0
POLYLINE
  8
0
 66
1
 70
1
 40
0.000000
 41
0.000000
 39
0.000000
  0
VERTEX
  8
0
 10
-0.500000
 20
-0.125000
 40
0.000000
 41
0.000000
 42
0.000000
  0
VERTEX
  8
0
 10
-0.500000
 20
0.125000
 40
0.000000
 41
0.000000
 42
0.000000
  0
VERTEX
  8
0
 10
-0.416000
 20
0.375000
 40
0.000000
 41
0.000000
 42
0.000000
  0
VERTEX
  8
0
 10
-0.250000
 20
0.500000
 40
0.000000
 41
0.000000
 42
0.000000
  0
VERTEX
  8
0
 10
0.250000
 20
0.500000
 40
0.000000
 41
0.000000
 42
0.000000
  0
VERTEX
  8
0
 10
0.416000
 20
0.375000
 40
0.000000
 41
0.000000
 42
0.000000
  0
VERTEX
  8
0
 10
0.500000
 20
0.125000
 40
0.000000
 41
0.000000
 42
0.000000
  0
VERTEX
  8
0
 10
0.500000
 20
-0.125000
 40
0.000000
 41
0.000000
 42
0.000000
  0
VERTEX
  8
0
 10
0.416000
 20
-0.375000
 40
0.000000
 41
0.000000
 42
0.000000
  0
VERTEX
  8
0
 10
0.250000
 20
-0.500000
 40
0.000000
 41
0.000000
 42
0.000000
  0
VERTEX
  8
0
 10
-0.250000
 20
-0.500000
 40
0.000000
 41
0.000000
 42
0.000000
  0
VERTEX
  8
0
 10
-0.416000
 20
-0.375000
 40
0.000000
 41
0.000000
 42
0.000000
  0
SEQEND
  0
ENDBLK
  0
BLOCK
  8
0
  2
FIGURE_TRI
 70
0
 10
0.000000
 20
0.000000
  0
POLYLINE
  8
0
 66
1
 70
1
 40
0.000000
 41
0.000000
 39
0.000000
  0
VERTEX
  8
0
 10
-0.500000
 20
-0.500000
 40
0.000000
 41
0.000000
 42
0.000000
  0
VERTEX
  8
0
 10
0.000000
 20
0.500000
 40
0.000000
 41
0.000000
 42
0.000000
  0
VERTEX
  8
0
 10
0.500000
 20
-0.500000
 40
0.000000
 41
0.000000
 42
0.000000
  0
SEQEND
  0
ENDBLK
  0
BLOCK
  8
0
  2
FIGURE_CROSS
 70
0
 10
0.000000
 20
0.000000
  0
POLYLINE
  8
0
 66
1
 70
0
 40
0.000000
 41
0.000000
 39
0.000000
  0
VERTEX
  8
0
 10
-0.500000
 20
0.000000
 40
0.000000
 41
0.000000
 42
0.000000
  0
VERTEX
  8
0
 10
0.500000
 20
0.000000
 40
0.000000
 41
0.000000
 42
0.000000
  0
SEQEND
  0
POLYLINE
  8
0
 66
1
 70
0
 40
0.000000
 41
0.000000
 39
0.000000
  0
VERTEX
  8
0
 10
0.000000
 20
0.500000
 40
0.000000
 41
0.000000
 42
0.000000
  0
VERTEX
  8
0
 10
0.000000
 20
-0.500000
 40
0.000000
 41
0.000000
 42
0.000000
  0
SEQEND
  0
ENDBLK
  0
BLOCK
  8
0
  2
FIGURE_DIAMOND
 70
0
 10
0.000000
 20
0.000000
  0
POLYLINE
  8
0
 66
1
 70
1
 40
0.000000
 41
0.000000
 39
0.000000
  0
VERTEX
  8
0
 10
-0.500000
 20
0.000000
 40
0.000000
 41
0.000000
 42
0.000000
  0
VERTEX
  8
0
 10
0.000000
 20
0.500000
 40
0.000000
 41
0.000000
 42
0.000000
  0
VERTEX
  8
0
 10
0.500000
 20
0.000000
 40
0.000000
 41
0.000000
 42
0.000000
  0
VERTEX
  8
0
 10
0.000000
 20
-0.500000
 40
0.000000
 41
0.000000
 42
0.000000
  0
SEQEND
  0
ENDBLK
  0
ENDSEC
  0
SECTION
  2
ENTITIES
  0
POLYLINE
  8
454
 66
1
 70
1
 40
0.000000
 41
0.000000
 39
0.000000
  0
VERTEX
  8
454
 10
25.829997
 20
13.199999
 40
0.000000
 41
0.000000
 42
0.000000
  0
VERTEX
  8
454
 10
25.829997
 20
9.800006
 40
0.000000
 41
0.000000
 42
0.000000
  0
VERTEX
  8
454
 10
22.430003
 20
9.800006
 40
0.000000
 41
0.000000
 42
0.000000
  0
VERTEX
  8
454
 10
22.430003
 20
13.199999
 40
0.000000
 41
0.000000
 42
0.000000
  0
SEQEND
  0
POLYLINE
  8
454
 66
1
 70
1
 40
0.000000
 41
0.000000
 39
0.000000
  0
VERTEX
  8
454
 10
25.755105
 20
9.399994
 40
0.000000
 41
0.000000
 42
0.000000
  0
VERTEX
  8
454
 10
26.005117
 20
9.399994
 40
0.000000
 41
0.000000
 42
0.000000
  0
VERTEX
  8
454
 10
26.005117
 20
8.699995
 40
0.000000
 41
0.000000
 42
0.000000
  0
VERTEX
  8
454
 10
25.755105
 20
8.699995
 40
0.000000
 41
0.000000
 42
0.000000
  0
SEQEND
  0
POLYLINE
  8
454
 66
1
 70
1
 40
0.000000
 41
0.000000
 39
0.000000
  0
VERTEX
  8
454
 10
25.254903
 20
9.399994
 40
0.000000
 41
0.000000
 42
0.000000
  0
VERTEX
  8
454
 10
25.504915
 20
9.399994
 40
0.000000
 41
0.000000
 42
0.000000
  0
VERTEX
  8
454
 10
25.504915
 20
8.699995
 40
0.000000
 41
0.000000
 42
0.000000
  0
VERTEX
  8
454
 10
25.254903
 20
8.699995
 40
0.000000
 41
0.000000
 42
0.000000
  0
SEQEND
  0
POLYLINE
  8
454
 66
1
 70
1
 40
0.000000
 41
0.000000
 39
0.000000
  0
VERTEX
  8
454
 10
24.755081
 20
9.399994
 40
0.000000
 41
0.000000
 42
0.000000
  0
VERTEX
  8
454
 10
25.005093
 20
9.399994
 40
0.000000
 41
0.000000
 42
0.000000
  0
VERTEX
  8
454
 10
25.005093
 20
8.699995
 40
0.000000
 41
0.000000
 42
0.000000
  0
VERTEX
  8
454
 10
24.755081
 20
8.699995
 40
0.000000
 41
0.000000
 42
0.000000
  0
SEQEND
  0
POLYLINE
  8
454
 66
1
 70
1
 40
0.000000
 41
0.000000
 39
0.000000
  0
VERTEX
  8
454
 10
24.254904
 20
9.399994
 40
0.000000
 41
0.000000
 42
0.000000
  0
VERTEX
  8
454
 10
24.504917
 20
9.399994
 40
0.000000
 41
0.000000
 42
0.000000
  0
VERTEX
  8
454
 10
24.504917
 20
8.699995
 40
0.000000
 41
0.000000
 42
0.000000
  0
VERTEX
  8
454
 10
24.254904
 20
8.699995
 40
0.000000
 41
0.000000
 42
0.000000
  0
SEQEND
  0
POLYLINE
  8
454
 66
1
 70
1
 40
0.000000
 41
0.000000
 39
0.000000
  0
VERTEX
  8
454
 10
23.755083
 20
9.399994
 40
0.000000
 41
0.000000
 42
0.000000
  0
VERTEX
  8
454
 10
24.005095
 20
9.399994
 40
0.000000
 41
0.000000
 42
0.000000
  0
VERTEX
  8
454
 10
24.005095
 20
8.699995
 40
0.000000
 41
0.000000
 42
0.000000
  0
VERTEX
  8
454
 10
23.755083
 20
8.699995
 40
0.000000
 41
0.000000
 42
0.000000
  0
SEQEND
  0
POLYLINE
  8
454
 66
1
 70
1
 40
0.000000
 41
0.000000
 39
0.000000
  0
VERTEX
  8
454
 10
23.254907
 20
9.399994
 40
0.000000
 41
0.000000
 42
0.000000
  0
VERTEX
  8
454
 10
23.504919
 20
9.399994
 40
0.000000
 41
0.000000
 42
0.000000
  0
VERTEX
  8
454
 10
23.504919
 20
8.699995
 40
0.000000
 41
0.000000
 42
0.000000
  0
VERTEX
  8
454
 10
23.254907
 20
8.699995
 40
0.000000
 41
0.000000
 42
0.000000
  0
SEQEND
  0
POLYLINE
  8
454
 66
1
 70
1
 40
0.000000
 41
0.000000
 39
0.000000
  0
VERTEX
  8
454
 10
22.755085
 20
9.399994
 40
0.000000
 41
0.000000
 42
0.000000
  0
VERTEX
  8
454
 10
23.005097
 20
9.399994
 40
0.000000
 41
0.000000
 42
0.000000
  0
VERTEX
  8
454
 10
23.005097
 20
8.699995
 40
0.000000
 41
0.000000
 42
0.000000
  0
VERTEX
  8
454
 10
22.755085
 20
8.699995
 40
0.000000
 41
0.000000
 42
0.000000
  0
SEQEND
  0
POLYLINE
  8
454
 66
1
 70
1
 40
0.000000
 41
0.000000
 39
0.000000
  0
VERTEX
  8
454
 10
22.254883
 20
9.399994
 40
0.000000
 41
0.000000
 42
0.000000
  0
VERTEX
  8
454
 10
22.504895
 20
9.399994
 40
0.000000
 41
0.000000
 42
0.000000
  0
VERTEX
  8
454
 10
22.504895
 20
8.699995
 40
0.000000
 41
0.000000
 42
0.000000
  0
VERTEX
  8
454
 10
22.254883
 20
8.699995
 40
0.000000
 41
0.000000
 42
0.000000
  0
SEQEND
  0
POLYLINE
  8
454
 66
1
 70
1
 40
0.000000
 41
0.000000
 39
0.000000
  0
VERTEX
  8
454
 10
22.029991
 20
9.874898
 40
0.000000
 41
0.000000
 42
0.000000
  0
VERTEX
  8
454
 10
22.029991
 20
9.624885
 40
0.000000
 41
0.000000
 42
0.000000
  0
VERTEX
  8
454
 10
21.329993
 20
9.624885
 40
0.000000
 41
0.000000
 42
0.000000
  0
VERTEX
  8
454
 10
21.329993
 20
9.874898
 40
0.000000
 41
0.000000
 42
0.000000
  0
SEQEND
  0
POLYLINE
  8
454
 66
1
 70
1
 40
0.000000
 41
0.000000
 39
0.000000
  0
VERTEX
  8
454
 10
22.029991
 20
10.375100
 40
0.000000
 41
0.000000
 42
0.000000
  0
VERTEX
  8
454
 10
22.029991
 20
10.125088
 40
0.000000
 41
0.000000
 42
0.000000
  0
VERTEX
  8
454
 10
21.329993
 20
10.125088
 40
0.000000
 41
0.000000
 42
0.000000
  0
VERTEX
  8
454
 10
21.329993
 20
10.375100
 40
0.000000
 41
0.000000
 42
0.000000
  0
SEQEND
  0
POLYLINE
  8
454
 66
1
 70
1
 40
0.000000
 41
0.000000
 39
0.000000
  0
VERTEX
  8
454
 10
22.029991
 20
10.874921
 40
0.000000
 41
0.000000
 42
0.000000
  0
VERTEX
  8
454
 10
22.029991
 20
10.624909
 40
0.000000
 41
0.000000
 42
0.000000
  0
VERTEX
  8
454
 10
21.329993
 20
10.624909
 40
0.000000
 41
0.000000
 42
0.000000
  0
VERTEX
  8
454
 10
21.329993
 20
10.874921
 40
0.000000
 41
0.000000
 42
0.000000
  0
SEQEND
  0
POLYLINE
  8
454
 66
1
 70
1
 40
0.000000
 41
0.000000
 39
0.000000
  0
VERTEX
  8
454
 10
22.029991
 20
11.375098
 40
0.000000
 41
0.000000
 42
0.000000
  0
VERTEX
  8
454
 10
22.029991
 20
11.125086
 40
0.000000
 41
0.000000
 42
0.000000
  0
VERTEX
  8
454
 10
21.329993
 20
11.125086
 40
0.000000
 41
0.000000
 42
0.000000
  0
VERTEX
  8
454
 10
21.329993
 20
11.375098
 40
0.000000
 41
0.000000
 42
0.000000
  0
SEQEND
  0
POLYLINE
  8
454
 66
1
 70
1
 40
0.000000
 41
0.000000
 39
0.000000
  0
VERTEX
  8
454
 10
22.029991
 20
11.874919
 40
0.000000
 41
0.000000
 42
0.000000
  0
VERTEX
  8
454
 10
22.029991
 20
11.624907
 40
0.000000
 41
0.000000
 42
0.000000
  0
VERTEX
  8
454
 10
21.329993
 20
11.624907
 40
0.000000
 41
0.000000
 42
0.000000
  0
VERTEX
  8
454
 10
21.329993
 20
11.874919
 40
0.000000
 41
0.000000
 42
0.000000
  0
SEQEND
  0
POLYLINE
  8
454
 66
1
 70
1
 40
0.000000
 41
0.000000
 39
0.000000
  0
VERTEX
  8
454
 10
22.029991
 20
12.375096
 40
0.000000
 41
0.000000
 42
0.000000
  0
VERTEX
  8
454
 10
22.029991
 20
12.125084
 40
0.000000
 41
0.000000
 42
0.000000
  0
VERTEX
  8
454
 10
21.329993
 20
12.125084
 40
0.000000
 41
0.000000
 42
0.000000
  0
VERTEX
  8
454
 10
21.329993
 20
12.375096
 40
0.000000
 41
0.000000
 42
0.000000
  0
SEQEND
  0
POLYLINE
  8
454
 66
1
 70
1
 40
0.000000
 41
0.000000
 39
0.000000
  0
VERTEX
  8
454
 10
22.029991
 20
12.874917
 40
0.000000
 41
0.000000
 42
0.000000
  0
VERTEX
  8
454
 10
22.029991
 20
12.624905
 40
0.000000
 41
0.000000
 42
0.000000
  0
VERTEX
  8
454
 10
21.329993
 20
12.624905
 40
0.000000
 41
0.000000
 42
0.000000
  0
VERTEX
  8
454
 10
21.329993
 20
12.874917
 40
0.000000
 41
0.000000
 42
0.000000
  0
SEQEND
  0
POLYLINE
  8
454
 66
1
 70
1
 40
0.000000
 41
0.000000
 39
0.000000
  0
VERTEX
  8
454
 10
22.029991
 20
13.375119
 40
0.000000
 41
0.000000
 42
0.000000
  0
VERTEX
  8
454
 10
22.029991
 20
13.125107
 40
0.000000
 41
0.000000
 42
0.000000
  0
VERTEX
  8
454
 10
21.329993
 20
13.125107
 40
0.000000
 41
0.000000
 42
0.000000
  0
VERTEX
  8
454
 10
21.329993
 20
13.375119
 40
0.000000
 41
0.000000
 42
0.000000
  0
SEQEND
  0
POLYLINE
  8
454
 66
1
 70
1
 40
0.000000
 41
0.000000
 39
0.000000
  0
VERTEX
  8
454
 10
22.254883
 20
14.300009
 40
0.000000
 41
0.000000
 42
0.000000
  0
VERTEX
  8
454
 10
22.504895
 20
14.300009
 40
0.000000
 41
0.000000
 42
0.000000
  0
VERTEX
  8
454
 10
22.504895
 20
13.600011
 40
0.000000
 41
0.000000
 42
0.000000
  0
VERTEX
  8
454
 10
22.254883
 20
13.600011
 40
0.000000
 41
0.000000
 42
0.000000
  0
SEQEND
  0
POLYLINE
  8
454
 66
1
 70
1
 40
0.000000
 41
0.000000
 39
0.000000
  0
VERTEX
  8
454
 10
22.755085
 20
14.300009
 40
0.000000
 41
0.000000
 42
0.000000
  0
VERTEX
  8
454
 10
23.005097
 20
14.300009
 40
0.000000
 41
0.000000
 42
0.000000
  0
VERTEX
  8
454
 10
23.005097
 20
13.600011
 40
0.000000
 41
0.000000
 42
0.000000
  0
VERTEX
  8
454
 10
22.755085
 20
13.600011
 40
0.000000
 41
0.000000
 42
0.000000
  0
SEQEND
  0
POLYLINE
  8
454
 66
1
 70
1
 40
0.000000
 41
0.000000
 39
0.000000
  0
VERTEX
  8
454
 10
23.254907
 20
14.300009
 40
0.000000
 41
0.000000
 42
0.000000
  0
VERTEX
  8
454
 10
23.504919
 20
14.300009
 40
0.000000
 41
0.000000
 42
0.000000
  0
VERTEX
  8
454
 10
23.504919
 20
13.600011
 40
0.000000
 41
0.000000
 42
0.000000
  0
VERTEX
  8
454
 10
23.254907
 20
13.600011
 40
0.000000
 41
0.000000
 42
0.000000
  0
SEQEND
  0
POLYLINE
  8
454
 66
1
 70
1
 40
0.000000
 41
0.000000
 39
0.000000
  0
VERTEX
  8
454
 10
23.755083
 20
14.300009
 40
0.000000
 41
0.000000
 42
0.000000
  0
VERTEX
  8
454
 10
24.005095
 20
14.300009
 40
0.000000
 41
0.000000
 42
0.000000
  0
VERTEX
  8
454
 10
24.005095
 20
13.600011
 40
0.000000
 41
0.000000
 42
0.000000
  0
VERTEX
  8
454
 10
23.755083
 20
13.600011
 40
0.000000
 41
0.000000
 42
0.000000
  0
SEQEND
  0
POLYLINE
  8
454
 66
1
 70
1
 40
0.000000
 41
0.000000
 39
0.000000
  0
VERTEX
  8
454
 10
24.254904
 20
14.300009
 40
0.000000
 41
0.000000
 42
0.000000
  0
VERTEX
  8
454
 10
24.504917
 20
14.300009
 40
0.000000
 41
0.000000
 42
0.000000
  0
VERTEX
  8
454
 10
24.504917
 20
13.600011
 40
0.000000
 41
0.000000
 42
0.000000
  0
VERTEX
  8
454
 10
24.254904
 20
13.600011
 40
0.000000
 41
0.000000
 42
0.000000
  0
SEQEND
  0
POLYLINE
  8
454
 66
1
 70
1
 40
0.000000
 41
0.000000
 39
0.000000
  0
VERTEX
  8
454
 10
24.755081
 20
14.300009
 40
0.000000
 41
0.000000
 42
0.000000
  0
VERTEX
  8
454
 10
25.005093
 20
14.300009
 40
0.000000
 41
0.000000
 42
0.000000
  0
VERTEX
  8
454
 10
25.005093
 20
13.600011
 40
0.000000
 41
0.000000
 42
0.000000
  0
VERTEX
  8
454
 10
24.755081
 20
13.600011
 40
0.000000
 41
0.000000
 42
0.000000
  0
SEQEND
  0
POLYLINE
  8
454
 66
1
 70
1
 40
0.000000
 41
0.000000
 39
0.000000
  0
VERTEX
  8
454
 10
25.254903
 20
14.300009
 40
0.000000
 41
0.000000
 42
0.000000
  0
VERTEX
  8
454
 10
25.504915
 20
14.300009
 40
0.000000
 41
0.000000
 42
0.000000
  0
VERTEX
  8
454
 10
25.504915
 20
13.600011
 40
0.000000
 41
0.000000
 42
0.000000
  0
VERTEX
  8
454
 10
25.254903
 20
13.600011
 40
0.000000
 41
0.000000
 42
0.000000
  0
SEQEND
  0
POLYLINE
  8
454
 66
1
 70
1
 40
0.000000
 41
0.000000
 39
0.000000
  0
VERTEX
  8
454
 10
25.755105
 20
14.300009
 40
0.000000
 41
0.000000
 42
0.000000
  0
VERTEX
  8
454
 10
26.005117
 20
14.300009
 40
0.000000
 41
0.000000
 42
0.000000
  0
VERTEX
  8
454
 10
26.005117
 20
13.600011
 40
0.000000
 41
0.000000
 42
0.000000
  0
VERTEX
  8
454
 10
25.755105
 20
13.600011
 40
0.000000
 41
0.000000
 42
0.000000
  0
SEQEND
  0
POLYLINE
  8
454
 66
1
 70
1
 40
0.000000
 41
0.000000
 39
0.000000
  0
VERTEX
  8
454
 10
26.930007
 20
13.375119
 40
0.000000
 41
0.000000
 42
0.000000
  0
VERTEX
  8
454
 10
26.930007
 20
13.125107
 40
0.000000
 41
0.000000
 42
0.000000
  0
VERTEX
  8
454
 10
26.230009
 20
13.125107
 40
0.000000
 41
0.000000
 42
0.000000
  0
VERTEX
  8
454
 10
26.230009
 20
13.375119
 40
0.000000
 41
0.000000
 42
0.000000
  0
SEQEND
  0
POLYLINE
  8
454
 66
1
 70
1
 40
0.000000
 41
0.000000
 39
0.000000
  0
VERTEX
  8
454
 10
26.930007
 20
12.874917
 40
0.000000
 41
0.000000
 42
0.000000
  0
VERTEX
  8
454
 10
26.930007
 20
12.624905
 40
0.000000
 41
0.000000
 42
0.000000
  0
VERTEX
  8
454
 10
26.230009
 20
12.624905
 40
0.000000
 41
0.000000
 42
0.000000
  0
VERTEX
  8
454
 10
26.230009
 20
12.874917
 40
0.000000
 41
0.000000
 42
0.000000
  0
SEQEND
  0
POLYLINE
  8
454
 66
1
 70
1
 40
0.000000
 41
0.000000
 39
0.000000
  0
VERTEX
  8
454
 10
26.930007
 20
12.375096
 40
0.000000
 41
0.000000
 42
0.000000
  0
VERTEX
  8
454
 10
26.930007
 20
12.125084
 40
0.000000
 41
0.000000
 42
0.000000
  0
VERTEX
  8
454
 10
26.230009
 20
12.125084
 40
0.000000
 41
0.000000
 42
0.000000
  0
VERTEX
  8
454
 10
26.230009
 20
12.375096
 40
0.000000
 41
0.000000
 42
0.000000
  0
SEQEND
  0
POLYLINE
  8
454
 66
1
 70
1
 40
0.000000
 41
0.000000
 39
0.000000
  0
VERTEX
  8
454
 10
26.930007
 20
11.874919
 40
0.000000
 41
0.000000
 42
0.000000
  0
VERTEX
  8
454
 10
26.930007
 20
11.624907
 40
0.000000
 41
0.000000
 42
0.000000
  0
VERTEX
  8
454
 10
26.230009
 20
11.624907
 40
0.000000
 41
0.000000
 42
0.000000
  0
VERTEX
  8
454
 10
26.230009
 20
11.874919
 40
0.000000
 41
0.000000
 42
0.000000
  0
SEQEND
  0
POLYLINE
  8
454
 66
1
 70
1
 40
0.000000
 41
0.000000
 39
0.000000
  0
VERTEX
  8
454
 10
26.930007
 20
11.375098
 40
0.000000
 41
0.000000
 42
0.000000
  0
VERTEX
  8
454
 10
26.930007
 20
11.125086
 40
0.000000
 41
0.000000
 42
0.000000
  0
VERTEX
  8
454
 10
26.230009
 20
11.125086
 40
0.000000
 41
0.000000
 42
0.000000
  0
VERTEX
  8
454
 10
26.230009
 20
11.375098
 40
0.000000
 41
0.000000
 42
0.000000
  0
SEQEND
  0
POLYLINE
  8
454
 66
1
 70
1
 40
0.000000
 41
0.000000
 39
0.000000
  0
VERTEX
  8
454
 10
26.930007
 20
10.874921
 40
0.000000
 41
0.000000
 42
0.000000
  0
VERTEX
  8
454
 10
26.930007
 20
10.624909
 40
0.000000
 41
0.000000
 42
0.000000
  0
VERTEX
  8
454
 10
26.230009
 20
10.624909
 40
0.000000
 41
0.000000
 42
0.000000
  0
VERTEX
  8
454
 10
26.230009
 20
10.874921
 40
0.000000
 41
0.000000
 42
0.000000
  0
SEQEND
  0
POLYLINE
  8
454
 66
1
 70
1
 40
0.000000
 41
0.000000
 39
0.000000
  0
VERTEX
  8
454
 10
26.930007
 20
10.375100
 40
0.000000
 41
0.000000
 42
0.000000
  0
VERTEX
  8
454
 10
26.930007
 20
10.125088
 40
0.000000
 41
0.000000
 42
0.000000
  0
VERTEX
  8
454
 10
26.230009
 20
10.125088
 40
0.000000
 41
0.000000
 42
0.000000
  0
VERTEX
  8
454
 10
26.230009
 20
10.375100
 40
0.000000
 41
0.000000
 42
0.000000
  0
SEQEND
  0
POLYLINE
  8
454
 66
1
 70
1
 40
0.000000
 41
0.000000
 39
0.000000
  0
VERTEX
  8
454
 10
26.930007
 20
9.874898
 40
0.000000
 41
0.000000
 42
0.000000
  0
VERTEX
  8
454
 10
26.930007
 20
9.624885
 40
0.000000
 41
0.000000
 42
0.000000
  0
VERTEX
  8
454
 10
26.230009
 20
9.624885
 40
0.000000
 41
0.000000
 42
0.000000
  0
VERTEX
  8
454
 10
26.230009
 20
9.874898
 40
0.000000
 41
0.000000
 42
0.000000
  0
SEQEND
  0
POLYLINE
  8
454
 66
1
 70
0
 40
0.000000
 41
0.000000
 39
0.000000
  0
VERTEX
  8
454
 10
22.030004
 20
9.000007
 40
0.150012
 41
0.150012
 42
0.000000
  0
VERTEX
  8
454
 10
21.630005
 20
9.000007
 40
0.150012
 41
0.150012
 42
0.000000
  0
VERTEX
  8
454
 10
21.630005
 20
9.400007
 40
0.150012
 41
0.150012
 42
0.000000
  0
SEQEND
  0
POLYLINE
  8
454
 66
1
 70
0
 40
0.000000
 41
0.000000
 39
0.000000
  0
VERTEX
  8
454
 10
21.630005
 20
13.599998
 40
0.150012
 41
0.150012
 42
0.000000
  0
VERTEX
  8
454
 10
21.630005
 20
13.999997
 40
0.150012
 41
0.150012
 42
0.000000
  0
VERTEX
  8
454
 10
22.030004
 20
13.999997
 40
0.150012
 41
0.150012
 42
0.000000
  0
SEQEND
  0
POLYLINE
  8
454
 66
1
 70
0
 40
0.000000
 41
0.000000
 39
0.000000
  0
VERTEX
  8
454
 10
26.629995
 20
13.599998
 40
0.150012
 41
0.150012
 42
0.000000
  0
VERTEX
  8
454
 10
26.629995
 20
13.999997
 40
0.150012
 41
0.150012
 42
0.000000
  0
VERTEX
  8
454
 10
26.229996
 20
13.999997
 40
0.150012
 41
0.150012
 42
0.000000
  0
SEQEND
  0
POLYLINE
  8
454
 66
1
 70
0
 40
0.000000
 41
0.000000
 39
0.000000
  0
VERTEX
  8
454
 10
26.229996
 20
9.000007
 40
0.150012
 41
0.150012
 42
0.000000
  0
VERTEX
  8
454
 10
26.329996
 20
9.000007
 40
0.150012
 41
0.150012
 42
0.000000
  0
VERTEX
  8
454
 10
26.629995
 20
9.300007
 40
0.150012
 41
0.150012
 42
0.000000
  0
VERTEX
  8
454
 10
26.629995
 20
9.400007
 40
0.150012
 41
0.150012
 42
0.000000
  0
SEQEND
  0
POLYLINE
  8
454
 66
1
 70
1
 40
0.000000
 41
0.000000
 39
0.000000
  0
VERTEX
  8
454
 10
27.730018
 20
9.700006
 40
0.000000
 41
0.000000
 42
1.000000
  0
VERTEX
  8
454
 10
27.129982
 20
9.699999
 40
0.000000
 41
0.000000
 42
1.000000
  0
SEQEND
  0
TEXT
  8
454
 10
23.545800
 20
14.986000
 11
0.000000
 21
0.000000
 40
0.762000
 41
0.866667
 50
0.000000
  7
STANDARD
 71
0
 72
0
  1
U2
 73
0
  0
CIRCLE
  8
454
 10
2.499995
 20
20.500010
 40
1.049998
  0
CIRCLE
  8
454
 10
2.499995
 20
2.499995
 40
1.049998
  0
CIRCLE
  8
454
 10
47.500007
 20
20.500010
 40
1.049998
  0
CIRCLE
  8
454
 10
47.500007
 20
2.499995
 40
1.049998
  0
POLYLINE
  8
454
 66
1
 70
1
 40
0.000000
 41
0.000000
 39
0.000000
  0
VERTEX
  8
454
 10
16.824452
 20
11.199190
 40
0.000000
 41
0.000000
 42
0.000000
  0
VERTEX
  8
454
 10
18.024348
 20
11.199190
 40
0.000000
 41
0.000000
 42
0.000000
  0
VERTEX
  8
454
 10
18.024348
 20
9.799193
 40
0.000000
 41
0.000000
 42
0.000000
  0
VERTEX
  8
454
 10
16.824452
 20
9.799193
 40
0.000000
 41
0.000000
 42
0.000000
  0
SEQEND
  0
POLYLINE
  8
454
 66
1
 70
1
 40
0.000000
 41
0.000000
 39
0.000000
  0
VERTEX
  8
454
 10
16.824452
 20
13.200812
 40
0.000000
 41
0.000000
 42
0.000000
  0
VERTEX
  8
454
 10
18.024348
 20
13.200812
 40
0.000000
 41
0.000000
 42
0.000000
  0
VERTEX
  8
454
 10
18.024348
 20
11.800815
 40
0.000000
 41
0.000000
 42
0.000000
  0
VERTEX
  8
454
 10
16.824452
 20
11.800815
 40
0.000000
 41
0.000000
 42
0.000000
  0
SEQEND
  0
POLYLINE
  8
454
 66
1
 70
0
 40
0.000000
 41
0.000000
 39
0.000000
  0
VERTEX
  8
454
 10
16.525189
 20
13.399897
 40
0.149911
 41
0.149911
 42
0.000000
  0
VERTEX
  8
454
 10
18.323611
 20
13.399897
 40
0.149911
 41
0.149911
 42
0.000000
  0
SEQEND
  0
POLYLINE
  8
454
 66
1
 70
0
 40
0.000000
 41
0.000000
 39
0.000000
  0
VERTEX
  8
454
 10
16.525189
 20
9.600108
 40
0.149911
 41
0.149911
 42
0.000000
  0
VERTEX
  8
454
 10
16.525189
 20
13.399897
 40
0.149911
 41
0.149911
 42
0.000000
  0
SEQEND
  0
POLYLINE
  8
454
 66
1
 70
0
 40
0.000000
 41
0.000000
 39
0.000000
  0
VERTEX
  8
454
 10
18.323611
 20
9.600108
 40
0.149911
 41
0.149911
 42
0.000000
  0
VERTEX
  8
454
 10
16.525189
 20
9.600108
 40
0.149911
 41
0.149911
 42
0.000000
  0
SEQEND
  0
POLYLINE
  8
454
 66
1
 70
0
 40
0.000000
 41
0.000000
 39
0.000000
  0
VERTEX
  8
454
 10
18.323611
 20
13.399897
 40
0.149911
 41
0.149911
 42
0.000000
  0
VERTEX
  8
454
 10
18.323611
 20
9.600108
 40
0.149911
 41
0.149911
 42
0.000000
  0
SEQEND
  0
TEXT
  8
454
 10
17.195800
 20
14.097000
 11
0.000000
 21
0.000000
 40
0.762000
 41
0.866667
 50
0.000000
  7
STANDARD
 71
0
 72
0
  1
Y2
 73
0
  0
POLYLINE
  8
454
 66
1
 70
1
 40
0.000000
 41
0.000000
 39
0.000000
  0
VERTEX
  8
454
 10
31.619012
 20
13.300011
 40
0.000000
 41
0.000000
 42
0.000000
  0
VERTEX
  8
454
 10
32.619010
 20
13.300011
 40
0.000000
 41
0.000000
 42
0.000000
  0
VERTEX
  8
454
 10
32.619010
 20
12.000014
 40
0.000000
 41
0.000000
 42
0.000000
  0
VERTEX
  8
454
 10
31.619012
 20
12.000014
 40
0.000000
 41
0.000000
 42
0.000000
  0
SEQEND
  0
POLYLINE
  8
454
 66
1
 70
1
 40
0.000000
 41
0.000000
 39
0.000000
  0
VERTEX
  8
454
 10
31.619012
 20
10.999991
 40
0.000000
 41
0.000000
 42
0.000000
  0
VERTEX
  8
454
 10
32.619010
 20
10.999991
 40
0.000000
 41
0.000000
 42
0.000000
  0
VERTEX
  8
454
 10
32.619010
 20
9.699993
 40
0.000000
 41
0.000000
 42
0.000000
  0
VERTEX
  8
454
 10
31.619012
 20
9.699993
 40
0.000000
 41
0.000000
 42
0.000000
  0
SEQEND
  0
POLYLINE
  8
454
 66
1
 70
1
 40
0.000000
 41
0.000000
 39
0.000000
  0
VERTEX
  8
454
 10
30.118990
 20
13.300011
 40
0.000000
 41
0.000000
 42
0.000000
  0
VERTEX
  8
454
 10
31.118988
 20
13.300011
 40
0.000000
 41
0.000000
 42
0.000000
  0
VERTEX
  8
454
 10
31.118988
 20
12.000014
 40
0.000000
 41
0.000000
 42
0.000000
  0
VERTEX
  8
454
 10
30.118990
 20
12.000014
 40
0.000000
 41
0.000000
 42
0.000000
  0
SEQEND
  0
POLYLINE
  8
454
 66
1
 70
1
 40
0.000000
 41
0.000000
 39
0.000000
  0
VERTEX
  8
454
 10
30.118990
 20
10.999991
 40
0.000000
 41
0.000000
 42
0.000000
  0
VERTEX
  8
454
 10
31.118988
 20
10.999991
 40
0.000000
 41
0.000000
 42
0.000000
  0
VERTEX
  8
454
 10
31.118988
 20
9.699993
 40
0.000000
 41
0.000000
 42
0.000000
  0
VERTEX
  8
454
 10
30.118990
 20
9.699993
 40
0.000000
 41
0.000000
 42
0.000000
  0
SEQEND
  0
POLYLINE
  8
454
 66
1
 70
0
 40
0.000000
 41
0.000000
 39
0.000000
  0
VERTEX
  8
454
 10
30.169002
 20
11.800002
 40
0.150012
 41
0.150012
 42
0.000000
  0
VERTEX
  8
454
 10
30.169002
 20
11.200003
 40
0.150012
 41
0.150012
 42
0.000000
  0
SEQEND
  0
POLYLINE
  8
454
 66
1
 70
0
 40
0.000000
 41
0.000000
 39
0.000000
  0
VERTEX
  8
454
 10
32.568998
 20
11.800002
 40
0.150012
 41
0.150012
 42
0.000000
  0
VERTEX
  8
454
 10
32.568998
 20
11.200003
 40
0.150012
 41
0.150012
 42
0.000000
  0
SEQEND
  0
POLYLINE
  8
454
 66
1
 70
1
 40
0.000000
 41
0.000000
 39
0.000000
  0
VERTEX
  8
454
 10
30.857012
 20
13.741400
 40
0.000000
 41
0.000000
 42
1.000000
  0
VERTEX
  8
454
 10
30.356981
 20
13.741405
 40
0.000000
 41
0.000000
 42
1.000000
  0
SEQEND
  0
TEXT
  8
454
 10
30.784800
 20
14.224000
 11
0.000000
 21
0.000000
 40
0.762000
 41
0.866667
 50
0.000000
  7
STANDARD
 71
0
 72
0
  1
Y1
 73
0
  0
POLYLINE
  8
454
 66
1
 70
1
 40
0.000000
 41
0.000000
 39
0.000000
  0
VERTEX
  8
454
 10
5.150002
 20
21.533993
 40
0.000000
 41
0.000000
 42
0.000000
  0
VERTEX
  8
454
 10
5.150002
 20
19.933996
 40
0.000000
 41
0.000000
 42
0.000000
  0
VERTEX
  8
454
 10
6.749999
 20
19.933996
 40
0.000000
 41
0.000000
 42
0.000000
  0
VERTEX
  8
454
 10
6.749999
 20
21.533993
 40
0.000000
 41
0.000000
 42
0.000000
  0
SEQEND
  0
CIRCLE
  8
454
 10
8.490001
 20
20.733995
 40
0.799998
  0
CIRCLE
  8
454
 10
11.030001
 20
20.733995
 40
0.799998
  0
CIRCLE
  8
454
 10
13.570001
 20
20.733995
 40
0.799998
  0
CIRCLE
  8
454
 10
16.110001
 20
20.733995
 40
0.799998
  0
CIRCLE
  8
454
 10
18.650001
 20
20.733995
 40
0.799998
  0
CIRCLE
  8
454
 10
21.190001
 20
20.733995
 40
0.799998
  0
CIRCLE
  8
454
 10
23.730001
 20
20.733995
 40
0.799998
  0
CIRCLE
  8
454
 10
26.270001
 20
20.733995
 40
0.799998
  0
CIRCLE
  8
454
 10
28.810001
 20
20.733995
 40
0.799998
  0
CIRCLE
  8
454
 10
31.350001
 20
20.733995
 40
0.799998
  0
CIRCLE
  8
454
 10
33.890001
 20
20.733995
 40
0.799998
  0
CIRCLE
  8
454
 10
36.430001
 20
20.733995
 40
0.799998
  0
CIRCLE
  8
454
 10
38.970001
 20
20.733995
 40
0.799998
  0
CIRCLE
  8
454
 10
41.510001
 20
20.733995
 40
0.799998
  0
CIRCLE
  8
454
 10
44.050001
 20
20.733995
 40
0.799998
  0
POLYLINE
  8
454
 66
1
 70
0
 40
0.000000
 41
0.000000
 39
0.000000
  0
VERTEX
  8
454
 10
7.220001
 20
20.133996
 40
0.499999
 41
0.499999
 42
0.000000
  0
VERTEX
  8
454
 10
7.220001
 20
21.333993
 40
0.499999
 41
0.499999
 42
0.000000
  0
SEQEND
  0
POLYLINE
  8
454
 66
1
 70
0
 40
0.000000
 41
0.000000
 39
0.000000
  0
VERTEX
  8
454
 10
9.760001
 20
20.133996
 40
0.499999
 41
0.499999
 42
0.000000
  0
VERTEX
  8
454
 10
9.760001
 20
21.333993
 40
0.499999
 41
0.499999
 42
0.000000
  0
SEQEND
  0
POLYLINE
  8
454
 66
1
 70
0
 40
0.000000
 41
0.000000
 39
0.000000
  0
VERTEX
  8
454
 10
12.300001
 20
20.133996
 40
0.499999
 41
0.499999
 42
0.000000
  0
VERTEX
  8
454
 10
12.300001
 20
21.333993
 40
0.499999
 41
0.499999
 42
0.000000
  0
SEQEND
  0
POLYLINE
  8
454
 66
1
 70
0
 40
0.000000
 41
0.000000
 39
0.000000
  0
VERTEX
  8
454
 10
14.840001
 20
20.133996
 40
0.499999
 41
0.499999
 42
0.000000
  0
VERTEX
  8
454
 10
14.840001
 20
21.333993
 40
0.499999
 41
0.499999
 42
0.000000
  0
SEQEND
  0
POLYLINE
  8
454
 66
1
 70
0
 40
0.000000
 41
0.000000
 39
0.000000
  0
VERTEX
  8
454
 10
17.380001
 20
20.133996
 40
0.499999
 41
0.499999
 42
0.000000
  0
VERTEX
  8
454
 10
17.380001
 20
21.333993
 40
0.499999
 41
0.499999
 42
0.000000
  0
SEQEND
  0
POLYLINE
  8
454
 66
1
 70
0
 40
0.000000
 41
0.000000
 39
0.000000
  0
VERTEX
  8
454
 10
19.920001
 20
20.133996
 40
0.499999
 41
0.499999
 42
0.000000
  0
VERTEX
  8
454
 10
19.920001
 20
21.333993
 40
0.499999
 41
0.499999
 42
0.000000
  0
SEQEND
  0
POLYLINE
  8
454
 66
1
 70
0
 40
0.000000
 41
0.000000
 39
0.000000
  0
VERTEX
  8
454
 10
22.460001
 20
20.133996
 40
0.499999
 41
0.499999
 42
0.000000
  0
VERTEX
  8
454
 10
22.460001
 20
21.333993
 40
0.499999
 41
0.499999
 42
0.000000
  0
SEQEND
  0
POLYLINE
  8
454
 66
1
 70
0
 40
0.000000
 41
0.000000
 39
0.000000
  0
VERTEX
  8
454
 10
25.000001
 20
20.133996
 40
0.499999
 41
0.499999
 42
0.000000
  0
VERTEX
  8
454
 10
25.000001
 20
21.333993
 40
0.499999
 41
0.499999
 42
0.000000
  0
SEQEND
  0
POLYLINE
  8
454
 66
1
 70
0
 40
0.000000
 41
0.000000
 39
0.000000
  0
VERTEX
  8
454
 10
27.540001
 20
20.133996
 40
0.499999
 41
0.499999
 42
0.000000
  0
VERTEX
  8
454
 10
27.540001
 20
21.333993
 40
0.499999
 41
0.499999
 42
0.000000
  0
SEQEND
  0
POLYLINE
  8
454
 66
1
 70
0
 40
0.000000
 41
0.000000
 39
0.000000
  0
VERTEX
  8
454
 10
30.080001
 20
20.133996
 40
0.499999
 41
0.499999
 42
0.000000
  0
VERTEX
  8
454
 10
30.080001
 20
21.333993
 40
0.499999
 41
0.499999
 42
0.000000
  0
SEQEND
  0
POLYLINE
  8
454
 66
1
 70
0
 40
0.000000
 41
0.000000
 39
0.000000
  0
VERTEX
  8
454
 10
32.620001
 20
20.133996
 40
0.499999
 41
0.499999
 42
0.000000
  0
VERTEX
  8
454
 10
32.620001
 20
21.333993
 40
0.499999
 41
0.499999
 42
0.000000
  0
SEQEND
  0
POLYLINE
  8
454
 66
1
 70
0
 40
0.000000
 41
0.000000
 39
0.000000
  0
VERTEX
  8
454
 10
35.160001
 20
20.133996
 40
0.499999
 41
0.499999
 42
0.000000
  0
VERTEX
  8
454
 10
35.160001
 20
21.333993
 40
0.499999
 41
0.499999
 42
0.000000
  0
SEQEND
  0
POLYLINE
  8
454
 66
1
 70
0
 40
0.000000
 41
0.000000
 39
0.000000
  0
VERTEX
  8
454
 10
37.700001
 20
20.133996
 40
0.499999
 41
0.499999
 42
0.000000
  0
VERTEX
  8
454
 10
37.700001
 20
21.333993
 40
0.499999
 41
0.499999
 42
0.000000
  0
SEQEND
  0
POLYLINE
  8
454
 66
1
 70
0
 40
0.000000
 41
0.000000
 39
0.000000
  0
VERTEX
  8
454
 10
40.240001
 20
20.133996
 40
0.499999
 41
0.499999
 42
0.000000
  0
VERTEX
  8
454
 10
40.240001
 20
21.333993
 40
0.499999
 41
0.499999
 42
0.000000
  0
SEQEND
  0
POLYLINE
  8
454
 66
1
 70
0
 40
0.000000
 41
0.000000
 39
0.000000
  0
VERTEX
  8
454
 10
42.780001
 20
20.133996
 40
0.499999
 41
0.499999
 42
0.000000
  0
VERTEX
  8
454
 10
42.780001
 20
21.333993
 40
0.499999
 41
0.499999
 42
0.000000
  0
SEQEND
  0
POLYLINE
  8
454
 66
1
 70
1
 40
0.000000
 41
0.000000
 39
0.000000
  0
VERTEX
  8
454
 10
5.150002
 20
3.066009
 40
0.000000
 41
0.000000
 42
0.000000
  0
VERTEX
  8
454
 10
5.150002
 20
1.466012
 40
0.000000
 41
0.000000
 42
0.000000
  0
VERTEX
  8
454
 10
6.749999
 20
1.466012
 40
0.000000
 41
0.000000
 42
0.000000
  0
VERTEX
  8
454
 10
6.749999
 20
3.066009
 40
0.000000
 41
0.000000
 42
0.000000
  0
SEQEND
  0
CIRCLE
  8
454
 10
8.490001
 20
2.266010
 40
0.799998
  0
CIRCLE
  8
454
 10
11.030001
 20
2.266010
 40
0.799998
  0
CIRCLE
  8
454
 10
13.570001
 20
2.266010
 40
0.799998
  0
CIRCLE
  8
454
 10
16.110001
 20
2.266010
 40
0.799998
  0
CIRCLE
  8
454
 10
18.650001
 20
2.266010
 40
0.799998
  0
CIRCLE
  8
454
 10
21.190001
 20
2.266010
 40
0.799998
  0
CIRCLE
  8
454
 10
23.730001
 20
2.266010
 40
0.799998
  0
CIRCLE
  8
454
 10
26.270001
 20
2.266010
 40
0.799998
  0
CIRCLE
  8
454
 10
28.810001
 20
2.266010
 40
0.799998
  0
CIRCLE
  8
454
 10
31.350001
 20
2.266010
 40
0.799998
  0
CIRCLE
  8
454
 10
33.890001
 20
2.266010
 40
0.799998
  0
CIRCLE
  8
454
 10
36.430001
 20
2.266010
 40
0.799998
  0
CIRCLE
  8
454
 10
38.970001
 20
2.266010
 40
0.799998
  0
CIRCLE
  8
454
 10
41.510001
 20
2.266010
 40
0.799998
  0
CIRCLE
  8
454
 10
44.050001
 20
2.266010
 40
0.799998
  0
POLYLINE
  8
454
 66
1
 70
0
 40
0.000000
 41
0.000000
 39
0.000000
  0
VERTEX
  8
454
 10
7.220001
 20
1.666011
 40
0.499999
 41
0.499999
 42
0.000000
  0
VERTEX
  8
454
 10
7.220001
 20
2.866009
 40
0.499999
 41
0.499999
 42
0.000000
  0
SEQEND
  0
POLYLINE
  8
454
 66
1
 70
0
 40
0.000000
 41
0.000000
 39
0.000000
  0
VERTEX
  8
454
 10
9.760001
 20
1.666011
 40
0.499999
 41
0.499999
 42
0.000000
  0
VERTEX
  8
454
 10
9.760001
 20
2.866009
 40
0.499999
 41
0.499999
 42
0.000000
  0
SEQEND
  0
POLYLINE
  8
454
 66
1
 70
0
 40
0.000000
 41
0.000000
 39
0.000000
  0
VERTEX
  8
454
 10
12.300001
 20
1.666011
 40
0.499999
 41
0.499999
 42
0.000000
  0
VERTEX
  8
454
 10
12.300001
 20
2.866009
 40
0.499999
 41
0.499999
 42
0.000000
  0
SEQEND
  0
POLYLINE
  8
454
 66
1
 70
0
 40
0.000000
 41
0.000000
 39
0.000000
  0
VERTEX
  8
454
 10
14.840001
 20
1.666011
 40
0.499999
 41
0.499999
 42
0.000000
  0
VERTEX
  8
454
 10
14.840001
 20
2.866009
 40
0.499999
 41
0.499999
 42
0.000000
  0
SEQEND
  0
POLYLINE
  8
454
 66
1
 70
0
 40
0.000000
 41
0.000000
 39
0.000000
  0
VERTEX
  8
454
 10
17.380001
 20
1.666011
 40
0.499999
 41
0.499999
 42
0.000000
  0
VERTEX
  8
454
 10
17.380001
 20
2.866009
 40
0.499999
 41
0.499999
 42
0.000000
  0
SEQEND
  0
POLYLINE
  8
454
 66
1
 70
0
 40
0.000000
 41
0.000000
 39
0.000000
  0
VERTEX
  8
454
 10
19.920001
 20
1.666011
 40
0.499999
 41
0.499999
 42
0.000000
  0
VERTEX
  8
454
 10
19.920001
 20
2.866009
 40
0.499999
 41
0.499999
 42
0.000000
  0
SEQEND
  0
POLYLINE
  8
454
 66
1
 70
0
 40
0.000000
 41
0.000000
 39
0.000000
  0
VERTEX
  8
454
 10
22.460001
 20
1.666011
 40
0.499999
 41
0.499999
 42
0.000000
  0
VERTEX
  8
454
 10
22.460001
 20
2.866009
 40
0.499999
 41
0.499999
 42
0.000000
  0
SEQEND
  0
POLYLINE
  8
454
 66
1
 70
0
 40
0.000000
 41
0.000000
 39
0.000000
  0
VERTEX
  8
454
 10
25.000001
 20
1.666011
 40
0.499999
 41
0.499999
 42
0.000000
  0
VERTEX
  8
454
 10
25.000001
 20
2.866009
 40
0.499999
 41
0.499999
 42
0.000000
  0
SEQEND
  0
POLYLINE
  8
454
 66
1
 70
0
 40
0.000000
 41
0.000000
 39
0.000000
  0
VERTEX
  8
454
 10
27.540001
 20
1.666011
 40
0.499999
 41
0.499999
 42
0.000000
  0
VERTEX
  8
454
 10
27.540001
 20
2.866009
 40
0.499999
 41
0.499999
 42
0.000000
  0
SEQEND
  0
POLYLINE
  8
454
 66
1
 70
0
 40
0.000000
 41
0.000000
 39
0.000000
  0
VERTEX
  8
454
 10
30.080001
 20
1.666011
 40
0.499999
 41
0.499999
 42
0.000000
  0
VERTEX
  8
454
 10
30.080001
 20
2.866009
 40
0.499999
 41
0.499999
 42
0.000000
  0
SEQEND
  0
POLYLINE
  8
454
 66
1
 70
0
 40
0.000000
 41
0.000000
 39
0.000000
  0
VERTEX
  8
454
 10
32.620001
 20
1.666011
 40
0.499999
 41
0.499999
 42
0.000000
  0
VERTEX
  8
454
 10
32.620001
 20
2.866009
 40
0.499999
 41
0.499999
 42
0.000000
  0
SEQEND
  0
POLYLINE
  8
454
 66
1
 70
0
 40
0.000000
 41
0.000000
 39
0.000000
  0
VERTEX
  8
454
 10
35.160001
 20
1.666011
 40
0.499999
 41
0.499999
 42
0.000000
  0
VERTEX
  8
454
 10
35.160001
 20
2.866009
 40
0.499999
 41
0.499999
 42
0.000000
  0
SEQEND
  0
POLYLINE
  8
454
 66
1
 70
0
 40
0.000000
 41
0.000000
 39
0.000000
  0
VERTEX
  8
454
 10
37.700001
 20
1.666011
 40
0.499999
 41
0.499999
 42
0.000000
  0
VERTEX
  8
454
 10
37.700001
 20
2.866009
 40
0.499999
 41
0.499999
 42
0.000000
  0
SEQEND
  0
POLYLINE
  8
454
 66
1
 70
0
 40
0.000000
 41
0.000000
 39
0.000000
  0
VERTEX
  8
454
 10
40.240001
 20
1.666011
 40
0.499999
 41
0.499999
 42
0.000000
  0
VERTEX
  8
454
 10
40.240001
 20
2.866009
 40
0.499999
 41
0.499999
 42
0.000000
  0
SEQEND
  0
POLYLINE
  8
454
 66
1
 70
0
 40
0.000000
 41
0.000000
 39
0.000000
  0
VERTEX
  8
454
 10
42.780001
 20
1.666011
 40
0.499999
 41
0.499999
 42
0.000000
  0
VERTEX
  8
454
 10
42.780001
 20
2.866009
 40
0.499999
 41
0.499999
 42
0.000000
  0
SEQEND
  0
POLYLINE
  8
454
 66
1
 70
1
 40
0.000000
 41
0.000000
 39
0.000000
  0
VERTEX
  8
454
 10
10.864850
 20
5.569001
 40
0.000000
 41
0.000000
 42
0.000000
  0
VERTEX
  8
454
 10
10.864850
 20
6.369101
 40
0.000000
 41
0.000000
 42
0.000000
  0
VERTEX
  8
454
 10
11.664950
 20
6.369101
 40
0.000000
 41
0.000000
 42
0.000000
  0
VERTEX
  8
454
 10
11.664950
 20
5.569001
 40
0.000000
 41
0.000000
 42
0.000000
  0
SEQEND
  0
POLYLINE
  8
454
 66
1
 70
1
 40
0.000000
 41
0.000000
 39
0.000000
  0
VERTEX
  8
454
 10
12.465050
 20
5.569001
 40
0.000000
 41
0.000000
 42
0.000000
  0
VERTEX
  8
454
 10
12.465050
 20
6.369101
 40
0.000000
 41
0.000000
 42
0.000000
  0
VERTEX
  8
454
 10
13.265150
 20
6.369101
 40
0.000000
 41
0.000000
 42
0.000000
  0
VERTEX
  8
454
 10
13.265150
 20
5.569001
 40
0.000000
 41
0.000000
 42
0.000000
  0
SEQEND
  0
POLYLINE
  8
454
 66
1
 70
0
 40
0.000000
 41
0.000000
 39
0.000000
  0
VERTEX
  8
454
 10
10.680700
 20
6.578651
 40
0.152400
 41
0.152400
 42
0.000000
  0
VERTEX
  8
454
 10
13.462000
 20
6.578651
 40
0.152400
 41
0.152400
 42
0.000000
  0
SEQEND
  0
POLYLINE
  8
454
 66
1
 70
0
 40
0.000000
 41
0.000000
 39
0.000000
  0
VERTEX
  8
454
 10
13.462000
 20
6.578651
 40
0.152400
 41
0.152400
 42
0.000000
  0
VERTEX
  8
454
 10
13.462000
 20
5.359451
 40
0.152400
 41
0.152400
 42
0.000000
  0
SEQEND
  0
POLYLINE
  8
454
 66
1
 70
0
 40
0.000000
 41
0.000000
 39
0.000000
  0
VERTEX
  8
454
 10
13.462000
 20
5.359451
 40
0.152400
 41
0.152400
 42
0.000000
  0
VERTEX
  8
454
 10
10.680700
 20
5.359451
 40
0.152400
 41
0.152400
 42
0.000000
  0
SEQEND
  0
POLYLINE
  8
454
 66
1
 70
0
 40
0.000000
 41
0.000000
 39
0.000000
  0
VERTEX
  8
454
 10
10.680700
 20
5.359451
 40
0.152400
 41
0.152400
 42
0.000000
  0
VERTEX
  8
454
 10
10.680700
 20
6.578651
 40
0.152400
 41
0.152400
 42
0.000000
  0
SEQEND
  0
TEXT
  8
454
 10
11.607800
 20
4.318000
 11
0.000000
 21
0.000000
 40
0.762000
 41
0.866667
 50
0.000000
  7
STANDARD
 71
0
 72
0
  1
L1
 73
0
  0
POLYLINE
  8
454
 66
1
 70
1
 40
0.000000
 41
0.000000
 39
0.000000
  0
VERTEX
  8
454
 10
37.764695
 20
10.700410
 40
0.000000
 41
0.000000
 42
0.000000
  0
VERTEX
  8
454
 10
37.165305
 20
10.700410
 40
0.000000
 41
0.000000
 42
0.000000
  0
VERTEX
  8
454
 10
37.165305
 20
11.299800
 40
0.000000
 41
0.000000
 42
0.000000
  0
VERTEX
  8
454
 10
37.764695
 20
11.299800
 40
0.000000
 41
0.000000
 42
0.000000
  0
SEQEND
  0
POLYLINE
  8
454
 66
1
 70
1
 40
0.000000
 41
0.000000
 39
0.000000
  0
VERTEX
  8
454
 10
37.764695
 20
11.700205
 40
0.000000
 41
0.000000
 42
0.000000
  0
VERTEX
  8
454
 10
37.165305
 20
11.700205
 40
0.000000
 41
0.000000
 42
0.000000
  0
VERTEX
  8
454
 10
37.165305
 20
12.299594
 40
0.000000
 41
0.000000
 42
0.000000
  0
VERTEX
  8
454
 10
37.764695
 20
12.299594
 40
0.000000
 41
0.000000
 42
0.000000
  0
SEQEND
  0
POLYLINE
  8
454
 66
1
 70
0
 40
0.000000
 41
0.000000
 39
0.000000
  0
VERTEX
  8
454
 10
37.033200
 20
10.560202
 40
0.101600
 41
0.101600
 42
0.000000
  0
VERTEX
  8
454
 10
37.033200
 20
12.439802
 40
0.101600
 41
0.101600
 42
0.000000
  0
VERTEX
  8
454
 10
37.896800
 20
12.439802
 40
0.101600
 41
0.101600
 42
0.000000
  0
VERTEX
  8
454
 10
37.896800
 20
10.560202
 40
0.101600
 41
0.101600
 42
0.000000
  0
VERTEX
  8
454
 10
37.033200
 20
10.560202
 40
0.101600
 41
0.101600
 42
0.000000
  0
SEQEND
  0
TEXT
  8
454
 10
36.880800
 20
12.649200
 11
0.000000
 21
0.000000
 40
0.762000
 41
0.866667
 50
0.000000
  7
STANDARD
 71
0
 72
0
  1
R8
 73
0
  0
POLYLINE
  8
454
 66
1
 70
1
 40
0.000000
 41
0.000000
 39
0.000000
  0
VERTEX
  8
454
 10
33.863305
 20
12.299594
 40
0.000000
 41
0.000000
 42
0.000000
  0
VERTEX
  8
454
 10
34.462695
 20
12.299594
 40
0.000000
 41
0.000000
 42
0.000000
  0
VERTEX
  8
454
 10
34.462695
 20
11.700205
 40
0.000000
 41
0.000000
 42
0.000000
  0
VERTEX
  8
454
 10
33.863305
 20
11.700205
 40
0.000000
 41
0.000000
 42
0.000000
  0
SEQEND
  0
POLYLINE
  8
454
 66
1
 70
1
 40
0.000000
 41
0.000000
 39
0.000000
  0
VERTEX
  8
454
 10
33.863305
 20
11.299800
 40
0.000000
 41
0.000000
 42
0.000000
  0
VERTEX
  8
454
 10
34.462695
 20
11.299800
 40
0.000000
 41
0.000000
 42
0.000000
  0
VERTEX
  8
454
 10
34.462695
 20
10.700410
 40
0.000000
 41
0.000000
 42
0.000000
  0
VERTEX
  8
454
 10
33.863305
 20
10.700410
 40
0.000000
 41
0.000000
 42
0.000000
  0
SEQEND
  0
POLYLINE
  8
454
 66
1
 70
0
 40
0.000000
 41
0.000000
 39
0.000000
  0
VERTEX
  8
454
 10
34.594800
 20
12.439802
 40
0.101600
 41
0.101600
 42
0.000000
  0
VERTEX
  8
454
 10
34.594800
 20
10.560202
 40
0.101600
 41
0.101600
 42
0.000000
  0
VERTEX
  8
454
 10
33.731200
 20
10.560202
 40
0.101600
 41
0.101600
 42
0.000000
  0
VERTEX
  8
454
 10
33.731200
 20
12.439802
 40
0.101600
 41
0.101600
 42
0.000000
  0
VERTEX
  8
454
 10
34.594800
 20
12.439802
 40
0.101600
 41
0.101600
 42
0.000000
  0
SEQEND
  0
TEXT
  8
454
 10
33.578800
 20
12.573000
 11
0.000000
 21
0.000000
 40
0.762000
 41
0.866667
 50
0.000000
  7
STANDARD
 71
0
 72
0
  1
R5
 73
0
  0
POLYLINE
  8
454
 66
1
 70
1
 40
0.000000
 41
0.000000
 39
0.000000
  0
VERTEX
  8
454
 10
33.863305
 20
17.055592
 40
0.000000
 41
0.000000
 42
0.000000
  0
VERTEX
  8
454
 10
34.462695
 20
17.055592
 40
0.000000
 41
0.000000
 42
0.000000
  0
VERTEX
  8
454
 10
34.462695
 20
16.456203
 40
0.000000
 41
0.000000
 42
0.000000
  0
VERTEX
  8
454
 10
33.863305
 20
16.456203
 40
0.000000
 41
0.000000
 42
0.000000
  0
SEQEND
  0
POLYLINE
  8
454
 66
1
 70
1
 40
0.000000
 41
0.000000
 39
0.000000
  0
VERTEX
  8
454
 10
33.863305
 20
16.055797
 40
0.000000
 41
0.000000
 42
0.000000
  0
VERTEX
  8
454
 10
34.462695
 20
16.055797
 40
0.000000
 41
0.000000
 42
0.000000
  0
VERTEX
  8
454
 10
34.462695
 20
15.456408
 40
0.000000
 41
0.000000
 42
0.000000
  0
VERTEX
  8
454
 10
33.863305
 20
15.456408
 40
0.000000
 41
0.000000
 42
0.000000
  0
SEQEND
  0
POLYLINE
  8
454
 66
1
 70
0
 40
0.000000
 41
0.000000
 39
0.000000
  0
VERTEX
  8
454
 10
34.594800
 20
17.195800
 40
0.101600
 41
0.101600
 42
0.000000
  0
VERTEX
  8
454
 10
34.594800
 20
15.316200
 40
0.101600
 41
0.101600
 42
0.000000
  0
VERTEX
  8
454
 10
33.731200
 20
15.316200
 40
0.101600
 41
0.101600
 42
0.000000
  0
VERTEX
  8
454
 10
33.731200
 20
17.195800
 40
0.101600
 41
0.101600
 42
0.000000
  0
VERTEX
  8
454
 10
34.594800
 20
17.195800
 40
0.101600
 41
0.101600
 42
0.000000
  0
SEQEND
  0
TEXT
  8
454
 10
33.477200
 20
17.424400
 11
0.000000
 21
0.000000
 40
0.762000
 41
0.866667
 50
0.000000
  7
STANDARD
 71
0
 72
0
  1
R4
 73
0
  0
POLYLINE
  8
454
 66
1
 70
1
 40
0.000000
 41
0.000000
 39
0.000000
  0
VERTEX
  8
454
 10
14.059408
 20
5.669305
 40
0.000000
 41
0.000000
 42
0.000000
  0
VERTEX
  8
454
 10
14.059408
 20
6.268695
 40
0.000000
 41
0.000000
 42
0.000000
  0
VERTEX
  8
454
 10
14.658797
 20
6.268695
 40
0.000000
 41
0.000000
 42
0.000000
  0
VERTEX
  8
454
 10
14.658797
 20
5.669305
 40
0.000000
 41
0.000000
 42
0.000000
  0
SEQEND
  0
POLYLINE
  8
454
 66
1
 70
1
 40
0.000000
 41
0.000000
 39
0.000000
  0
VERTEX
  8
454
 10
15.059203
 20
5.669305
 40
0.000000
 41
0.000000
 42
0.000000
  0
VERTEX
  8
454
 10
15.059203
 20
6.268695
 40
0.000000
 41
0.000000
 42
0.000000
  0
VERTEX
  8
454
 10
15.658592
 20
6.268695
 40
0.000000
 41
0.000000
 42
0.000000
  0
VERTEX
  8
454
 10
15.658592
 20
5.669305
 40
0.000000
 41
0.000000
 42
0.000000
  0
SEQEND
  0
POLYLINE
  8
454
 66
1
 70
0
 40
0.000000
 41
0.000000
 39
0.000000
  0
VERTEX
  8
454
 10
13.919200
 20
6.400800
 40
0.101600
 41
0.101600
 42
0.000000
  0
VERTEX
  8
454
 10
15.798800
 20
6.400800
 40
0.101600
 41
0.101600
 42
0.000000
  0
VERTEX
  8
454
 10
15.798800
 20
5.537200
 40
0.101600
 41
0.101600
 42
0.000000
  0
VERTEX
  8
454
 10
13.919200
 20
5.537200
 40
0.101600
 41
0.101600
 42
0.000000
  0
VERTEX
  8
454
 10
13.919200
 20
6.400800
 40
0.101600
 41
0.101600
 42
0.000000
  0
SEQEND
  0
TEXT
  8
454
 10
14.274800
 20
4.318000
 11
0.000000
 21
0.000000
 40
0.762000
 41
0.866667
 50
0.000000
  7
STANDARD
 71
0
 72
0
  1
R2
 73
0
  0
POLYLINE
  8
454
 66
1
 70
1
 40
0.000000
 41
0.000000
 39
0.000000
  0
VERTEX
  8
454
 10
37.165305
 20
9.054592
 40
0.000000
 41
0.000000
 42
0.000000
  0
VERTEX
  8
454
 10
37.764695
 20
9.054592
 40
0.000000
 41
0.000000
 42
0.000000
  0
VERTEX
  8
454
 10
37.764695
 20
8.455203
 40
0.000000
 41
0.000000
 42
0.000000
  0
VERTEX
  8
454
 10
37.165305
 20
8.455203
 40
0.000000
 41
0.000000
 42
0.000000
  0
SEQEND
  0
POLYLINE
  8
454
 66
1
 70
1
 40
0.000000
 41
0.000000
 39
0.000000
  0
VERTEX
  8
454
 10
37.165305
 20
8.054797
 40
0.000000
 41
0.000000
 42
0.000000
  0
VERTEX
  8
454
 10
37.764695
 20
8.054797
 40
0.000000
 41
0.000000
 42
0.000000
  0
VERTEX
  8
454
 10
37.764695
 20
7.455408
 40
0.000000
 41
0.000000
 42
0.000000
  0
VERTEX
  8
454
 10
37.165305
 20
7.455408
 40
0.000000
 41
0.000000
 42
0.000000
  0
SEQEND
  0
POLYLINE
  8
454
 66
1
 70
0
 40
0.000000
 41
0.000000
 39
0.000000
  0
VERTEX
  8
454
 10
37.896800
 20
9.194800
 40
0.101600
 41
0.101600
 42
0.000000
  0
VERTEX
  8
454
 10
37.896800
 20
7.315200
 40
0.101600
 41
0.101600
 42
0.000000
  0
VERTEX
  8
454
 10
37.033200
 20
7.315200
 40
0.101600
 41
0.101600
 42
0.000000
  0
VERTEX
  8
454
 10
37.033200
 20
9.194800
 40
0.101600
 41
0.101600
 42
0.000000
  0
VERTEX
  8
454
 10
37.896800
 20
9.194800
 40
0.101600
 41
0.101600
 42
0.000000
  0
SEQEND
  0
TEXT
  8
454
 10
36.880800
 20
4.191000
 11
0.000000
 21
0.000000
 40
0.762000
 41
0.866667
 50
0.000000
  7
STANDARD
 71
0
 72
0
  1
R9
 73
0
  0
POLYLINE
  8
454
 66
1
 70
1
 40
0.000000
 41
0.000000
 39
0.000000
  0
VERTEX
  8
454
 10
37.764695
 20
15.456408
 40
0.000000
 41
0.000000
 42
0.000000
  0
VERTEX
  8
454
 10
37.165305
 20
15.456408
 40
0.000000
 41
0.000000
 42
0.000000
  0
VERTEX
  8
454
 10
37.165305
 20
16.055797
 40
0.000000
 41
0.000000
 42
0.000000
  0
VERTEX
  8
454
 10
37.764695
 20
16.055797
 40
0.000000
 41
0.000000
 42
0.000000
  0
SEQEND
  0
POLYLINE
  8
454
 66
1
 70
1
 40
0.000000
 41
0.000000
 39
0.000000
  0
VERTEX
  8
454
 10
37.764695
 20
16.456203
 40
0.000000
 41
0.000000
 42
0.000000
  0
VERTEX
  8
454
 10
37.165305
 20
16.456203
 40
0.000000
 41
0.000000
 42
0.000000
  0
VERTEX
  8
454
 10
37.165305
 20
17.055592
 40
0.000000
 41
0.000000
 42
0.000000
  0
VERTEX
  8
454
 10
37.764695
 20
17.055592
 40
0.000000
 41
0.000000
 42
0.000000
  0
SEQEND
  0
POLYLINE
  8
454
 66
1
 70
0
 40
0.000000
 41
0.000000
 39
0.000000
  0
VERTEX
  8
454
 10
37.033200
 20
15.316200
 40
0.101600
 41
0.101600
 42
0.000000
  0
VERTEX
  8
454
 10
37.033200
 20
17.195800
 40
0.101600
 41
0.101600
 42
0.000000
  0
VERTEX
  8
454
 10
37.896800
 20
17.195800
 40
0.101600
 41
0.101600
 42
0.000000
  0
VERTEX
  8
454
 10
37.896800
 20
15.316200
 40
0.101600
 41
0.101600
 42
0.000000
  0
VERTEX
  8
454
 10
37.033200
 20
15.316200
 40
0.101600
 41
0.101600
 42
0.000000
  0
SEQEND
  0
TEXT
  8
454
 10
36.931600
 20
17.449800
 11
0.000000
 21
0.000000
 40
0.762000
 41
0.866667
 50
0.000000
  7
STANDARD
 71
0
 72
0
  1
R7
 73
0
  0
POLYLINE
  8
454
 66
1
 70
1
 40
0.000000
 41
0.000000
 39
0.000000
  0
VERTEX
  8
454
 10
33.863305
 20
7.530592
 40
0.000000
 41
0.000000
 42
0.000000
  0
VERTEX
  8
454
 10
34.462695
 20
7.530592
 40
0.000000
 41
0.000000
 42
0.000000
  0
VERTEX
  8
454
 10
34.462695
 20
6.931203
 40
0.000000
 41
0.000000
 42
0.000000
  0
VERTEX
  8
454
 10
33.863305
 20
6.931203
 40
0.000000
 41
0.000000
 42
0.000000
  0
SEQEND
  0
POLYLINE
  8
454
 66
1
 70
1
 40
0.000000
 41
0.000000
 39
0.000000
  0
VERTEX
  8
454
 10
33.863305
 20
6.530797
 40
0.000000
 41
0.000000
 42
0.000000
  0
VERTEX
  8
454
 10
34.462695
 20
6.530797
 40
0.000000
 41
0.000000
 42
0.000000
  0
VERTEX
  8
454
 10
34.462695
 20
5.931408
 40
0.000000
 41
0.000000
 42
0.000000
  0
VERTEX
  8
454
 10
33.863305
 20
5.931408
 40
0.000000
 41
0.000000
 42
0.000000
  0
SEQEND
  0
POLYLINE
  8
454
 66
1
 70
0
 40
0.000000
 41
0.000000
 39
0.000000
  0
VERTEX
  8
454
 10
34.594800
 20
7.670800
 40
0.101600
 41
0.101600
 42
0.000000
  0
VERTEX
  8
454
 10
34.594800
 20
5.791200
 40
0.101600
 41
0.101600
 42
0.000000
  0
VERTEX
  8
454
 10
33.731200
 20
5.791200
 40
0.101600
 41
0.101600
 42
0.000000
  0
VERTEX
  8
454
 10
33.731200
 20
7.670800
 40
0.101600
 41
0.101600
 42
0.000000
  0
VERTEX
  8
454
 10
34.594800
 20
7.670800
 40
0.101600
 41
0.101600
 42
0.000000
  0
SEQEND
  0
TEXT
  8
454
 10
33.629600
 20
4.165600
 11
0.000000
 21
0.000000
 40
0.762000
 41
0.866667
 50
0.000000
  7
STANDARD
 71
0
 72
0
  1
R6
 73
0
  0
POLYLINE
  8
454
 66
1
 70
1
 40
0.000000
 41
0.000000
 39
0.000000
  0
VERTEX
  8
454
 10
3.645408
 20
5.415305
 40
0.000000
 41
0.000000
 42
0.000000
  0
VERTEX
  8
454
 10
3.645408
 20
6.014695
 40
0.000000
 41
0.000000
 42
0.000000
  0
VERTEX
  8
454
 10
4.244797
 20
6.014695
 40
0.000000
 41
0.000000
 42
0.000000
  0
VERTEX
  8
454
 10
4.244797
 20
5.415305
 40
0.000000
 41
0.000000
 42
0.000000
  0
SEQEND
  0
POLYLINE
  8
454
 66
1
 70
1
 40
0.000000
 41
0.000000
 39
0.000000
  0
VERTEX
  8
454
 10
4.645203
 20
5.415305
 40
0.000000
 41
0.000000
 42
0.000000
  0
VERTEX
  8
454
 10
4.645203
 20
6.014695
 40
0.000000
 41
0.000000
 42
0.000000
  0
VERTEX
  8
454
 10
5.244592
 20
6.014695
 40
0.000000
 41
0.000000
 42
0.000000
  0
VERTEX
  8
454
 10
5.244592
 20
5.415305
 40
0.000000
 41
0.000000
 42
0.000000
  0
SEQEND
  0
POLYLINE
  8
454
 66
1
 70
0
 40
0.000000
 41
0.000000
 39
0.000000
  0
VERTEX
  8
454
 10
3.505200
 20
6.146800
 40
0.101600
 41
0.101600
 42
0.000000
  0
VERTEX
  8
454
 10
5.384800
 20
6.146800
 40
0.101600
 41
0.101600
 42
0.000000
  0
VERTEX
  8
454
 10
5.384800
 20
5.283200
 40
0.101600
 41
0.101600
 42
0.000000
  0
VERTEX
  8
454
 10
3.505200
 20
5.283200
 40
0.101600
 41
0.101600
 42
0.000000
  0
VERTEX
  8
454
 10
3.505200
 20
6.146800
 40
0.101600
 41
0.101600
 42
0.000000
  0
SEQEND
  0
TEXT
  8
454
 10
5.765800
 20
5.334000
 11
0.000000
 21
0.000000
 40
0.762000
 41
0.866667
 50
0.000000
  7
STANDARD
 71
0
 72
0
  1
R3
 73
0
  0
POLYLINE
  8
454
 66
1
 70
1
 40
0.000000
 41
0.000000
 39
0.000000
  0
VERTEX
  8
454
 10
3.645408
 20
16.972305
 40
0.000000
 41
0.000000
 42
0.000000
  0
VERTEX
  8
454
 10
3.645408
 20
17.571695
 40
0.000000
 41
0.000000
 42
0.000000
  0
VERTEX
  8
454
 10
4.244797
 20
17.571695
 40
0.000000
 41
0.000000
 42
0.000000
  0
VERTEX
  8
454
 10
4.244797
 20
16.972305
 40
0.000000
 41
0.000000
 42
0.000000
  0
SEQEND
  0
POLYLINE
  8
454
 66
1
 70
1
 40
0.000000
 41
0.000000
 39
0.000000
  0
VERTEX
  8
454
 10
4.645203
 20
16.972305
 40
0.000000
 41
0.000000
 42
0.000000
  0
VERTEX
  8
454
 10
4.645203
 20
17.571695
 40
0.000000
 41
0.000000
 42
0.000000
  0
VERTEX
  8
454
 10
5.244592
 20
17.571695
 40
0.000000
 41
0.000000
 42
0.000000
  0
VERTEX
  8
454
 10
5.244592
 20
16.972305
 40
0.000000
 41
0.000000
 42
0.000000
  0
SEQEND
  0
POLYLINE
  8
454
 66
1
 70
0
 40
0.000000
 41
0.000000
 39
0.000000
  0
VERTEX
  8
454
 10
3.505200
 20
17.703800
 40
0.101600
 41
0.101600
 42
0.000000
  0
VERTEX
  8
454
 10
5.384800
 20
17.703800
 40
0.101600
 41
0.101600
 42
0.000000
  0
VERTEX
  8
454
 10
5.384800
 20
16.840200
 40
0.101600
 41
0.101600
 42
0.000000
  0
VERTEX
  8
454
 10
3.505200
 20
16.840200
 40
0.101600
 41
0.101600
 42
0.000000
  0
VERTEX
  8
454
 10
3.505200
 20
17.703800
 40
0.101600
 41
0.101600
 42
0.000000
  0
SEQEND
  0
TEXT
  8
454
 10
5.765800
 20
16.891000
 11
0.000000
 21
0.000000
 40
0.762000
 41
0.866667
 50
0.000000
  7
STANDARD
 71
0
 72
0
  1
R1
 73
0
  0
POLYLINE
  8
454
 66
1
 70
1
 40
0.000000
 41
0.000000
 39
0.000000
  0
VERTEX
  8
454
 10
17.888979
 20
5.496154
 40
0.000000
 41
0.000000
 42
0.000000
  0
VERTEX
  8
454
 10
16.909072
 20
5.496154
 40
0.000000
 41
0.000000
 42
0.000000
  0
VERTEX
  8
454
 10
16.909072
 20
6.426048
 40
0.000000
 41
0.000000
 42
0.000000
  0
VERTEX
  8
454
 10
17.888979
 20
6.426048
 40
0.000000
 41
0.000000
 42
0.000000
  0
SEQEND
  0
POLYLINE
  8
454
 66
1
 70
1
 40
0.000000
 41
0.000000
 39
0.000000
  0
VERTEX
  8
454
 10
17.888979
 20
7.036156
 40
0.000000
 41
0.000000
 42
0.000000
  0
VERTEX
  8
454
 10
16.909072
 20
7.036156
 40
0.000000
 41
0.000000
 42
0.000000
  0
VERTEX
  8
454
 10
16.909072
 20
7.966050
 40
0.000000
 41
0.000000
 42
0.000000
  0
VERTEX
  8
454
 10
17.888979
 20
7.966050
 40
0.000000
 41
0.000000
 42
0.000000
  0
SEQEND
  0
POLYLINE
  8
454
 66
1
 70
0
 40
0.000000
 41
0.000000
 39
0.000000
  0
VERTEX
  8
454
 10
16.609111
 20
8.030997
 40
0.199898
 41
0.199898
 42
0.000000
  0
VERTEX
  8
454
 10
16.609111
 20
7.130999
 40
0.199898
 41
0.199898
 42
0.000000
  0
SEQEND
  0
POLYLINE
  8
454
 66
1
 70
0
 40
0.000000
 41
0.000000
 39
0.000000
  0
VERTEX
  8
454
 10
16.802125
 20
8.231099
 40
0.199898
 41
0.199898
 42
0.000000
  0
VERTEX
  8
454
 10
16.609111
 20
8.030997
 40
0.199898
 41
0.199898
 42
0.000000
  0
SEQEND
  0
POLYLINE
  8
454
 66
1
 70
0
 40
0.000000
 41
0.000000
 39
0.000000
  0
VERTEX
  8
454
 10
17.995925
 20
8.231099
 40
0.199898
 41
0.199898
 42
0.000000
  0
VERTEX
  8
454
 10
16.802125
 20
8.231099
 40
0.199898
 41
0.199898
 42
0.000000
  0
SEQEND
  0
POLYLINE
  8
454
 66
1
 70
0
 40
0.000000
 41
0.000000
 39
0.000000
  0
VERTEX
  8
454
 10
18.188915
 20
8.030997
 40
0.199898
 41
0.199898
 42
0.000000
  0
VERTEX
  8
454
 10
17.995925
 20
8.231099
 40
0.199898
 41
0.199898
 42
0.000000
  0
SEQEND
  0
POLYLINE
  8
454
 66
1
 70
0
 40
0.000000
 41
0.000000
 39
0.000000
  0
VERTEX
  8
454
 10
18.188915
 20
7.130999
 40
0.199898
 41
0.199898
 42
0.000000
  0
VERTEX
  8
454
 10
18.188915
 20
8.030997
 40
0.199898
 41
0.199898
 42
0.000000
  0
SEQEND
  0
POLYLINE
  8
454
 66
1
 70
0
 40
0.000000
 41
0.000000
 39
0.000000
  0
VERTEX
  8
454
 10
16.609111
 20
5.196103
 40
0.199898
 41
0.199898
 42
0.000000
  0
VERTEX
  8
454
 10
16.609111
 20
6.331001
 40
0.199898
 41
0.199898
 42
0.000000
  0
SEQEND
  0
POLYLINE
  8
454
 66
1
 70
0
 40
0.000000
 41
0.000000
 39
0.000000
  0
VERTEX
  8
454
 10
18.188915
 20
5.196103
 40
0.199898
 41
0.199898
 42
0.000000
  0
VERTEX
  8
454
 10
16.609111
 20
5.196103
 40
0.199898
 41
0.199898
 42
0.000000
  0
SEQEND
  0
POLYLINE
  8
454
 66
1
 70
0
 40
0.000000
 41
0.000000
 39
0.000000
  0
VERTEX
  8
454
 10
18.188915
 20
6.331001
 40
0.199898
 41
0.199898
 42
0.000000
  0
VERTEX
  8
454
 10
18.188915
 20
5.196103
 40
0.199898
 41
0.199898
 42
0.000000
  0
SEQEND
  0
POLYLINE
  8
454
 66
1
 70
1
 40
0.000000
 41
0.000000
 39
0.000000
  0
VERTEX
  8
454
 10
17.998923
 20
8.455889
 40
0.000000
 41
0.000000
 42
0.000000
  0
VERTEX
  8
454
 10
17.998923
 20
8.756091
 40
0.000000
 41
0.000000
 42
0.000000
  0
VERTEX
  8
454
 10
16.799128
 20
8.756091
 40
0.000000
 41
0.000000
 42
0.000000
  0
VERTEX
  8
454
 10
16.799128
 20
8.455889
 40
0.000000
 41
0.000000
 42
0.000000
  0
SEQEND
  0
TEXT
  8
454
 10
16.154400
 20
4.191000
 11
0.000000
 21
0.000000
 40
0.762000
 41
0.866667
 50
0.000000
  7
STANDARD
 71
0
 72
0
  1
LED1
 73
0
  0
POLYLINE
  8
454
 66
1
 70
1
 40
0.000000
 41
0.000000
 39
0.000000
  0
VERTEX
  8
454
 10
36.176979
 20
10.240162
 40
0.000000
 41
0.000000
 42
0.000000
  0
VERTEX
  8
454
 10
35.197072
 20
10.240162
 40
0.000000
 41
0.000000
 42
0.000000
  0
VERTEX
  8
454
 10
35.197072
 20
11.170056
 40
0.000000
 41
0.000000
 42
0.000000
  0
VERTEX
  8
454
 10
36.176979
 20
11.170056
 40
0.000000
 41
0.000000
 42
0.000000
  0
SEQEND
  0
POLYLINE
  8
454
 66
1
 70
1
 40
0.000000
 41
0.000000
 39
0.000000
  0
VERTEX
  8
454
 10
36.176979
 20
11.780164
 40
0.000000
 41
0.000000
 42
0.000000
  0
VERTEX
  8
454
 10
35.197072
 20
11.780164
 40
0.000000
 41
0.000000
 42
0.000000
  0
VERTEX
  8
454
 10
35.197072
 20
12.710058
 40
0.000000
 41
0.000000
 42
0.000000
  0
VERTEX
  8
454
 10
36.176979
 20
12.710058
 40
0.000000
 41
0.000000
 42
0.000000
  0
SEQEND
  0
POLYLINE
  8
454
 66
1
 70
0
 40
0.000000
 41
0.000000
 39
0.000000
  0
VERTEX
  8
454
 10
34.897111
 20
12.775006
 40
0.199898
 41
0.199898
 42
0.000000
  0
VERTEX
  8
454
 10
34.897111
 20
11.875008
 40
0.199898
 41
0.199898
 42
0.000000
  0
SEQEND
  0
POLYLINE
  8
454
 66
1
 70
0
 40
0.000000
 41
0.000000
 39
0.000000
  0
VERTEX
  8
454
 10
35.090125
 20
12.975107
 40
0.199898
 41
0.199898
 42
0.000000
  0
VERTEX
  8
454
 10
34.897111
 20
12.775006
 40
0.199898
 41
0.199898
 42
0.000000
  0
SEQEND
  0
POLYLINE
  8
454
 66
1
 70
0
 40
0.000000
 41
0.000000
 39
0.000000
  0
VERTEX
  8
454
 10
36.283925
 20
12.975107
 40
0.199898
 41
0.199898
 42
0.000000
  0
VERTEX
  8
454
 10
35.090125
 20
12.975107
 40
0.199898
 41
0.199898
 42
0.000000
  0
SEQEND
  0
POLYLINE
  8
454
 66
1
 70
0
 40
0.000000
 41
0.000000
 39
0.000000
  0
VERTEX
  8
454
 10
36.476915
 20
12.775006
 40
0.199898
 41
0.199898
 42
0.000000
  0
VERTEX
  8
454
 10
36.283925
 20
12.975107
 40
0.199898
 41
0.199898
 42
0.000000
  0
SEQEND
  0
POLYLINE
  8
454
 66
1
 70
0
 40
0.000000
 41
0.000000
 39
0.000000
  0
VERTEX
  8
454
 10
36.476915
 20
11.875008
 40
0.199898
 41
0.199898
 42
0.000000
  0
VERTEX
  8
454
 10
36.476915
 20
12.775006
 40
0.199898
 41
0.199898
 42
0.000000
  0
SEQEND
  0
POLYLINE
  8
454
 66
1
 70
0
 40
0.000000
 41
0.000000
 39
0.000000
  0
VERTEX
  8
454
 10
34.897111
 20
9.940112
 40
0.199898
 41
0.199898
 42
0.000000
  0
VERTEX
  8
454
 10
34.897111
 20
11.075010
 40
0.199898
 41
0.199898
 42
0.000000
  0
SEQEND
  0
POLYLINE
  8
454
 66
1
 70
0
 40
0.000000
 41
0.000000
 39
0.000000
  0
VERTEX
  8
454
 10
36.476915
 20
9.940112
 40
0.199898
 41
0.199898
 42
0.000000
  0
VERTEX
  8
454
 10
34.897111
 20
9.940112
 40
0.199898
 41
0.199898
 42
0.000000
  0
SEQEND
  0
POLYLINE
  8
454
 66
1
 70
0
 40
0.000000
 41
0.000000
 39
0.000000
  0
VERTEX
  8
454
 10
36.476915
 20
11.075010
 40
0.199898
 41
0.199898
 42
0.000000
  0
VERTEX
  8
454
 10
36.476915
 20
9.940112
 40
0.199898
 41
0.199898
 42
0.000000
  0
SEQEND
  0
POLYLINE
  8
454
 66
1
 70
1
 40
0.000000
 41
0.000000
 39
0.000000
  0
VERTEX
  8
454
 10
36.286923
 20
13.199897
 40
0.000000
 41
0.000000
 42
0.000000
  0
VERTEX
  8
454
 10
36.286923
 20
13.500100
 40
0.000000
 41
0.000000
 42
0.000000
  0
VERTEX
  8
454
 10
35.087128
 20
13.500100
 40
0.000000
 41
0.000000
 42
0.000000
  0
VERTEX
  8
454
 10
35.087128
 20
13.199897
 40
0.000000
 41
0.000000
 42
0.000000
  0
SEQEND
  0
TEXT
  8
454
 10
34.442400
 20
13.716000
 11
0.000000
 21
0.000000
 40
0.762000
 41
0.866667
 50
0.000000
  7
STANDARD
 71
0
 72
0
  1
LED3
 73
0
  0
POLYLINE
  8
454
 66
1
 70
1
 40
0.000000
 41
0.000000
 39
0.000000
  0
VERTEX
  8
454
 10
36.176979
 20
15.021179
 40
0.000000
 41
0.000000
 42
0.000000
  0
VERTEX
  8
454
 10
35.197072
 20
15.021179
 40
0.000000
 41
0.000000
 42
0.000000
  0
VERTEX
  8
454
 10
35.197072
 20
15.951073
 40
0.000000
 41
0.000000
 42
0.000000
  0
VERTEX
  8
454
 10
36.176979
 20
15.951073
 40
0.000000
 41
0.000000
 42
0.000000
  0
SEQEND
  0
POLYLINE
  8
454
 66
1
 70
1
 40
0.000000
 41
0.000000
 39
0.000000
  0
VERTEX
  8
454
 10
36.176979
 20
16.561181
 40
0.000000
 41
0.000000
 42
0.000000
  0
VERTEX
  8
454
 10
35.197072
 20
16.561181
 40
0.000000
 41
0.000000
 42
0.000000
  0
VERTEX
  8
454
 10
35.197072
 20
17.491075
 40
0.000000
 41
0.000000
 42
0.000000
  0
VERTEX
  8
454
 10
36.176979
 20
17.491075
 40
0.000000
 41
0.000000
 42
0.000000
  0
SEQEND
  0
POLYLINE
  8
454
 66
1
 70
0
 40
0.000000
 41
0.000000
 39
0.000000
  0
VERTEX
  8
454
 10
34.897111
 20
17.556023
 40
0.199898
 41
0.199898
 42
0.000000
  0
VERTEX
  8
454
 10
34.897111
 20
16.656025
 40
0.199898
 41
0.199898
 42
0.000000
  0
SEQEND
  0
POLYLINE
  8
454
 66
1
 70
0
 40
0.000000
 41
0.000000
 39
0.000000
  0
VERTEX
  8
454
 10
35.090125
 20
17.756124
 40
0.199898
 41
0.199898
 42
0.000000
  0
VERTEX
  8
454
 10
34.897111
 20
17.556023
 40
0.199898
 41
0.199898
 42
0.000000
  0
SEQEND
  0
POLYLINE
  8
454
 66
1
 70
0
 40
0.000000
 41
0.000000
 39
0.000000
  0
VERTEX
  8
454
 10
36.283925
 20
17.756124
 40
0.199898
 41
0.199898
 42
0.000000
  0
VERTEX
  8
454
 10
35.090125
 20
17.756124
 40
0.199898
 41
0.199898
 42
0.000000
  0
SEQEND
  0
POLYLINE
  8
454
 66
1
 70
0
 40
0.000000
 41
0.000000
 39
0.000000
  0
VERTEX
  8
454
 10
36.476915
 20
17.556023
 40
0.199898
 41
0.199898
 42
0.000000
  0
VERTEX
  8
454
 10
36.283925
 20
17.756124
 40
0.199898
 41
0.199898
 42
0.000000
  0
SEQEND
  0
POLYLINE
  8
454
 66
1
 70
0
 40
0.000000
 41
0.000000
 39
0.000000
  0
VERTEX
  8
454
 10
36.476915
 20
16.656025
 40
0.199898
 41
0.199898
 42
0.000000
  0
VERTEX
  8
454
 10
36.476915
 20
17.556023
 40
0.199898
 41
0.199898
 42
0.000000
  0
SEQEND
  0
POLYLINE
  8
454
 66
1
 70
0
 40
0.000000
 41
0.000000
 39
0.000000
  0
VERTEX
  8
454
 10
34.897111
 20
14.721103
 40
0.199898
 41
0.199898
 42
0.000000
  0
VERTEX
  8
454
 10
34.897111
 20
15.856026
 40
0.199898
 41
0.199898
 42
0.000000
  0
SEQEND
  0
POLYLINE
  8
454
 66
1
 70
0
 40
0.000000
 41
0.000000
 39
0.000000
  0
VERTEX
  8
454
 10
36.476915
 20
14.721103
 40
0.199898
 41
0.199898
 42
0.000000
  0
VERTEX
  8
454
 10
34.897111
 20
14.721103
 40
0.199898
 41
0.199898
 42
0.000000
  0
SEQEND
  0
POLYLINE
  8
454
 66
1
 70
0
 40
0.000000
 41
0.000000
 39
0.000000
  0
VERTEX
  8
454
 10
36.476915
 20
15.856026
 40
0.199898
 41
0.199898
 42
0.000000
  0
VERTEX
  8
454
 10
36.476915
 20
14.721103
 40
0.199898
 41
0.199898
 42
0.000000
  0
SEQEND
  0
POLYLINE
  8
454
 66
1
 70
1
 40
0.000000
 41
0.000000
 39
0.000000
  0
VERTEX
  8
454
 10
36.286923
 20
17.980812
 40
0.000000
 41
0.000000
 42
0.000000
  0
VERTEX
  8
454
 10
36.286923
 20
18.281117
 40
0.000000
 41
0.000000
 42
0.000000
  0
VERTEX
  8
454
 10
35.087128
 20
18.281117
 40
0.000000
 41
0.000000
 42
0.000000
  0
VERTEX
  8
454
 10
35.087128
 20
17.980812
 40
0.000000
 41
0.000000
 42
0.000000
  0
SEQEND
  0
TEXT
  8
454
 10
34.442400
 20
18.542000
 11
0.000000
 21
0.000000
 40
0.762000
 41
0.866667
 50
0.000000
  7
STANDARD
 71
0
 72
0
  1
LED2
 73
0
  0
POLYLINE
  8
454
 66
1
 70
1
 40
0.000000
 41
0.000000
 39
0.000000
  0
VERTEX
  8
454
 10
36.176979
 20
5.496128
 40
0.000000
 41
0.000000
 42
0.000000
  0
VERTEX
  8
454
 10
35.197072
 20
5.496128
 40
0.000000
 41
0.000000
 42
0.000000
  0
VERTEX
  8
454
 10
35.197072
 20
6.426022
 40
0.000000
 41
0.000000
 42
0.000000
  0
VERTEX
  8
454
 10
36.176979
 20
6.426022
 40
0.000000
 41
0.000000
 42
0.000000
  0
SEQEND
  0
POLYLINE
  8
454
 66
1
 70
1
 40
0.000000
 41
0.000000
 39
0.000000
  0
VERTEX
  8
454
 10
36.176979
 20
7.036130
 40
0.000000
 41
0.000000
 42
0.000000
  0
VERTEX
  8
454
 10
35.197072
 20
7.036130
 40
0.000000
 41
0.000000
 42
0.000000
  0
VERTEX
  8
454
 10
35.197072
 20
7.966024
 40
0.000000
 41
0.000000
 42
0.000000
  0
VERTEX
  8
454
 10
36.176979
 20
7.966024
 40
0.000000
 41
0.000000
 42
0.000000
  0
SEQEND
  0
POLYLINE
  8
454
 66
1
 70
0
 40
0.000000
 41
0.000000
 39
0.000000
  0
VERTEX
  8
454
 10
34.897111
 20
8.030997
 40
0.199898
 41
0.199898
 42
0.000000
  0
VERTEX
  8
454
 10
34.897111
 20
7.130974
 40
0.199898
 41
0.199898
 42
0.000000
  0
SEQEND
  0
POLYLINE
  8
454
 66
1
 70
0
 40
0.000000
 41
0.000000
 39
0.000000
  0
VERTEX
  8
454
 10
35.090125
 20
8.231073
 40
0.199898
 41
0.199898
 42
0.000000
  0
VERTEX
  8
454
 10
34.897111
 20
8.030997
 40
0.199898
 41
0.199898
 42
0.000000
  0
SEQEND
  0
POLYLINE
  8
454
 66
1
 70
0
 40
0.000000
 41
0.000000
 39
0.000000
  0
VERTEX
  8
454
 10
36.283925
 20
8.231073
 40
0.199898
 41
0.199898
 42
0.000000
  0
VERTEX
  8
454
 10
35.090125
 20
8.231073
 40
0.199898
 41
0.199898
 42
0.000000
  0
SEQEND
  0
POLYLINE
  8
454
 66
1
 70
0
 40
0.000000
 41
0.000000
 39
0.000000
  0
VERTEX
  8
454
 10
36.476915
 20
8.030997
 40
0.199898
 41
0.199898
 42
0.000000
  0
VERTEX
  8
454
 10
36.283925
 20
8.231073
 40
0.199898
 41
0.199898
 42
0.000000
  0
SEQEND
  0
POLYLINE
  8
454
 66
1
 70
0
 40
0.000000
 41
0.000000
 39
0.000000
  0
VERTEX
  8
454
 10
36.476915
 20
7.130974
 40
0.199898
 41
0.199898
 42
0.000000
  0
VERTEX
  8
454
 10
36.476915
 20
8.030997
 40
0.199898
 41
0.199898
 42
0.000000
  0
SEQEND
  0
POLYLINE
  8
454
 66
1
 70
0
 40
0.000000
 41
0.000000
 39
0.000000
  0
VERTEX
  8
454
 10
34.897111
 20
5.196078
 40
0.199898
 41
0.199898
 42
0.000000
  0
VERTEX
  8
454
 10
34.897111
 20
6.330975
 40
0.199898
 41
0.199898
 42
0.000000
  0
SEQEND
  0
POLYLINE
  8
454
 66
1
 70
0
 40
0.000000
 41
0.000000
 39
0.000000
  0
VERTEX
  8
454
 10
36.476915
 20
5.196078
 40
0.199898
 41
0.199898
 42
0.000000
  0
VERTEX
  8
454
 10
34.897111
 20
5.196078
 40
0.199898
 41
0.199898
 42
0.000000
  0
SEQEND
  0
POLYLINE
  8
454
 66
1
 70
0
 40
0.000000
 41
0.000000
 39
0.000000
  0
VERTEX
  8
454
 10
36.476915
 20
6.330975
 40
0.199898
 41
0.199898
 42
0.000000
  0
VERTEX
  8
454
 10
36.476915
 20
5.196078
 40
0.199898
 41
0.199898
 42
0.000000
  0
SEQEND
  0
POLYLINE
  8
454
 66
1
 70
1
 40
0.000000
 41
0.000000
 39
0.000000
  0
VERTEX
  8
454
 10
36.286923
 20
8.455889
 40
0.000000
 41
0.000000
 42
0.000000
  0
VERTEX
  8
454
 10
36.286923
 20
8.756091
 40
0.000000
 41
0.000000
 42
0.000000
  0
VERTEX
  8
454
 10
35.087128
 20
8.756091
 40
0.000000
 41
0.000000
 42
0.000000
  0
VERTEX
  8
454
 10
35.087128
 20
8.455889
 40
0.000000
 41
0.000000
 42
0.000000
  0
SEQEND
  0
TEXT
  8
454
 10
34.442400
 20
8.890000
 11
0.000000
 21
0.000000
 40
0.762000
 41
0.866667
 50
0.000000
  7
STANDARD
 71
0
 72
0
  1
LED4
 73
0
  0
POLYLINE
  8
454
 66
1
 70
1
 40
0.000000
 41
0.000000
 39
0.000000
  0
VERTEX
  8
454
 10
19.029705
 20
11.086592
 40
0.000000
 41
0.000000
 42
0.000000
  0
VERTEX
  8
454
 10
19.629095
 20
11.086592
 40
0.000000
 41
0.000000
 42
0.000000
  0
VERTEX
  8
454
 10
19.629095
 20
10.487203
 40
0.000000
 41
0.000000
 42
0.000000
  0
VERTEX
  8
454
 10
19.029705
 20
10.487203
 40
0.000000
 41
0.000000
 42
0.000000
  0
SEQEND
  0
POLYLINE
  8
454
 66
1
 70
1
 40
0.000000
 41
0.000000
 39
0.000000
  0
VERTEX
  8
454
 10
19.029705
 20
10.086797
 40
0.000000
 41
0.000000
 42
0.000000
  0
VERTEX
  8
454
 10
19.629095
 20
10.086797
 40
0.000000
 41
0.000000
 42
0.000000
  0
VERTEX
  8
454
 10
19.629095
 20
9.487408
 40
0.000000
 41
0.000000
 42
0.000000
  0
VERTEX
  8
454
 10
19.029705
 20
9.487408
 40
0.000000
 41
0.000000
 42
0.000000
  0
SEQEND
  0
POLYLINE
  8
454
 66
1
 70
0
 40
0.000000
 41
0.000000
 39
0.000000
  0
VERTEX
  8
454
 10
19.761200
 20
11.226800
 40
0.101600
 41
0.101600
 42
0.000000
  0
VERTEX
  8
454
 10
19.761200
 20
9.347200
 40
0.101600
 41
0.101600
 42
0.000000
  0
VERTEX
  8
454
 10
18.897600
 20
9.347200
 40
0.101600
 41
0.101600
 42
0.000000
  0
VERTEX
  8
454
 10
18.897600
 20
11.226800
 40
0.101600
 41
0.101600
 42
0.000000
  0
VERTEX
  8
454
 10
19.761200
 20
11.226800
 40
0.101600
 41
0.101600
 42
0.000000
  0
SEQEND
  0
TEXT
  8
454
 10
19.685000
 20
7.340600
 11
0.000000
 21
0.000000
 40
0.762000
 41
0.866667
 50
90.000000
  7
STANDARD
 71
0
 72
0
  1
C14
 73
0
  0
POLYLINE
  8
454
 66
1
 70
1
 40
0.000000
 41
0.000000
 39
0.000000
  0
VERTEX
  8
454
 10
19.629095
 20
11.900408
 40
0.000000
 41
0.000000
 42
0.000000
  0
VERTEX
  8
454
 10
19.029705
 20
11.900408
 40
0.000000
 41
0.000000
 42
0.000000
  0
VERTEX
  8
454
 10
19.029705
 20
12.499797
 40
0.000000
 41
0.000000
 42
0.000000
  0
VERTEX
  8
454
 10
19.629095
 20
12.499797
 40
0.000000
 41
0.000000
 42
0.000000
  0
SEQEND
  0
POLYLINE
  8
454
 66
1
 70
1
 40
0.000000
 41
0.000000
 39
0.000000
  0
VERTEX
  8
454
 10
19.629095
 20
12.900203
 40
0.000000
 41
0.000000
 42
0.000000
  0
VERTEX
  8
454
 10
19.029705
 20
12.900203
 40
0.000000
 41
0.000000
 42
0.000000
  0
VERTEX
  8
454
 10
19.029705
 20
13.499592
 40
0.000000
 41
0.000000
 42
0.000000
  0
VERTEX
  8
454
 10
19.629095
 20
13.499592
 40
0.000000
 41
0.000000
 42
0.000000
  0
SEQEND
  0
POLYLINE
  8
454
 66
1
 70
0
 40
0.000000
 41
0.000000
 39
0.000000
  0
VERTEX
  8
454
 10
18.897600
 20
11.760200
 40
0.101600
 41
0.101600
 42
0.000000
  0
VERTEX
  8
454
 10
18.897600
 20
13.639800
 40
0.101600
 41
0.101600
 42
0.000000
  0
VERTEX
  8
454
 10
19.761200
 20
13.639800
 40
0.101600
 41
0.101600
 42
0.000000
  0
VERTEX
  8
454
 10
19.761200
 20
11.760200
 40
0.101600
 41
0.101600
 42
0.000000
  0
VERTEX
  8
454
 10
18.897600
 20
11.760200
 40
0.101600
 41
0.101600
 42
0.000000
  0
SEQEND
  0
TEXT
  8
454
 10
19.685000
 20
13.817600
 11
0.000000
 21
0.000000
 40
0.762000
 41
0.866667
 50
90.000000
  7
STANDARD
 71
0
 72
0
  1
C13
 73
0
  0
POLYLINE
  8
454
 66
1
 70
1
 40
0.000000
 41
0.000000
 39
0.000000
  0
VERTEX
  8
454
 10
29.509695
 20
11.900408
 40
0.000000
 41
0.000000
 42
0.000000
  0
VERTEX
  8
454
 10
28.910305
 20
11.900408
 40
0.000000
 41
0.000000
 42
0.000000
  0
VERTEX
  8
454
 10
28.910305
 20
12.499797
 40
0.000000
 41
0.000000
 42
0.000000
  0
VERTEX
  8
454
 10
29.509695
 20
12.499797
 40
0.000000
 41
0.000000
 42
0.000000
  0
SEQEND
  0
POLYLINE
  8
454
 66
1
 70
1
 40
0.000000
 41
0.000000
 39
0.000000
  0
VERTEX
  8
454
 10
29.509695
 20
12.900203
 40
0.000000
 41
0.000000
 42
0.000000
  0
VERTEX
  8
454
 10
28.910305
 20
12.900203
 40
0.000000
 41
0.000000
 42
0.000000
  0
VERTEX
  8
454
 10
28.910305
 20
13.499592
 40
0.000000
 41
0.000000
 42
0.000000
  0
VERTEX
  8
454
 10
29.509695
 20
13.499592
 40
0.000000
 41
0.000000
 42
0.000000
  0
SEQEND
  0
POLYLINE
  8
454
 66
1
 70
0
 40
0.000000
 41
0.000000
 39
0.000000
  0
VERTEX
  8
454
 10
28.778200
 20
11.760200
 40
0.101600
 41
0.101600
 42
0.000000
  0
VERTEX
  8
454
 10
28.778200
 20
13.639800
 40
0.101600
 41
0.101600
 42
0.000000
  0
VERTEX
  8
454
 10
29.641800
 20
13.639800
 40
0.101600
 41
0.101600
 42
0.000000
  0
VERTEX
  8
454
 10
29.641800
 20
11.760200
 40
0.101600
 41
0.101600
 42
0.000000
  0
VERTEX
  8
454
 10
28.778200
 20
11.760200
 40
0.101600
 41
0.101600
 42
0.000000
  0
SEQEND
  0
TEXT
  8
454
 10
28.575000
 20
12.115800
 11
0.000000
 21
0.000000
 40
0.762000
 41
0.866667
 50
90.000000
  7
STANDARD
 71
0
 72
0
  1
C9
 73
0
  0
POLYLINE
  8
454
 66
1
 70
1
 40
0.000000
 41
0.000000
 39
0.000000
  0
VERTEX
  8
454
 10
28.910305
 20
11.086592
 40
0.000000
 41
0.000000
 42
0.000000
  0
VERTEX
  8
454
 10
29.509695
 20
11.086592
 40
0.000000
 41
0.000000
 42
0.000000
  0
VERTEX
  8
454
 10
29.509695
 20
10.487203
 40
0.000000
 41
0.000000
 42
0.000000
  0
VERTEX
  8
454
 10
28.910305
 20
10.487203
 40
0.000000
 41
0.000000
 42
0.000000
  0
SEQEND
  0
POLYLINE
  8
454
 66
1
 70
1
 40
0.000000
 41
0.000000
 39
0.000000
  0
VERTEX
  8
454
 10
28.910305
 20
10.086797
 40
0.000000
 41
0.000000
 42
0.000000
  0
VERTEX
  8
454
 10
29.509695
 20
10.086797
 40
0.000000
 41
0.000000
 42
0.000000
  0
VERTEX
  8
454
 10
29.509695
 20
9.487408
 40
0.000000
 41
0.000000
 42
0.000000
  0
VERTEX
  8
454
 10
28.910305
 20
9.487408
 40
0.000000
 41
0.000000
 42
0.000000
  0
SEQEND
  0
POLYLINE
  8
454
 66
1
 70
0
 40
0.000000
 41
0.000000
 39
0.000000
  0
VERTEX
  8
454
 10
29.641800
 20
11.226800
 40
0.101600
 41
0.101600
 42
0.000000
  0
VERTEX
  8
454
 10
29.641800
 20
9.347200
 40
0.101600
 41
0.101600
 42
0.000000
  0
VERTEX
  8
454
 10
28.778200
 20
9.347200
 40
0.101600
 41
0.101600
 42
0.000000
  0
VERTEX
  8
454
 10
28.778200
 20
11.226800
 40
0.101600
 41
0.101600
 42
0.000000
  0
VERTEX
  8
454
 10
29.641800
 20
11.226800
 40
0.101600
 41
0.101600
 42
0.000000
  0
SEQEND
  0
TEXT
  8
454
 10
28.575000
 20
9.575800
 11
0.000000
 21
0.000000
 40
0.762000
 41
0.866667
 50
90.000000
  7
STANDARD
 71
0
 72
0
  1
C8
 73
0
  0
POLYLINE
  8
454
 66
1
 70
1
 40
0.000000
 41
0.000000
 39
0.000000
  0
VERTEX
  8
454
 10
14.059408
 20
15.194305
 40
0.000000
 41
0.000000
 42
0.000000
  0
VERTEX
  8
454
 10
14.059408
 20
15.793695
 40
0.000000
 41
0.000000
 42
0.000000
  0
VERTEX
  8
454
 10
14.658797
 20
15.793695
 40
0.000000
 41
0.000000
 42
0.000000
  0
VERTEX
  8
454
 10
14.658797
 20
15.194305
 40
0.000000
 41
0.000000
 42
0.000000
  0
SEQEND
  0
POLYLINE
  8
454
 66
1
 70
1
 40
0.000000
 41
0.000000
 39
0.000000
  0
VERTEX
  8
454
 10
15.059203
 20
15.194305
 40
0.000000
 41
0.000000
 42
0.000000
  0
VERTEX
  8
454
 10
15.059203
 20
15.793695
 40
0.000000
 41
0.000000
 42
0.000000
  0
VERTEX
  8
454
 10
15.658592
 20
15.793695
 40
0.000000
 41
0.000000
 42
0.000000
  0
VERTEX
  8
454
 10
15.658592
 20
15.194305
 40
0.000000
 41
0.000000
 42
0.000000
  0
SEQEND
  0
POLYLINE
  8
454
 66
1
 70
0
 40
0.000000
 41
0.000000
 39
0.000000
  0
VERTEX
  8
454
 10
13.919200
 20
15.925800
 40
0.101600
 41
0.101600
 42
0.000000
  0
VERTEX
  8
454
 10
15.798800
 20
15.925800
 40
0.101600
 41
0.101600
 42
0.000000
  0
VERTEX
  8
454
 10
15.798800
 20
15.062200
 40
0.101600
 41
0.101600
 42
0.000000
  0
VERTEX
  8
454
 10
13.919200
 20
15.062200
 40
0.101600
 41
0.101600
 42
0.000000
  0
VERTEX
  8
454
 10
13.919200
 20
15.925800
 40
0.101600
 41
0.101600
 42
0.000000
  0
SEQEND
  0
TEXT
  8
454
 10
14.224000
 20
17.754600
 11
0.000000
 21
0.000000
 40
0.762000
 41
0.866667
 50
0.000000
  7
STANDARD
 71
0
 72
0
  1
C4
 73
0
  0
POLYLINE
  8
454
 66
1
 70
1
 40
0.000000
 41
0.000000
 39
0.000000
  0
VERTEX
  8
454
 10
37.165305
 20
6.895592
 40
0.000000
 41
0.000000
 42
0.000000
  0
VERTEX
  8
454
 10
37.764695
 20
6.895592
 40
0.000000
 41
0.000000
 42
0.000000
  0
VERTEX
  8
454
 10
37.764695
 20
6.296203
 40
0.000000
 41
0.000000
 42
0.000000
  0
VERTEX
  8
454
 10
37.165305
 20
6.296203
 40
0.000000
 41
0.000000
 42
0.000000
  0
SEQEND
  0
POLYLINE
  8
454
 66
1
 70
1
 40
0.000000
 41
0.000000
 39
0.000000
  0
VERTEX
  8
454
 10
37.165305
 20
5.895797
 40
0.000000
 41
0.000000
 42
0.000000
  0
VERTEX
  8
454
 10
37.764695
 20
5.895797
 40
0.000000
 41
0.000000
 42
0.000000
  0
VERTEX
  8
454
 10
37.764695
 20
5.296408
 40
0.000000
 41
0.000000
 42
0.000000
  0
VERTEX
  8
454
 10
37.165305
 20
5.296408
 40
0.000000
 41
0.000000
 42
0.000000
  0
SEQEND
  0
POLYLINE
  8
454
 66
1
 70
0
 40
0.000000
 41
0.000000
 39
0.000000
  0
VERTEX
  8
454
 10
37.896800
 20
7.035800
 40
0.101600
 41
0.101600
 42
0.000000
  0
VERTEX
  8
454
 10
37.896800
 20
5.156200
 40
0.101600
 41
0.101600
 42
0.000000
  0
VERTEX
  8
454
 10
37.033200
 20
5.156200
 40
0.101600
 41
0.101600
 42
0.000000
  0
VERTEX
  8
454
 10
37.033200
 20
7.035800
 40
0.101600
 41
0.101600
 42
0.000000
  0
VERTEX
  8
454
 10
37.896800
 20
7.035800
 40
0.101600
 41
0.101600
 42
0.000000
  0
SEQEND
  0
TEXT
  8
454
 10
36.550600
 20
3.302000
 11
0.000000
 21
0.000000
 40
0.762000
 41
0.866667
 50
0.000000
  7
STANDARD
 71
0
 72
0
  1
C12
 73
0
  0
POLYLINE
  8
454
 66
1
 70
1
 40
0.000000
 41
0.000000
 39
0.000000
  0
VERTEX
  8
454
 10
28.918408
 20
8.082305
 40
0.000000
 41
0.000000
 42
0.000000
  0
VERTEX
  8
454
 10
28.918408
 20
8.681695
 40
0.000000
 41
0.000000
 42
0.000000
  0
VERTEX
  8
454
 10
29.517797
 20
8.681695
 40
0.000000
 41
0.000000
 42
0.000000
  0
VERTEX
  8
454
 10
29.517797
 20
8.082305
 40
0.000000
 41
0.000000
 42
0.000000
  0
SEQEND
  0
POLYLINE
  8
454
 66
1
 70
1
 40
0.000000
 41
0.000000
 39
0.000000
  0
VERTEX
  8
454
 10
29.918203
 20
8.082305
 40
0.000000
 41
0.000000
 42
0.000000
  0
VERTEX
  8
454
 10
29.918203
 20
8.681695
 40
0.000000
 41
0.000000
 42
0.000000
  0
VERTEX
  8
454
 10
30.517592
 20
8.681695
 40
0.000000
 41
0.000000
 42
0.000000
  0
VERTEX
  8
454
 10
30.517592
 20
8.082305
 40
0.000000
 41
0.000000
 42
0.000000
  0
SEQEND
  0
POLYLINE
  8
454
 66
1
 70
0
 40
0.000000
 41
0.000000
 39
0.000000
  0
VERTEX
  8
454
 10
28.778200
 20
8.813800
 40
0.101600
 41
0.101600
 42
0.000000
  0
VERTEX
  8
454
 10
30.657800
 20
8.813800
 40
0.101600
 41
0.101600
 42
0.000000
  0
VERTEX
  8
454
 10
30.657800
 20
7.950200
 40
0.101600
 41
0.101600
 42
0.000000
  0
VERTEX
  8
454
 10
28.778200
 20
7.950200
 40
0.101600
 41
0.101600
 42
0.000000
  0
VERTEX
  8
454
 10
28.778200
 20
8.813800
 40
0.101600
 41
0.101600
 42
0.000000
  0
SEQEND
  0
TEXT
  8
454
 10
29.133800
 20
6.858000
 11
0.000000
 21
0.000000
 40
0.762000
 41
0.866667
 50
0.000000
  7
STANDARD
 71
0
 72
0
  1
C7
 73
0
  0
POLYLINE
  8
454
 66
1
 70
1
 40
0.000000
 41
0.000000
 39
0.000000
  0
VERTEX
  8
454
 10
14.059408
 20
7.574305
 40
0.000000
 41
0.000000
 42
0.000000
  0
VERTEX
  8
454
 10
14.059408
 20
8.173695
 40
0.000000
 41
0.000000
 42
0.000000
  0
VERTEX
  8
454
 10
14.658797
 20
8.173695
 40
0.000000
 41
0.000000
 42
0.000000
  0
VERTEX
  8
454
 10
14.658797
 20
7.574305
 40
0.000000
 41
0.000000
 42
0.000000
  0
SEQEND
  0
POLYLINE
  8
454
 66
1
 70
1
 40
0.000000
 41
0.000000
 39
0.000000
  0
VERTEX
  8
454
 10
15.059203
 20
7.574305
 40
0.000000
 41
0.000000
 42
0.000000
  0
VERTEX
  8
454
 10
15.059203
 20
8.173695
 40
0.000000
 41
0.000000
 42
0.000000
  0
VERTEX
  8
454
 10
15.658592
 20
8.173695
 40
0.000000
 41
0.000000
 42
0.000000
  0
VERTEX
  8
454
 10
15.658592
 20
7.574305
 40
0.000000
 41
0.000000
 42
0.000000
  0
SEQEND
  0
POLYLINE
  8
454
 66
1
 70
0
 40
0.000000
 41
0.000000
 39
0.000000
  0
VERTEX
  8
454
 10
13.919200
 20
8.305800
 40
0.101600
 41
0.101600
 42
0.000000
  0
VERTEX
  8
454
 10
15.798800
 20
8.305800
 40
0.101600
 41
0.101600
 42
0.000000
  0
VERTEX
  8
454
 10
15.798800
 20
7.442200
 40
0.101600
 41
0.101600
 42
0.000000
  0
VERTEX
  8
454
 10
13.919200
 20
7.442200
 40
0.101600
 41
0.101600
 42
0.000000
  0
VERTEX
  8
454
 10
13.919200
 20
8.305800
 40
0.101600
 41
0.101600
 42
0.000000
  0
SEQEND
  0
TEXT
  8
454
 10
14.274800
 20
6.553200
 11
0.000000
 21
0.000000
 40
0.762000
 41
0.866667
 50
0.000000
  7
STANDARD
 71
0
 72
0
  1
C6
 73
0
  0
POLYLINE
  8
454
 66
1
 70
1
 40
0.000000
 41
0.000000
 39
0.000000
  0
VERTEX
  8
454
 10
14.059408
 20
16.845305
 40
0.000000
 41
0.000000
 42
0.000000
  0
VERTEX
  8
454
 10
14.059408
 20
17.444695
 40
0.000000
 41
0.000000
 42
0.000000
  0
VERTEX
  8
454
 10
14.658797
 20
17.444695
 40
0.000000
 41
0.000000
 42
0.000000
  0
VERTEX
  8
454
 10
14.658797
 20
16.845305
 40
0.000000
 41
0.000000
 42
0.000000
  0
SEQEND
  0
POLYLINE
  8
454
 66
1
 70
1
 40
0.000000
 41
0.000000
 39
0.000000
  0
VERTEX
  8
454
 10
15.059203
 20
16.845305
 40
0.000000
 41
0.000000
 42
0.000000
  0
VERTEX
  8
454
 10
15.059203
 20
17.444695
 40
0.000000
 41
0.000000
 42
0.000000
  0
VERTEX
  8
454
 10
15.658592
 20
17.444695
 40
0.000000
 41
0.000000
 42
0.000000
  0
VERTEX
  8
454
 10
15.658592
 20
16.845305
 40
0.000000
 41
0.000000
 42
0.000000
  0
SEQEND
  0
POLYLINE
  8
454
 66
1
 70
0
 40
0.000000
 41
0.000000
 39
0.000000
  0
VERTEX
  8
454
 10
13.919200
 20
17.576800
 40
0.101600
 41
0.101600
 42
0.000000
  0
VERTEX
  8
454
 10
15.798800
 20
17.576800
 40
0.101600
 41
0.101600
 42
0.000000
  0
VERTEX
  8
454
 10
15.798800
 20
16.713200
 40
0.101600
 41
0.101600
 42
0.000000
  0
VERTEX
  8
454
 10
13.919200
 20
16.713200
 40
0.101600
 41
0.101600
 42
0.000000
  0
VERTEX
  8
454
 10
13.919200
 20
17.576800
 40
0.101600
 41
0.101600
 42
0.000000
  0
SEQEND
  0
TEXT
  8
454
 10
14.274800
 20
18.796000
 11
0.000000
 21
0.000000
 40
0.762000
 41
0.866667
 50
0.000000
  7
STANDARD
 71
0
 72
0
  1
C1
 73
0
  0
POLYLINE
  8
454
 66
1
 70
1
 40
0.000000
 41
0.000000
 39
0.000000
  0
VERTEX
  8
454
 10
11.664950
 20
8.274050
 40
0.000000
 41
0.000000
 42
0.000000
  0
VERTEX
  8
454
 10
11.664950
 20
7.473950
 40
0.000000
 41
0.000000
 42
0.000000
  0
VERTEX
  8
454
 10
10.864850
 20
7.473950
 40
0.000000
 41
0.000000
 42
0.000000
  0
VERTEX
  8
454
 10
10.864850
 20
8.274050
 40
0.000000
 41
0.000000
 42
0.000000
  0
SEQEND
  0
POLYLINE
  8
454
 66
1
 70
1
 40
0.000000
 41
0.000000
 39
0.000000
  0
VERTEX
  8
454
 10
13.265150
 20
8.274050
 40
0.000000
 41
0.000000
 42
0.000000
  0
VERTEX
  8
454
 10
13.265150
 20
7.473950
 40
0.000000
 41
0.000000
 42
0.000000
  0
VERTEX
  8
454
 10
12.465050
 20
7.473950
 40
0.000000
 41
0.000000
 42
0.000000
  0
VERTEX
  8
454
 10
12.465050
 20
8.274050
 40
0.000000
 41
0.000000
 42
0.000000
  0
SEQEND
  0
POLYLINE
  8
454
 66
1
 70
0
 40
0.000000
 41
0.000000
 39
0.000000
  0
VERTEX
  8
454
 10
12.319000
 20
8.509000
 40
0.127000
 41
0.127000
 42
0.000000
  0
VERTEX
  8
454
 10
13.462000
 20
8.509000
 40
0.127000
 41
0.127000
 42
0.000000
  0
VERTEX
  8
454
 10
13.462000
 20
7.239000
 40
0.127000
 41
0.127000
 42
0.000000
  0
SEQEND
  0
POLYLINE
  8
454
 66
1
 70
0
 40
0.000000
 41
0.000000
 39
0.000000
  0
VERTEX
  8
454
 10
11.811000
 20
7.239000
 40
0.127000
 41
0.127000
 42
0.000000
  0
VERTEX
  8
454
 10
10.668000
 20
7.239000
 40
0.127000
 41
0.127000
 42
0.000000
  0
VERTEX
  8
454
 10
10.668000
 20
8.509000
 40
0.127000
 41
0.127000
 42
0.000000
  0
VERTEX
  8
454
 10
11.811000
 20
8.509000
 40
0.127000
 41
0.127000
 42
0.000000
  0
SEQEND
  0
POLYLINE
  8
454
 66
1
 70
0
 40
0.000000
 41
0.000000
 39
0.000000
  0
VERTEX
  8
454
 10
13.462000
 20
7.239000
 40
0.127000
 41
0.127000
 42
0.000000
  0
VERTEX
  8
454
 10
12.319000
 20
7.239000
 40
0.127000
 41
0.127000
 42
0.000000
  0
SEQEND
  0
TEXT
  8
454
 10
9.067800
 20
6.731000
 11
0.000000
 21
0.000000
 40
0.762000
 41
0.866667
 50
0.000000
  7
STANDARD
 71
0
 72
0
  1
C5
 73
0
  0
POLYLINE
  8
454
 66
1
 70
1
 40
0.000000
 41
0.000000
 39
0.000000
  0
VERTEX
  8
454
 10
11.664950
 20
17.545050
 40
0.000000
 41
0.000000
 42
0.000000
  0
VERTEX
  8
454
 10
11.664950
 20
16.744950
 40
0.000000
 41
0.000000
 42
0.000000
  0
VERTEX
  8
454
 10
10.864850
 20
16.744950
 40
0.000000
 41
0.000000
 42
0.000000
  0
VERTEX
  8
454
 10
10.864850
 20
17.545050
 40
0.000000
 41
0.000000
 42
0.000000
  0
SEQEND
  0
POLYLINE
  8
454
 66
1
 70
1
 40
0.000000
 41
0.000000
 39
0.000000
  0
VERTEX
  8
454
 10
13.265150
 20
17.545050
 40
0.000000
 41
0.000000
 42
0.000000
  0
VERTEX
  8
454
 10
13.265150
 20
16.744950
 40
0.000000
 41
0.000000
 42
0.000000
  0
VERTEX
  8
454
 10
12.465050
 20
16.744950
 40
0.000000
 41
0.000000
 42
0.000000
  0
VERTEX
  8
454
 10
12.465050
 20
17.545050
 40
0.000000
 41
0.000000
 42
0.000000
  0
SEQEND
  0
POLYLINE
  8
454
 66
1
 70
0
 40
0.000000
 41
0.000000
 39
0.000000
  0
VERTEX
  8
454
 10
12.319000
 20
17.780000
 40
0.127000
 41
0.127000
 42
0.000000
  0
VERTEX
  8
454
 10
13.462000
 20
17.780000
 40
0.127000
 41
0.127000
 42
0.000000
  0
VERTEX
  8
454
 10
13.462000
 20
16.510000
 40
0.127000
 41
0.127000
 42
0.000000
  0
SEQEND
  0
POLYLINE
  8
454
 66
1
 70
0
 40
0.000000
 41
0.000000
 39
0.000000
  0
VERTEX
  8
454
 10
11.811000
 20
16.510000
 40
0.127000
 41
0.127000
 42
0.000000
  0
VERTEX
  8
454
 10
10.668000
 20
16.510000
 40
0.127000
 41
0.127000
 42
0.000000
  0
VERTEX
  8
454
 10
10.668000
 20
17.780000
 40
0.127000
 41
0.127000
 42
0.000000
  0
VERTEX
  8
454
 10
11.811000
 20
17.780000
 40
0.127000
 41
0.127000
 42
0.000000
  0
SEQEND
  0
POLYLINE
  8
454
 66
1
 70
0
 40
0.000000
 41
0.000000
 39
0.000000
  0
VERTEX
  8
454
 10
13.462000
 20
16.510000
 40
0.127000
 41
0.127000
 42
0.000000
  0
VERTEX
  8
454
 10
12.319000
 20
16.510000
 40
0.127000
 41
0.127000
 42
0.000000
  0
SEQEND
  0
TEXT
  8
454
 10
11.480800
 20
18.034000
 11
0.000000
 21
0.000000
 40
0.762000
 41
0.866667
 50
0.000000
  7
STANDARD
 71
0
 72
0
  1
C2
 73
0
  0
POLYLINE
  8
454
 66
1
 70
1
 40
0.000000
 41
0.000000
 39
0.000000
  0
VERTEX
  8
454
 10
11.664950
 20
15.894050
 40
0.000000
 41
0.000000
 42
0.000000
  0
VERTEX
  8
454
 10
11.664950
 20
15.093950
 40
0.000000
 41
0.000000
 42
0.000000
  0
VERTEX
  8
454
 10
10.864850
 20
15.093950
 40
0.000000
 41
0.000000
 42
0.000000
  0
VERTEX
  8
454
 10
10.864850
 20
15.894050
 40
0.000000
 41
0.000000
 42
0.000000
  0
SEQEND
  0
POLYLINE
  8
454
 66
1
 70
1
 40
0.000000
 41
0.000000
 39
0.000000
  0
VERTEX
  8
454
 10
13.265150
 20
15.894050
 40
0.000000
 41
0.000000
 42
0.000000
  0
VERTEX
  8
454
 10
13.265150
 20
15.093950
 40
0.000000
 41
0.000000
 42
0.000000
  0
VERTEX
  8
454
 10
12.465050
 20
15.093950
 40
0.000000
 41
0.000000
 42
0.000000
  0
VERTEX
  8
454
 10
12.465050
 20
15.894050
 40
0.000000
 41
0.000000
 42
0.000000
  0
SEQEND
  0
POLYLINE
  8
454
 66
1
 70
0
 40
0.000000
 41
0.000000
 39
0.000000
  0
VERTEX
  8
454
 10
12.319000
 20
16.129000
 40
0.127000
 41
0.127000
 42
0.000000
  0
VERTEX
  8
454
 10
13.462000
 20
16.129000
 40
0.127000
 41
0.127000
 42
0.000000
  0
VERTEX
  8
454
 10
13.462000
 20
14.859000
 40
0.127000
 41
0.127000
 42
0.000000
  0
SEQEND
  0
POLYLINE
  8
454
 66
1
 70
0
 40
0.000000
 41
0.000000
 39
0.000000
  0
VERTEX
  8
454
 10
11.811000
 20
14.859000
 40
0.127000
 41
0.127000
 42
0.000000
  0
VERTEX
  8
454
 10
10.668000
 20
14.859000
 40
0.127000
 41
0.127000
 42
0.000000
  0
VERTEX
  8
454
 10
10.668000
 20
16.129000
 40
0.127000
 41
0.127000
 42
0.000000
  0
VERTEX
  8
454
 10
11.811000
 20
16.129000
 40
0.127000
 41
0.127000
 42
0.000000
  0
SEQEND
  0
POLYLINE
  8
454
 66
1
 70
0
 40
0.000000
 41
0.000000
 39
0.000000
  0
VERTEX
  8
454
 10
13.462000
 20
14.859000
 40
0.127000
 41
0.127000
 42
0.000000
  0
VERTEX
  8
454
 10
12.319000
 20
14.859000
 40
0.127000
 41
0.127000
 42
0.000000
  0
SEQEND
  0
TEXT
  8
454
 10
9.194800
 20
15.494000
 11
0.000000
 21
0.000000
 40
0.762000
 41
0.866667
 50
0.000000
  7
STANDARD
 71
0
 72
0
  1
C3
 73
0
  0
POLYLINE
  8
454
 66
1
 70
1
 40
0.000000
 41
0.000000
 39
0.000000
  0
VERTEX
  8
454
 10
15.017991
 20
13.899998
 40
0.000000
 41
0.000000
 42
0.000000
  0
VERTEX
  8
454
 10
15.017991
 20
12.300001
 40
0.000000
 41
0.000000
 42
0.000000
  0
VERTEX
  8
454
 10
14.398003
 20
12.300001
 40
0.000000
 41
0.000000
 42
0.000000
  0
VERTEX
  8
454
 10
14.398003
 20
13.899998
 40
0.000000
 41
0.000000
 42
0.000000
  0
SEQEND
  0
POLYLINE
  8
454
 66
1
 70
1
 40
0.000000
 41
0.000000
 39
0.000000
  0
VERTEX
  8
454
 10
12.017997
 20
13.899998
 40
0.000000
 41
0.000000
 42
0.000000
  0
VERTEX
  8
454
 10
12.017997
 20
12.300001
 40
0.000000
 41
0.000000
 42
0.000000
  0
VERTEX
  8
454
 10
11.398009
 20
12.300001
 40
0.000000
 41
0.000000
 42
0.000000
  0
VERTEX
  8
454
 10
11.398009
 20
13.899998
 40
0.000000
 41
0.000000
 42
0.000000
  0
SEQEND
  0
POLYLINE
  8
454
 66
1
 70
1
 40
0.000000
 41
0.000000
 39
0.000000
  0
VERTEX
  8
454
 10
14.107998
 20
8.900008
 40
0.000000
 41
0.000000
 42
0.000000
  0
VERTEX
  8
454
 10
12.308002
 20
8.900008
 40
0.000000
 41
0.000000
 42
0.000000
  0
VERTEX
  8
454
 10
12.308002
 20
12.300001
 40
0.000000
 41
0.000000
 42
0.000000
  0
VERTEX
  8
454
 10
12.897993
 20
12.300001
 40
0.000000
 41
0.000000
 42
0.000000
  0
VERTEX
  8
454
 10
12.897993
 20
13.899998
 40
0.000000
 41
0.000000
 42
0.000000
  0
VERTEX
  8
454
 10
13.518007
 20
13.899998
 40
0.000000
 41
0.000000
 42
0.000000
  0
VERTEX
  8
454
 10
13.518007
 20
12.300001
 40
0.000000
 41
0.000000
 42
0.000000
  0
VERTEX
  8
454
 10
14.107998
 20
12.300001
 40
0.000000
 41
0.000000
 42
0.000000
  0
SEQEND
  0
POLYLINE
  8
454
 66
1
 70
0
 40
0.000000
 41
0.000000
 39
0.000000
  0
VERTEX
  8
454
 10
15.507995
 20
9.300007
 40
0.150012
 41
0.150012
 42
0.000000
  0
VERTEX
  8
454
 10
14.407998
 20
9.300007
 40
0.150012
 41
0.150012
 42
0.000000
  0
SEQEND
  0
POLYLINE
  8
454
 66
1
 70
0
 40
0.000000
 41
0.000000
 39
0.000000
  0
VERTEX
  8
454
 10
12.008002
 20
9.300007
 40
0.150012
 41
0.150012
 42
0.000000
  0
VERTEX
  8
454
 10
10.908005
 20
9.300007
 40
0.150012
 41
0.150012
 42
0.000000
  0
VERTEX
  8
454
 10
10.908005
 20
14.099997
 40
0.150012
 41
0.150012
 42
0.000000
  0
VERTEX
  8
454
 10
15.507995
 20
14.099997
 40
0.150012
 41
0.150012
 42
0.000000
  0
VERTEX
  8
454
 10
15.507995
 20
9.300007
 40
0.150012
 41
0.150012
 42
0.000000
  0
SEQEND
  0
TEXT
  8
454
 10
16.510000
 20
13.893800
 11
0.000000
 21
0.000000
 40
0.762000
 41
0.866667
 50
90.000000
  7
STANDARD
 71
0
 72
0
  1
U1
 73
0
  0
POLYLINE
  8
454
 66
1
 70
1
 40
0.000000
 41
0.000000
 39
0.000000
  0
VERTEX
  8
454
 10
38.778993
 20
16.878986
 40
0.000000
 41
0.000000
 42
0.000000
  0
VERTEX
  8
454
 10
38.778993
 20
17.528997
 40
0.000000
 41
0.000000
 42
0.000000
  0
VERTEX
  8
454
 10
39.978990
 20
17.528997
 40
0.000000
 41
0.000000
 42
0.000000
  0
VERTEX
  8
454
 10
39.978990
 20
16.878986
 40
0.000000
 41
0.000000
 42
0.000000
  0
SEQEND
  0
POLYLINE
  8
454
 66
1
 70
1
 40
0.000000
 41
0.000000
 39
0.000000
  0
VERTEX
  8
454
 10
43.079010
 20
16.878986
 40
0.000000
 41
0.000000
 42
0.000000
  0
VERTEX
  8
454
 10
43.079010
 20
17.528997
 40
0.000000
 41
0.000000
 42
0.000000
  0
VERTEX
  8
454
 10
44.279007
 20
17.528997
 40
0.000000
 41
0.000000
 42
0.000000
  0
VERTEX
  8
454
 10
44.279007
 20
16.878986
 40
0.000000
 41
0.000000
 42
0.000000
  0
SEQEND
  0
POLYLINE
  8
454
 66
1
 70
1
 40
0.000000
 41
0.000000
 39
0.000000
  0
VERTEX
  8
454
 10
38.778993
 20
14.728977
 40
0.000000
 41
0.000000
 42
0.000000
  0
VERTEX
  8
454
 10
38.778993
 20
15.378989
 40
0.000000
 41
0.000000
 42
0.000000
  0
VERTEX
  8
454
 10
39.978990
 20
15.378989
 40
0.000000
 41
0.000000
 42
0.000000
  0
VERTEX
  8
454
 10
39.978990
 20
14.728977
 40
0.000000
 41
0.000000
 42
0.000000
  0
SEQEND
  0
POLYLINE
  8
454
 66
1
 70
1
 40
0.000000
 41
0.000000
 39
0.000000
  0
VERTEX
  8
454
 10
43.079010
 20
14.728977
 40
0.000000
 41
0.000000
 42
0.000000
  0
VERTEX
  8
454
 10
43.079010
 20
15.378989
 40
0.000000
 41
0.000000
 42
0.000000
  0
VERTEX
  8
454
 10
44.279007
 20
15.378989
 40
0.000000
 41
0.000000
 42
0.000000
  0
VERTEX
  8
454
 10
44.279007
 20
14.728977
 40
0.000000
 41
0.000000
 42
0.000000
  0
SEQEND
  0
POLYLINE
  8
454
 66
1
 70
0
 40
0.000000
 41
0.000000
 39
0.000000
  0
VERTEX
  8
454
 10
39.429004
 20
17.728997
 40
0.150012
 41
0.150012
 42
0.000000
  0
VERTEX
  8
454
 10
43.628996
 20
17.728997
 40
0.150012
 41
0.150012
 42
0.000000
  0
SEQEND
  0
POLYLINE
  8
454
 66
1
 70
0
 40
0.000000
 41
0.000000
 39
0.000000
  0
VERTEX
  8
454
 10
43.628996
 20
16.628999
 40
0.150012
 41
0.150012
 42
0.000000
  0
VERTEX
  8
454
 10
43.628996
 20
15.629001
 40
0.150012
 41
0.150012
 42
0.000000
  0
SEQEND
  0
POLYLINE
  8
454
 66
1
 70
0
 40
0.000000
 41
0.000000
 39
0.000000
  0
VERTEX
  8
454
 10
39.429004
 20
16.628999
 40
0.150012
 41
0.150012
 42
0.000000
  0
VERTEX
  8
454
 10
39.429004
 20
15.629001
 40
0.150012
 41
0.150012
 42
0.000000
  0
SEQEND
  0
POLYLINE
  8
454
 66
1
 70
0
 40
0.000000
 41
0.000000
 39
0.000000
  0
VERTEX
  8
454
 10
39.429004
 20
14.529003
 40
0.150012
 41
0.150012
 42
0.000000
  0
VERTEX
  8
454
 10
43.628996
 20
14.529003
 40
0.150012
 41
0.150012
 42
0.000000
  0
SEQEND
  0
TEXT
  8
454
 10
38.943153
 20
14.918004
 11
0.000000
 21
0.000000
 40
0.299999
 41
0.666328
 50
0.000000
  7
STANDARD
 71
0
 72
0
  1
SW1
 73
0
  0
POLYLINE
  8
454
 66
1
 70
1
 40
0.000000
 41
0.000000
 39
0.000000
  0
VERTEX
  8
454
 10
38.778993
 20
12.224995
 40
0.000000
 41
0.000000
 42
0.000000
  0
VERTEX
  8
454
 10
38.778993
 20
12.875006
 40
0.000000
 41
0.000000
 42
0.000000
  0
VERTEX
  8
454
 10
39.978990
 20
12.875006
 40
0.000000
 41
0.000000
 42
0.000000
  0
VERTEX
  8
454
 10
39.978990
 20
12.224995
 40
0.000000
 41
0.000000
 42
0.000000
  0
SEQEND
  0
POLYLINE
  8
454
 66
1
 70
1
 40
0.000000
 41
0.000000
 39
0.000000
  0
VERTEX
  8
454
 10
43.079010
 20
12.224995
 40
0.000000
 41
0.000000
 42
0.000000
  0
VERTEX
  8
454
 10
43.079010
 20
12.875006
 40
0.000000
 41
0.000000
 42
0.000000
  0
VERTEX
  8
454
 10
44.279007
 20
12.875006
 40
0.000000
 41
0.000000
 42
0.000000
  0
VERTEX
  8
454
 10
44.279007
 20
12.224995
 40
0.000000
 41
0.000000
 42
0.000000
  0
SEQEND
  0
POLYLINE
  8
454
 66
1
 70
1
 40
0.000000
 41
0.000000
 39
0.000000
  0
VERTEX
  8
454
 10
38.778993
 20
10.074986
 40
0.000000
 41
0.000000
 42
0.000000
  0
VERTEX
  8
454
 10
38.778993
 20
10.724998
 40
0.000000
 41
0.000000
 42
0.000000
  0
VERTEX
  8
454
 10
39.978990
 20
10.724998
 40
0.000000
 41
0.000000
 42
0.000000
  0
VERTEX
  8
454
 10
39.978990
 20
10.074986
 40
0.000000
 41
0.000000
 42
0.000000
  0
SEQEND
  0
POLYLINE
  8
454
 66
1
 70
1
 40
0.000000
 41
0.000000
 39
0.000000
  0
VERTEX
  8
454
 10
43.079010
 20
10.074986
 40
0.000000
 41
0.000000
 42
0.000000
  0
VERTEX
  8
454
 10
43.079010
 20
10.724998
 40
0.000000
 41
0.000000
 42
0.000000
  0
VERTEX
  8
454
 10
44.279007
 20
10.724998
 40
0.000000
 41
0.000000
 42
0.000000
  0
VERTEX
  8
454
 10
44.279007
 20
10.074986
 40
0.000000
 41
0.000000
 42
0.000000
  0
SEQEND
  0
POLYLINE
  8
454
 66
1
 70
0
 40
0.000000
 41
0.000000
 39
0.000000
  0
VERTEX
  8
454
 10
39.429004
 20
13.075031
 40
0.150012
 41
0.150012
 42
0.000000
  0
VERTEX
  8
454
 10
43.628996
 20
13.075031
 40
0.150012
 41
0.150012
 42
0.000000
  0
SEQEND
  0
POLYLINE
  8
454
 66
1
 70
0
 40
0.000000
 41
0.000000
 39
0.000000
  0
VERTEX
  8
454
 10
43.628996
 20
11.975008
 40
0.150012
 41
0.150012
 42
0.000000
  0
VERTEX
  8
454
 10
43.628996
 20
10.975010
 40
0.150012
 41
0.150012
 42
0.000000
  0
SEQEND
  0
POLYLINE
  8
454
 66
1
 70
0
 40
0.000000
 41
0.000000
 39
0.000000
  0
VERTEX
  8
454
 10
39.429004
 20
11.975008
 40
0.150012
 41
0.150012
 42
0.000000
  0
VERTEX
  8
454
 10
39.429004
 20
10.975010
 40
0.150012
 41
0.150012
 42
0.000000
  0
SEQEND
  0
POLYLINE
  8
454
 66
1
 70
0
 40
0.000000
 41
0.000000
 39
0.000000
  0
VERTEX
  8
454
 10
39.429004
 20
9.875012
 40
0.150012
 41
0.150012
 42
0.000000
  0
VERTEX
  8
454
 10
43.628996
 20
9.875012
 40
0.150012
 41
0.150012
 42
0.000000
  0
SEQEND
  0
TEXT
  8
454
 10
38.943153
 20
10.309022
 11
0.000000
 21
0.000000
 40
0.299999
 41
0.666328
 50
0.000000
  7
STANDARD
 71
0
 72
0
  1
SW2
 73
0
  0
POLYLINE
  8
454
 66
1
 70
1
 40
0.000000
 41
0.000000
 39
0.000000
  0
VERTEX
  8
454
 10
38.778993
 20
7.607960
 40
0.000000
 41
0.000000
 42
0.000000
  0
VERTEX
  8
454
 10
38.778993
 20
8.257972
 40
0.000000
 41
0.000000
 42
0.000000
  0
VERTEX
  8
454
 10
39.978990
 20
8.257972
 40
0.000000
 41
0.000000
 42
0.000000
  0
VERTEX
  8
454
 10
39.978990
 20
7.607960
 40
0.000000
 41
0.000000
 42
0.000000
  0
SEQEND
  0
POLYLINE
  8
454
 66
1
 70
1
 40
0.000000
 41
0.000000
 39
0.000000
  0
VERTEX
  8
454
 10
43.079010
 20
7.607960
 40
0.000000
 41
0.000000
 42
0.000000
  0
VERTEX
  8
454
 10
43.079010
 20
8.257972
 40
0.000000
 41
0.000000
 42
0.000000
  0
VERTEX
  8
454
 10
44.279007
 20
8.257972
 40
0.000000
 41
0.000000
 42
0.000000
  0
VERTEX
  8
454
 10
44.279007
 20
7.607960
 40
0.000000
 41
0.000000
 42
0.000000
  0
SEQEND
  0
POLYLINE
  8
454
 66
1
 70
1
 40
0.000000
 41
0.000000
 39
0.000000
  0
VERTEX
  8
454
 10
38.778993
 20
5.457952
 40
0.000000
 41
0.000000
 42
0.000000
  0
VERTEX
  8
454
 10
38.778993
 20
6.107963
 40
0.000000
 41
0.000000
 42
0.000000
  0
VERTEX
  8
454
 10
39.978990
 20
6.107963
 40
0.000000
 41
0.000000
 42
0.000000
  0
VERTEX
  8
454
 10
39.978990
 20
5.457952
 40
0.000000
 41
0.000000
 42
0.000000
  0
SEQEND
  0
POLYLINE
  8
454
 66
1
 70
1
 40
0.000000
 41
0.000000
 39
0.000000
  0
VERTEX
  8
454
 10
43.079010
 20
5.457952
 40
0.000000
 41
0.000000
 42
0.000000
  0
VERTEX
  8
454
 10
43.079010
 20
6.107963
 40
0.000000
 41
0.000000
 42
0.000000
  0
VERTEX
  8
454
 10
44.279007
 20
6.107963
 40
0.000000
 41
0.000000
 42
0.000000
  0
VERTEX
  8
454
 10
44.279007
 20
5.457952
 40
0.000000
 41
0.000000
 42
0.000000
  0
SEQEND
  0
POLYLINE
  8
454
 66
1
 70
0
 40
0.000000
 41
0.000000
 39
0.000000
  0
VERTEX
  8
454
 10
39.429004
 20
8.457971
 40
0.150012
 41
0.150012
 42
0.000000
  0
VERTEX
  8
454
 10
43.628996
 20
8.457971
 40
0.150012
 41
0.150012
 42
0.000000
  0
SEQEND
  0
POLYLINE
  8
454
 66
1
 70
0
 40
0.000000
 41
0.000000
 39
0.000000
  0
VERTEX
  8
454
 10
43.628996
 20
7.357974
 40
0.150012
 41
0.150012
 42
0.000000
  0
VERTEX
  8
454
 10
43.628996
 20
6.357976
 40
0.150012
 41
0.150012
 42
0.000000
  0
SEQEND
  0
POLYLINE
  8
454
 66
1
 70
0
 40
0.000000
 41
0.000000
 39
0.000000
  0
VERTEX
  8
454
 10
39.429004
 20
7.357974
 40
0.150012
 41
0.150012
 42
0.000000
  0
VERTEX
  8
454
 10
39.429004
 20
6.357976
 40
0.150012
 41
0.150012
 42
0.000000
  0
SEQEND
  0
POLYLINE
  8
454
 66
1
 70
0
 40
0.000000
 41
0.000000
 39
0.000000
  0
VERTEX
  8
454
 10
39.429004
 20
5.257978
 40
0.150012
 41
0.150012
 42
0.000000
  0
VERTEX
  8
454
 10
43.628996
 20
5.257978
 40
0.150012
 41
0.150012
 42
0.000000
  0
SEQEND
  0
TEXT
  8
454
 10
38.943153
 20
5.565013
 11
0.000000
 21
0.000000
 40
0.299999
 41
0.666328
 50
0.000000
  7
STANDARD
 71
0
 72
0
  1
SW3
 73
0
  0
POLYLINE
  8
454
 66
1
 70
1
 40
0.000000
 41
0.000000
 39
0.000000
  0
VERTEX
  8
454
 10
48.533990
 20
5.620004
 40
0.000000
 41
0.000000
 42
0.000000
  0
VERTEX
  8
454
 10
46.933993
 20
5.620004
 40
0.000000
 41
0.000000
 42
0.000000
  0
VERTEX
  8
454
 10
46.933993
 20
7.220001
 40
0.000000
 41
0.000000
 42
0.000000
  0
VERTEX
  8
454
 10
48.533990
 20
7.220001
 40
0.000000
 41
0.000000
 42
0.000000
  0
SEQEND
  0
CIRCLE
  8
454
 10
47.733991
 20
8.960002
 40
0.799998
  0
CIRCLE
  8
454
 10
47.733991
 20
11.500002
 40
0.799998
  0
CIRCLE
  8
454
 10
47.733991
 20
14.040002
 40
0.799998
  0
CIRCLE
  8
454
 10
47.733991
 20
16.580002
 40
0.799998
  0
POLYLINE
  8
454
 66
1
 70
0
 40
0.000000
 41
0.000000
 39
0.000000
  0
VERTEX
  8
454
 10
48.984002
 20
7.690002
 40
0.150012
 41
0.150012
 42
0.000000
  0
VERTEX
  8
454
 10
46.483981
 20
7.690002
 40
0.150012
 41
0.150012
 42
0.000000
  0
VERTEX
  8
454
 10
46.483981
 20
17.850002
 40
0.150012
 41
0.150012
 42
0.000000
  0
VERTEX
  8
454
 10
48.984002
 20
17.850002
 40
0.150012
 41
0.150012
 42
0.000000
  0
VERTEX
  8
454
 10
48.984002
 20
5.150002
 40
0.150012
 41
0.150012
 42
0.000000
  0
VERTEX
  8
454
 10
46.483981
 20
5.150002
 40
0.150012
 41
0.150012
 42
0.000000
  0
VERTEX
  8
454
 10
46.483981
 20
7.690002
 40
0.150012
 41
0.150012
 42
0.000000
  0
SEQEND
  0
TEXT
  8
454
 10
44.881800
 20
18.161000
 11
0.000000
 21
0.000000
 40
0.762000
 41
0.866667
 50
0.000000
  7
STANDARD
 71
0
 72
0
  1
J4
 73
0
  0
POLYLINE
  8
454
 66
1
 70
1
 40
0.000000
 41
0.000000
 39
0.000000
  0
VERTEX
  8
454
 10
6.970497
 20
15.000313
 40
0.000000
 41
0.000000
 42
0.000000
  0
VERTEX
  8
454
 10
8.970493
 20
15.000313
 40
0.000000
 41
0.000000
 42
0.000000
  0
VERTEX
  8
454
 10
8.970493
 20
14.700314
 40
0.000000
 41
0.000000
 42
0.000000
  0
VERTEX
  8
454
 10
6.970497
 20
14.700314
 40
0.000000
 41
0.000000
 42
0.000000
  0
SEQEND
  0
CIRCLE
  8
454
 10
6.250889
 20
14.390497
 40
0.325006
  0
CIRCLE
  8
454
 10
6.250889
 20
8.609508
 40
0.325006
  0
POLYLINE
  8
454
 66
1
 70
1
 40
0.000000
 41
0.000000
 39
0.000000
  0
VERTEX
  8
454
 10
2.890749
 20
15.270442
 40
0.000000
 41
0.000000
 42
0.000000
  0
VERTEX
  8
454
 10
2.290851
 20
15.270442
 40
0.000000
 41
0.000000
 42
-1.000000
  0
VERTEX
  8
454
 10
2.290851
 20
16.370541
 40
0.000000
 41
0.000000
 42
0.000000
  0
VERTEX
  8
454
 10
2.890749
 20
16.370541
 40
0.000000
 41
0.000000
 42
-1.000000
  0
SEQEND
  0
POLYLINE
  8
454
 66
1
 70
1
 40
0.000000
 41
0.000000
 39
0.000000
  0
VERTEX
  8
454
 10
2.890749
 20
6.629464
 40
0.000000
 41
0.000000
 42
0.000000
  0
VERTEX
  8
454
 10
2.290851
 20
6.629464
 40
0.000000
 41
0.000000
 42
-1.000000
  0
VERTEX
  8
454
 10
2.290851
 20
7.729563
 40
0.000000
 41
0.000000
 42
0.000000
  0
VERTEX
  8
454
 10
2.890749
 20
7.729563
 40
0.000000
 41
0.000000
 42
-1.000000
  0
SEQEND
  0
POLYLINE
  8
454
 66
1
 70
1
 40
0.000000
 41
0.000000
 39
0.000000
  0
VERTEX
  8
454
 10
7.331697
 20
15.270442
 40
0.000000
 41
0.000000
 42
0.000000
  0
VERTEX
  8
454
 10
6.231903
 20
15.270442
 40
0.000000
 41
0.000000
 42
-1.000000
  0
VERTEX
  8
454
 10
6.231903
 20
16.370541
 40
0.000000
 41
0.000000
 42
0.000000
  0
VERTEX
  8
454
 10
7.331697
 20
16.370541
 40
0.000000
 41
0.000000
 42
-1.000000
  0
SEQEND
  0
POLYLINE
  8
454
 66
1
 70
1
 40
0.000000
 41
0.000000
 39
0.000000
  0
VERTEX
  8
454
 10
7.331697
 20
6.629464
 40
0.000000
 41
0.000000
 42
0.000000
  0
VERTEX
  8
454
 10
6.231903
 20
6.629464
 40
0.000000
 41
0.000000
 42
-1.000000
  0
VERTEX
  8
454
 10
6.231903
 20
7.729563
 40
0.000000
 41
0.000000
 42
0.000000
  0
VERTEX
  8
454
 10
7.331697
 20
7.729563
 40
0.000000
 41
0.000000
 42
-1.000000
  0
SEQEND
  0
POLYLINE
  8
454
 66
1
 70
1
 40
0.000000
 41
0.000000
 39
0.000000
  0
VERTEX
  8
454
 10
6.970497
 20
14.700491
 40
0.000000
 41
0.000000
 42
0.000000
  0
VERTEX
  8
454
 10
8.970493
 20
14.700491
 40
0.000000
 41
0.000000
 42
0.000000
  0
VERTEX
  8
454
 10
8.970493
 20
14.400492
 40
0.000000
 41
0.000000
 42
0.000000
  0
VERTEX
  8
454
 10
6.970497
 20
14.400492
 40
0.000000
 41
0.000000
 42
0.000000
  0
SEQEND
  0
POLYLINE
  8
454
 66
1
 70
1
 40
0.000000
 41
0.000000
 39
0.000000
  0
VERTEX
  8
454
 10
6.970497
 20
14.200213
 40
0.000000
 41
0.000000
 42
0.000000
  0
VERTEX
  8
454
 10
8.970493
 20
14.200213
 40
0.000000
 41
0.000000
 42
0.000000
  0
VERTEX
  8
454
 10
8.970493
 20
13.900214
 40
0.000000
 41
0.000000
 42
0.000000
  0
VERTEX
  8
454
 10
6.970497
 20
13.900214
 40
0.000000
 41
0.000000
 42
0.000000
  0
SEQEND
  0
POLYLINE
  8
454
 66
1
 70
1
 40
0.000000
 41
0.000000
 39
0.000000
  0
VERTEX
  8
454
 10
6.970497
 20
13.900391
 40
0.000000
 41
0.000000
 42
0.000000
  0
VERTEX
  8
454
 10
8.970493
 20
13.900391
 40
0.000000
 41
0.000000
 42
0.000000
  0
VERTEX
  8
454
 10
8.970493
 20
13.600392
 40
0.000000
 41
0.000000
 42
0.000000
  0
VERTEX
  8
454
 10
6.970497
 20
13.600392
 40
0.000000
 41
0.000000
 42
0.000000
  0
SEQEND
  0
POLYLINE
  8
454
 66
1
 70
1
 40
0.000000
 41
0.000000
 39
0.000000
  0
VERTEX
  8
454
 10
6.970497
 20
13.400113
 40
0.000000
 41
0.000000
 42
0.000000
  0
VERTEX
  8
454
 10
8.970493
 20
13.400113
 40
0.000000
 41
0.000000
 42
0.000000
  0
VERTEX
  8
454
 10
8.970493
 20
13.100114
 40
0.000000
 41
0.000000
 42
0.000000
  0
VERTEX
  8
454
 10
6.970497
 20
13.100114
 40
0.000000
 41
0.000000
 42
0.000000
  0
SEQEND
  0
POLYLINE
  8
454
 66
1
 70
1
 40
0.000000
 41
0.000000
 39
0.000000
  0
VERTEX
  8
454
 10
6.970497
 20
12.899708
 40
0.000000
 41
0.000000
 42
0.000000
  0
VERTEX
  8
454
 10
8.970493
 20
12.899708
 40
0.000000
 41
0.000000
 42
0.000000
  0
VERTEX
  8
454
 10
8.970493
 20
12.599708
 40
0.000000
 41
0.000000
 42
0.000000
  0
VERTEX
  8
454
 10
6.970497
 20
12.599708
 40
0.000000
 41
0.000000
 42
0.000000
  0
SEQEND
  0
POLYLINE
  8
454
 66
1
 70
1
 40
0.000000
 41
0.000000
 39
0.000000
  0
VERTEX
  8
454
 10
6.970497
 20
12.399302
 40
0.000000
 41
0.000000
 42
0.000000
  0
VERTEX
  8
454
 10
8.970493
 20
12.399302
 40
0.000000
 41
0.000000
 42
0.000000
  0
VERTEX
  8
454
 10
8.970493
 20
12.099303
 40
0.000000
 41
0.000000
 42
0.000000
  0
VERTEX
  8
454
 10
6.970497
 20
12.099303
 40
0.000000
 41
0.000000
 42
0.000000
  0
SEQEND
  0
POLYLINE
  8
454
 66
1
 70
1
 40
0.000000
 41
0.000000
 39
0.000000
  0
VERTEX
  8
454
 10
6.970497
 20
11.898897
 40
0.000000
 41
0.000000
 42
0.000000
  0
VERTEX
  8
454
 10
8.970493
 20
11.898897
 40
0.000000
 41
0.000000
 42
0.000000
  0
VERTEX
  8
454
 10
8.970493
 20
11.598897
 40
0.000000
 41
0.000000
 42
0.000000
  0
VERTEX
  8
454
 10
6.970497
 20
11.598897
 40
0.000000
 41
0.000000
 42
0.000000
  0
SEQEND
  0
POLYLINE
  8
454
 66
1
 70
1
 40
0.000000
 41
0.000000
 39
0.000000
  0
VERTEX
  8
454
 10
6.970497
 20
11.401108
 40
0.000000
 41
0.000000
 42
0.000000
  0
VERTEX
  8
454
 10
8.970493
 20
11.401108
 40
0.000000
 41
0.000000
 42
0.000000
  0
VERTEX
  8
454
 10
8.970493
 20
11.101108
 40
0.000000
 41
0.000000
 42
0.000000
  0
VERTEX
  8
454
 10
6.970497
 20
11.101108
 40
0.000000
 41
0.000000
 42
0.000000
  0
SEQEND
  0
POLYLINE
  8
454
 66
1
 70
1
 40
0.000000
 41
0.000000
 39
0.000000
  0
VERTEX
  8
454
 10
6.970497
 20
10.400297
 40
0.000000
 41
0.000000
 42
0.000000
  0
VERTEX
  8
454
 10
8.970493
 20
10.400297
 40
0.000000
 41
0.000000
 42
0.000000
  0
VERTEX
  8
454
 10
8.970493
 20
10.100297
 40
0.000000
 41
0.000000
 42
0.000000
  0
VERTEX
  8
454
 10
6.970497
 20
10.100297
 40
0.000000
 41
0.000000
 42
0.000000
  0
SEQEND
  0
POLYLINE
  8
454
 66
1
 70
1
 40
0.000000
 41
0.000000
 39
0.000000
  0
VERTEX
  8
454
 10
6.970497
 20
9.899891
 40
0.000000
 41
0.000000
 42
0.000000
  0
VERTEX
  8
454
 10
8.970493
 20
9.899891
 40
0.000000
 41
0.000000
 42
0.000000
  0
VERTEX
  8
454
 10
8.970493
 20
9.599892
 40
0.000000
 41
0.000000
 42
0.000000
  0
VERTEX
  8
454
 10
6.970497
 20
9.599892
 40
0.000000
 41
0.000000
 42
0.000000
  0
SEQEND
  0
POLYLINE
  8
454
 66
1
 70
1
 40
0.000000
 41
0.000000
 39
0.000000
  0
VERTEX
  8
454
 10
6.970497
 20
10.900702
 40
0.000000
 41
0.000000
 42
0.000000
  0
VERTEX
  8
454
 10
8.970493
 20
10.900702
 40
0.000000
 41
0.000000
 42
0.000000
  0
VERTEX
  8
454
 10
8.970493
 20
10.600703
 40
0.000000
 41
0.000000
 42
0.000000
  0
VERTEX
  8
454
 10
6.970497
 20
10.600703
 40
0.000000
 41
0.000000
 42
0.000000
  0
SEQEND
  0
POLYLINE
  8
454
 66
1
 70
1
 40
0.000000
 41
0.000000
 39
0.000000
  0
VERTEX
  8
454
 10
6.970497
 20
9.399613
 40
0.000000
 41
0.000000
 42
0.000000
  0
VERTEX
  8
454
 10
8.970493
 20
9.399613
 40
0.000000
 41
0.000000
 42
0.000000
  0
VERTEX
  8
454
 10
8.970493
 20
9.099614
 40
0.000000
 41
0.000000
 42
0.000000
  0
VERTEX
  8
454
 10
6.970497
 20
9.099614
 40
0.000000
 41
0.000000
 42
0.000000
  0
SEQEND
  0
POLYLINE
  8
454
 66
1
 70
1
 40
0.000000
 41
0.000000
 39
0.000000
  0
VERTEX
  8
454
 10
6.970497
 20
9.099791
 40
0.000000
 41
0.000000
 42
0.000000
  0
VERTEX
  8
454
 10
8.970493
 20
9.099791
 40
0.000000
 41
0.000000
 42
0.000000
  0
VERTEX
  8
454
 10
8.970493
 20
8.799792
 40
0.000000
 41
0.000000
 42
0.000000
  0
VERTEX
  8
454
 10
6.970497
 20
8.799792
 40
0.000000
 41
0.000000
 42
0.000000
  0
SEQEND
  0
POLYLINE
  8
454
 66
1
 70
1
 40
0.000000
 41
0.000000
 39
0.000000
  0
VERTEX
  8
454
 10
6.970497
 20
8.599513
 40
0.000000
 41
0.000000
 42
0.000000
  0
VERTEX
  8
454
 10
8.970493
 20
8.599513
 40
0.000000
 41
0.000000
 42
0.000000
  0
VERTEX
  8
454
 10
8.970493
 20
8.299513
 40
0.000000
 41
0.000000
 42
0.000000
  0
VERTEX
  8
454
 10
6.970497
 20
8.299513
 40
0.000000
 41
0.000000
 42
0.000000
  0
SEQEND
  0
POLYLINE
  8
454
 66
1
 70
1
 40
0.000000
 41
0.000000
 39
0.000000
  0
VERTEX
  8
454
 10
6.970497
 20
8.299691
 40
0.000000
 41
0.000000
 42
0.000000
  0
VERTEX
  8
454
 10
8.970493
 20
8.299691
 40
0.000000
 41
0.000000
 42
0.000000
  0
VERTEX
  8
454
 10
8.970493
 20
7.999692
 40
0.000000
 41
0.000000
 42
0.000000
  0
VERTEX
  8
454
 10
6.970497
 20
7.999692
 40
0.000000
 41
0.000000
 42
0.000000
  0
SEQEND
  0
POLYLINE
  8
454
 66
1
 70
0
 40
0.000000
 41
0.000000
 39
0.000000
  0
VERTEX
  8
454
 10
7.292289
 20
16.000908
 40
0.248895
 41
0.248895
 42
0.000000
  0
VERTEX
  8
454
 10
7.292289
 20
6.999097
 40
0.248895
 41
0.248895
 42
0.000000
  0
SEQEND
  0
POLYLINE
  8
454
 66
1
 70
0
 40
0.000000
 41
0.000000
 39
0.000000
  0
VERTEX
  8
454
 10
7.292289
 20
6.999097
 40
0.248895
 41
0.248895
 42
0.000000
  0
VERTEX
  8
454
 10
0.000000
 20
6.999097
 40
0.248895
 41
0.248895
 42
0.000000
  0
SEQEND
  0
POLYLINE
  8
454
 66
1
 70
0
 40
0.000000
 41
0.000000
 39
0.000000
  0
VERTEX
  8
454
 10
0.000000
 20
6.999097
 40
0.248895
 41
0.248895
 42
0.000000
  0
VERTEX
  8
454
 10
0.000000
 20
16.000908
 40
0.248895
 41
0.248895
 42
0.000000
  0
SEQEND
  0
POLYLINE
  8
454
 66
1
 70
0
 40
0.000000
 41
0.000000
 39
0.000000
  0
VERTEX
  8
454
 10
0.000000
 20
16.000908
 40
0.248895
 41
0.248895
 42
0.000000
  0
VERTEX
  8
454
 10
7.292289
 20
16.000908
 40
0.248895
 41
0.248895
 42
0.000000
  0
SEQEND
  0
TEXT
  8
454
 10
2.159000
 20
5.334000
 11
2.413000
 21
5.334000
 40
0.762000
 41
0.866667
 50
0.000000
  7
STANDARD
 71
0
 72
1
  1
J1
 73
0
  0
POLYLINE
  8
454
 66
1
 70
0
 40
0.000000
 41
0.000000
 39
0.000000
  0
VERTEX
  8
454
 10
2.999994
 20
0.000000
 40
0.000000
 41
0.000000
 42
0.000000
  0
VERTEX
  8
454
 10
47.000008
 20
0.000000
 40
0.000000
 41
0.000000
 42
0.414214
  0
VERTEX
  8
454
 10
50.000002
 20
2.999994
 40
0.000000
 41
0.000000
 42
0.000000
  0
VERTEX
  8
454
 10
50.000002
 20
20.000011
 40
0.000000
 41
0.000000
 42
0.414214
  0
VERTEX
  8
454
 10
47.000008
 20
23.000005
 40
0.000000
 41
0.000000
 42
0.000000
  0
VERTEX
  8
454
 10
2.999994
 20
23.000005
 40
0.000000
 41
0.000000
 42
0.414214
  0
VERTEX
  8
454
 10
0.000000
 20
20.000011
 40
0.000000
 41
0.000000
 42
0.000000
  0
VERTEX
  8
454
 10
0.000000
 20
2.999994
 40
0.000000
 41
0.000000
 42
0.414214
  0
VERTEX
  8
454
 10
2.999994
 20
0.000000
 40
0.000000
 41
0.000000
 42
0.000000
  0
SEQEND
  0
POLYLINE
  8
454
 66
1
 70
0
 40
0.000000
 41
0.000000
 39
0.000000
  0
VERTEX
  8
454
 10
46.102981
 20
5.150002
 40
0.152400
 41
0.152400
 42
0.000000
  0
VERTEX
  8
454
 10
45.467981
 20
5.150002
 40
0.152400
 41
0.152400
 42
-0.414214
  0
VERTEX
  8
454
 10
44.705981
 20
5.912002
 40
0.152400
 41
0.152400
 42
0.000000
  0
VERTEX
  8
454
 10
44.705981
 20
17.088002
 40
0.152400
 41
0.152400
 42
-0.414214
  0
VERTEX
  8
454
 10
45.467981
 20
17.850002
 40
0.152400
 41
0.152400
 42
0.000000
  0
VERTEX
  8
454
 10
46.102981
 20
17.850002
 40
0.152400
 41
0.152400
 42
0.000000
  0
VERTEX
  8
454
 10
46.102981
 20
5.150002
 40
0.152400
 41
0.152400
 42
0.000000
  0
SEQEND
  0
TEXT
  8
454
 10
40.868600
 20
8.763000
 11
0.000000
 21
0.000000
 40
0.762000
 41
0.866667
 50
0.000000
  7
STANDARD
 71
0
 72
0
  1
RST
 73
0
  0
TEXT
  8
454
 10
40.538400
 20
18.034000
 11
0.000000
 21
0.000000
 40
0.762000
 41
0.866667
 50
0.000000
  7
STANDARD
 71
0
 72
0
  1
KEY1
 73
0
  0
TEXT
  8
454
 10
40.538400
 20
13.462000
 11
0.000000
 21
0.000000
 40
0.762000
 41
0.866667
 50
0.000000
  7
STANDARD
 71
0
 72
0
  1
KEY2
 73
0
  0
TEXT
  8
454
 10
45.828991
 20
15.665602
 11
0.000000
 21
0.000000
 40
0.762000
 41
0.866667
 50
90.000000
  7
STANDARD
 71
0
 72
0
  1
3V3
 73
0
  0
TEXT
  8
454
 10
45.828991
 20
13.125602
 11
0.000000
 21
0.000000
 40
0.762000
 41
0.866667
 50
90.000000
  7
STANDARD
 71
0
 72
0
  1
DIO
 73
0
  0
TEXT
  8
454
 10
45.828991
 20
10.585602
 11
0.000000
 21
0.000000
 40
0.762000
 41
0.866667
 50
90.000000
  7
STANDARD
 71
0
 72
0
  1
GND
 73
0
  0
TEXT
  8
454
 10
45.828991
 20
8.045602
 11
0.000000
 21
0.000000
 40
0.762000
 41
0.866667
 50
90.000000
  7
STANDARD
 71
0
 72
0
  1
CLK
 73
0
  0
TEXT
  8
454
 10
45.828991
 20
5.505602
 11
0.000000
 21
0.000000
 40
0.762000
 41
0.866667
 50
90.000000
  7
STANDARD
 71
0
 72
0
  1
RST
 73
0
  0
TEXT
  8
454
 10
10.058400
 20
10.820400
 11
0.000000
 21
0.000000
 40
0.762000
 41
0.866667
 50
90.000000
  7
STANDARD
 71
0
 72
0
  1
PWR
 73
0
  0
ENDSEC
  0
EOF
